<?xml version="1.0" standalone="no"?>
<!DOCTYPE svg PUBLIC "-//W3C//DTD SVG 1.1//EN" "http://www.w3.org/Graphics/SVG/1.1/DTD/svg11.dtd" >
<svg xmlns="http://www.w3.org/2000/svg" xmlns:xlink="http://www.w3.org/1999/xlink" version="1.1">
<metadata>
Created by FontForge 20191125 at Fri Jun  4 20:11:32 2021
 By convertio
Copyright 2017-2019 Apple Inc. All rights reserved.
</metadata>
<defs>
<font id="NewYorkLarge-Regular" horiz-adv-x="0" >
  <font-face 
    font-family="New York Large"
    font-weight="400"
    font-stretch="normal"
    units-per-em="2048"
    panose-1="2 2 5 2 6 4 0 0 0 4"
    ascent="1638"
    descent="-410"
    x-height="978"
    cap-height="1444"
    bbox="-437 -520 3215 1951"
    underline-thickness="63"
    underline-position="-232"
    stemh="70"
    stemv="115"
    unicode-range="U+0020-1F16B"
  />
<missing-glyph horiz-adv-x="2048" 
d="M155 -494v2444h99v-2444h-99zM565 -494v2444h99v-2444h-99zM974 -494v2444h100v-2444h-100zM1384 -494v2444h100v-2444h-100zM1794 -494v2444h100v-2444h-100z" />
    <glyph glyph-name=".notdef" horiz-adv-x="2048" 
d="M155 -494v2444h99v-2444h-99zM565 -494v2444h99v-2444h-99zM974 -494v2444h100v-2444h-100zM1384 -494v2444h100v-2444h-100zM1794 -494v2444h100v-2444h-100z" />
    <glyph glyph-name="space" unicode=" " horiz-adv-x="469" 
 />
    <glyph glyph-name="exclam" unicode="!" horiz-adv-x="593" 
d="M297 1459c69 0 112 -56 112 -142c0 -93 -16 -221 -39 -411l-53 -468h-41l-52 469c-23 190 -39 317 -39 410c0 86 42 142 112 142zM297 -15c-69 0 -126 56 -126 127s57 127 126 127s126 -56 126 -127s-57 -127 -126 -127z" />
    <glyph glyph-name="quotedbl" unicode="&#x22;" horiz-adv-x="875" 
d="M258 1474c61 0 101 -48 101 -111c0 -45 -3 -73 -26 -197l-53 -282h-45l-51 282c-23 124 -27 152 -27 197c0 63 40 111 101 111zM617 1474c61 0 101 -48 101 -111c0 -45 -3 -73 -26 -197l-53 -282h-45l-51 282c-23 124 -27 152 -27 197c0 63 40 111 101 111z" />
    <glyph glyph-name="numbersign" unicode="#" horiz-adv-x="1180" 
d="M273 0l30 422h-235l6 80h234l31 440h-234l5 80h235l29 422h83l-30 -422h367l29 422h83l-30 -422h236l-5 -80h-236l-31 -440h236l-5 -80h-237l-29 -422h-83l30 422h-367l-29 -422h-83zM391 502h366l31 440h-366z" />
    <glyph glyph-name="dollar" unicode="$" horiz-adv-x="1077" 
d="M508 -189v201c-157 2 -301 40 -396 108l-13 289h44c57 -236 198 -327 365 -332v577l-71 30c-222 91 -325 215 -325 382c0 222 166 350 396 365v201h48v-200c161 -1 290 -43 352 -83l13 -280h-43c-45 192 -153 294 -322 298v-511l87 -37c233 -96 346 -216 346 -401
c0 -230 -184 -390 -433 -405v-202h-48zM286 1141c0 -121 73 -199 222 -265v489c-144 -13 -222 -105 -222 -224zM815 345c0 136 -76 214 -259 290v-557c157 13 259 118 259 267z" />
    <glyph glyph-name="percent" unicode="%" horiz-adv-x="1766" 
d="M380 687c-163 0 -302 139 -302 385c0 251 136 386 306 386c163 0 302 -140 302 -385c0 -252 -137 -386 -306 -386zM414 0l853 1444h84l-853 -1444h-84zM385 735c90 0 139 94 139 325c0 234 -52 350 -145 350c-89 0 -138 -94 -138 -325c0 -234 52 -350 144 -350zM1382 -13
c-163 0 -302 139 -302 385c0 251 136 386 305 386c163 0 302 -140 302 -386c0 -251 -136 -385 -305 -385zM1387 35c90 0 138 94 138 325c0 234 -52 350 -144 350c-90 0 -138 -94 -138 -325c0 -234 52 -350 144 -350z" />
    <glyph glyph-name="ampersand" unicode="&#x26;" horiz-adv-x="1564" 
d="M503 -22c-242 0 -417 160 -417 387c0 176 116 315 354 407c-135 144 -188 244 -188 369c0 182 155 328 381 328c234 0 373 -129 373 -295c0 -149 -114 -260 -327 -353c15 -14 30 -29 46 -44l341 -326l108 168c102 155 77 204 -70 224v47h423v-47
c-105 -12 -154 -49 -282 -227l-143 -201l153 -146c158 -149 229 -202 306 -226v-43h-320l-260 249c-143 -176 -289 -271 -478 -271zM430 1207c0 -111 60 -198 216 -353c128 77 190 179 190 310c0 134 -75 239 -203 239c-120 0 -202 -74 -203 -196zM274 455
c0 -217 162 -360 351 -360c113 0 220 58 323 185l-379 363c-36 34 -68 66 -96 95c-135 -69 -199 -164 -199 -283z" />
    <glyph glyph-name="quotesingle" unicode="'" horiz-adv-x="516" 
d="M258 1474c61 0 101 -48 101 -111c0 -45 -3 -73 -26 -197l-53 -282h-45l-51 282c-23 124 -27 152 -27 197c0 63 40 111 101 111z" />
    <glyph glyph-name="parenleft" unicode="(" horiz-adv-x="651" 
d="M277 650c0 -391 132 -716 329 -930h-59c-246 167 -453 521 -453 930s207 762 453 930h59c-197 -214 -329 -539 -329 -930z" />
    <glyph glyph-name="parenright" unicode=")" horiz-adv-x="651" 
d="M374 650c0 391 -132 716 -330 930h59c247 -167 454 -521 454 -930s-207 -762 -454 -930h-59c198 214 330 539 330 930z" />
    <glyph glyph-name="asterisk" unicode="*" horiz-adv-x="719" 
d="M347 1157l-54 209c-18 62 20 102 67 102c45 0 84 -40 67 -102l-54 -209h-26zM378 1156l146 150c44 48 98 34 122 -7c23 -39 8 -92 -55 -109l-202 -57zM330 1133l-202 57c-62 16 -77 70 -54 109c23 41 78 54 122 7l145 -150zM341 1105l-145 -150c-43 -47 -99 -34 -122 7
c-23 39 -7 92 54 109l202 57zM389 1128l203 -57c62 -17 77 -70 54 -109c-24 -41 -78 -54 -122 -7l-146 151zM373 1102l54 -208c18 -62 -21 -103 -67 -103c-47 0 -85 41 -67 103l55 208h25z" />
    <glyph glyph-name="plus" unicode="+" horiz-adv-x="1136" 
d="M525 115v412h-411v85h411v412h86v-412h411v-85h-411v-412h-86z" />
    <glyph glyph-name="comma" unicode="," horiz-adv-x="484" 
d="M105 -277l-11 41c86 19 159 88 159 177c0 74 -59 130 -142 136c0 88 48 161 128 161c86 0 141 -82 141 -191c0 -171 -135 -299 -275 -324z" />
    <glyph glyph-name="hyphen" unicode="&#x2011;" horiz-adv-x="692" 
d="M602 522h-512v95h512v-95z" />
    <glyph glyph-name="hyphen" unicode="&#x2010;" horiz-adv-x="692" 
d="M602 522h-512v95h512v-95z" />
    <glyph glyph-name="hyphen" unicode="-" horiz-adv-x="692" 
d="M602 522h-512v95h512v-95z" />
    <glyph glyph-name="period" unicode="." horiz-adv-x="484" 
d="M243 -15c-70 0 -127 57 -127 127s57 126 127 126c69 0 126 -56 126 -126s-57 -127 -126 -127z" />
    <glyph glyph-name="slash" unicode="/" horiz-adv-x="651" 
d="M27 -280l498 1860h99l-498 -1860h-99z" />
    <glyph glyph-name="zero" unicode="0" horiz-adv-x="1257" 
d="M627 -24c-270 0 -518 250 -518 745c0 510 243 747 522 747c271 0 517 -250 517 -745c0 -510 -241 -747 -521 -747zM634 41c185 0 285 202 285 646c0 453 -106 716 -296 716c-184 0 -284 -202 -284 -646c0 -453 106 -716 295 -716z" />
    <glyph glyph-name="one" unicode="1" horiz-adv-x="767" 
d="M491 1446l-3 -1250c-1 -101 33 -128 202 -149v-47h-595v47c166 20 199 48 199 149v1094l-212 -63v40c114 58 215 117 303 179h106z" />
    <glyph glyph-name="two" unicode="2" horiz-adv-x="973" 
d="M879 0h-819v135l199 230c292 310 391 467 391 668c0 184 -113 301 -276 301c-158 0 -260 -80 -310 -198v53c39 161 182 279 411 279c222 0 385 -145 385 -370c0 -217 -129 -391 -471 -708l-229 -219h728z" />
    <glyph glyph-name="three" unicode="3" horiz-adv-x="1052" 
d="M167 393c61 0 108 -46 108 -108c0 -60 -46 -106 -103 -106c-7 0 -13 0 -20 2c47 -73 143 -120 258 -120c185 0 332 120 332 321c0 214 -161 361 -447 362v44c287 48 409 161 409 316c0 142 -105 230 -264 230c-162 0 -277 -73 -340 -190v45c40 158 198 279 422 279
c222 0 375 -124 375 -322c0 -170 -130 -287 -310 -320c214 -25 365 -190 365 -411c0 -292 -258 -439 -490 -439s-404 142 -404 302c0 67 50 115 109 115z" />
    <glyph glyph-name="four" unicode="4" horiz-adv-x="1155" 
d="M706 0v367h-657v82l702 997h136v-925h227l-6 -154h-221v-367h-181zM707 520v765l-507 -765h507z" />
    <glyph glyph-name="five" unicode="5" horiz-adv-x="1057" 
d="M181 388c61 0 109 -47 109 -108c0 -60 -47 -106 -103 -106c-7 0 -13 1 -19 2c45 -70 138 -115 259 -115c179 0 328 126 328 362c0 214 -139 356 -311 356c-130 0 -221 -54 -266 -123l-46 2l141 786h637l-9 -173h-586l-111 -524c57 77 178 146 341 146
c225 0 420 -167 420 -433c0 -294 -244 -484 -494 -484c-243 0 -399 148 -399 293c0 68 50 119 109 119z" />
    <glyph glyph-name="six" unicode="6" horiz-adv-x="1171" 
d="M107 581c0 496 375 877 911 873v-45c-433 -35 -683 -351 -704 -810c48 162 178 270 373 270c237 0 391 -174 391 -424c0 -303 -231 -469 -475 -469c-299 0 -496 224 -496 605zM321 451c0 -251 109 -410 282 -410c157 0 265 137 265 349c0 224 -102 367 -270 367
c-162 0 -277 -124 -277 -306z" />
    <glyph glyph-name="seven" unicode="7" horiz-adv-x="957" 
d="M392 0h-216v6c232 519 437 911 650 1265h-776l9 173h830v-173c-171 -361 -328 -765 -497 -1271z" />
    <glyph glyph-name="eight" unicode="8" horiz-adv-x="1197" 
d="M1085 366c0 -247 -220 -390 -486 -390c-285 0 -486 122 -487 355c0 203 140 335 352 401l-6 3c-179 94 -297 205 -297 378c0 230 190 355 443 355c268 0 433 -133 433 -321c0 -169 -127 -275 -321 -334l26 -13c232 -122 343 -241 343 -434zM579 885l98 -51
c114 60 179 160 179 290c0 154 -92 279 -255 279c-164 0 -259 -92 -259 -224c0 -130 75 -209 237 -294zM294 357c0 -183 122 -316 308 -316c184 0 302 102 302 256c0 148 -75 240 -286 353l-114 60c-139 -67 -211 -192 -210 -353z" />
    <glyph glyph-name="nine" unicode="9" horiz-adv-x="1171" 
d="M1064 863c0 -496 -376 -877 -911 -873l-1 45c434 35 684 351 705 810c-48 -162 -178 -270 -373 -270c-237 0 -391 174 -391 424c0 303 231 469 475 469c299 0 496 -224 496 -605zM573 687c162 0 277 124 277 306c0 251 -109 410 -282 410c-157 0 -265 -137 -265 -349
c0 -224 102 -367 270 -367z" />
    <glyph glyph-name="colon" unicode=":" horiz-adv-x="493" 
d="M247 710c-68 0 -124 55 -124 123c0 70 56 125 124 125c69 0 124 -55 124 -125c0 -68 -55 -123 -124 -123zM247 -12c-68 0 -124 55 -124 124s56 124 124 124c69 0 124 -55 124 -124s-55 -124 -124 -124z" />
    <glyph glyph-name="semicolon" unicode=";" horiz-adv-x="484" 
d="M243 706c-68 0 -125 56 -125 124c0 69 57 124 125 124s123 -55 123 -124c0 -68 -55 -124 -123 -124zM105 -277l-11 41c86 19 159 88 159 177c0 74 -59 130 -142 136c0 88 48 161 128 161c86 0 141 -82 141 -191c0 -171 -135 -299 -275 -324z" />
    <glyph glyph-name="less" unicode="&#x3c;" horiz-adv-x="1135" 
d="M1051 174v-91l-965 474v38l965 474v-87l-833 -403z" />
    <glyph glyph-name="equal" unicode="=" horiz-adv-x="1136" 
d="M114 731v86h908v-86h-908zM114 322v86h908v-86h-908z" />
    <glyph glyph-name="greater" unicode="&#x3e;" horiz-adv-x="1135" 
d="M84 977v92l966 -474v-39l-966 -473v87l832 402z" />
    <glyph glyph-name="question" unicode="?" horiz-adv-x="718" 
d="M244 1462c210 0 382 -174 382 -435c0 -241 -136 -391 -334 -440l9 -142h-44l-52 352c225 9 349 83 347 227c-2 178 -198 270 -460 270c-4 14 -6 28 -6 42c0 70 55 126 158 126zM291 -15c-69 0 -127 56 -127 126c0 71 58 127 127 127c68 0 125 -56 125 -127
c0 -70 -57 -126 -125 -126z" />
    <glyph glyph-name="at" unicode="@" horiz-adv-x="1955" 
d="M570 360c0 299 184 615 447 615c107 0 172 -56 203 -141l123 122h69l-154 -720c-26 -123 24 -157 88 -157c176 0 437 201 437 597c0 416 -314 655 -719 655c-483 0 -895 -383 -895 -916c0 -472 316 -768 716 -768c158 0 297 24 425 99l-1 -48
c-102 -79 -276 -117 -439 -117c-429 0 -775 330 -775 824c0 586 446 992 967 992c456 0 796 -282 796 -717c0 -426 -291 -671 -548 -671c-169 0 -244 88 -219 236c0 1 8 40 8 40c-67 -164 -192 -251 -311 -251c-144 0 -218 133 -218 326zM751 342c0 -126 32 -220 114 -220
c115 0 226 151 256 294l74 346c-13 86 -62 144 -142 144c-185 0 -302 -308 -302 -564z" />
    <glyph glyph-name="A" unicode="A" horiz-adv-x="1373" 
d="M1186 247c56 -152 89 -185 198 -200v-47h-538v47c139 17 162 56 112 201l-93 264h-496l-81 -235c-58 -171 -43 -210 108 -230v-47h-407v47c115 15 145 48 213 235l427 1162h123zM390 574h453l-229 653z" />
    <glyph glyph-name="B" unicode="B" horiz-adv-x="1320" 
d="M1231 413c0 -281 -292 -413 -622 -413h-549v47c134 16 152 37 152 125v1100c0 89 -18 109 -152 125v47h549c343 0 550 -122 550 -345c0 -194 -181 -300 -398 -320c278 -17 470 -139 470 -366zM935 1078c0 176 -103 299 -377 307l-130 5v-601h184c210 1 323 107 323 289z
M999 398c0 206 -138 333 -387 335l-184 1v-680l130 5c277 8 441 120 441 339z" />
    <glyph glyph-name="C" unicode="&#x216d;" horiz-adv-x="1410" 
d="M99 730c0 471 327 738 736 738c234 0 389 -49 467 -106l13 -322h-43c-54 240 -195 360 -424 360c-319 0 -508 -258 -508 -648s192 -708 513 -708c215 0 367 103 425 368h43l-13 -321c-76 -56 -261 -115 -468 -115c-413 0 -741 288 -741 754z" />
    <glyph glyph-name="C" unicode="C" horiz-adv-x="1410" 
d="M99 730c0 471 327 738 736 738c234 0 389 -49 467 -106l13 -322h-43c-54 240 -195 360 -424 360c-319 0 -508 -258 -508 -648s192 -708 513 -708c215 0 367 103 425 368h43l-13 -321c-76 -56 -261 -115 -468 -115c-413 0 -741 288 -741 754z" />
    <glyph glyph-name="D" unicode="&#x216e;" horiz-adv-x="1518" 
d="M1430 746c0 -479 -393 -746 -846 -746h-524v47c134 16 152 37 152 125v1100c0 89 -18 109 -152 125v47h523c493 0 847 -251 847 -698zM1191 727c0 393 -239 646 -645 659l-118 4v-1336l118 4c403 13 645 261 645 669z" />
    <glyph glyph-name="D" unicode="D" horiz-adv-x="1518" 
d="M1430 746c0 -479 -393 -746 -846 -746h-524v47c134 16 152 37 152 125v1100c0 89 -18 109 -152 125v47h523c493 0 847 -251 847 -698zM1191 727c0 393 -239 646 -645 659l-118 4v-1336l118 4c403 13 645 261 645 669z" />
    <glyph glyph-name="E" unicode="E" horiz-adv-x="1230" 
d="M1097 1444l14 -347h-43c-52 221 -137 274 -403 284l-237 9v-623l287 4c105 3 128 42 161 201h40v-464h-40c-29 156 -54 198 -161 201l-287 4v-659l263 10c297 12 374 56 427 324h43l-17 -388h-1084v47c134 16 152 37 152 125v1100c0 89 -18 109 -152 125v47h1037z" />
    <glyph glyph-name="F" unicode="F" horiz-adv-x="1122" 
d="M1062 1444l13 -347h-43c-51 223 -134 274 -391 285l-213 8v-630l249 4c105 3 127 40 159 200h41v-464h-41c-27 158 -52 198 -159 201l-249 4v-519c0 -97 19 -123 165 -139v-47h-533v47c134 16 152 37 152 125v1100c0 89 -18 109 -152 125v47h1002z" />
    <glyph glyph-name="G" unicode="G" horiz-adv-x="1528" 
d="M99 730c0 471 329 738 740 738c235 0 391 -49 470 -106l13 -320h-43c-55 238 -198 358 -428 358c-321 0 -511 -258 -511 -648s193 -708 518 -708c126 0 230 30 293 80v390c0 93 -17 110 -163 123v47h515v-47c-134 -13 -152 -30 -152 -123v-393
c-112 -86 -310 -145 -507 -145c-417 0 -745 290 -745 754z" />
    <glyph glyph-name="H" unicode="H" horiz-adv-x="1584" 
d="M428 167c0 -86 20 -104 145 -120v-47h-513v47c134 16 152 37 152 125v1100c0 89 -18 109 -152 125v47h513v-48c-125 -16 -145 -34 -145 -119v-508h728v508c0 86 -18 104 -145 120v47h513v-47c-131 -16 -152 -36 -152 -125v-1100c0 -88 21 -109 152 -125v-47h-513v47
c127 16 145 34 145 120v543h-728v-543z" />
    <glyph glyph-name="I" unicode="&#xa7ae;" horiz-adv-x="640" 
d="M428 172c0 -88 19 -109 152 -125v-47h-520v47c134 16 152 37 152 125v1100c0 89 -18 109 -152 125v47h520v-47c-133 -16 -152 -36 -152 -125v-1100z" />
    <glyph glyph-name="I" unicode="&#x2160;" horiz-adv-x="640" 
d="M428 172c0 -88 19 -109 152 -125v-47h-520v47c134 16 152 37 152 125v1100c0 89 -18 109 -152 125v47h520v-47c-133 -16 -152 -36 -152 -125v-1100z" />
    <glyph glyph-name="I" unicode="I" horiz-adv-x="640" 
d="M428 172c0 -88 19 -109 152 -125v-47h-520v47c134 16 152 37 152 125v1100c0 89 -18 109 -152 125v47h520v-47c-133 -16 -152 -36 -152 -125v-1100z" />
    <glyph glyph-name="J" unicode="J" horiz-adv-x="640" 
d="M428 248c0 -343 -173 -492 -479 -650l-24 41c214 142 287 303 287 635v998c0 89 -18 109 -152 125v47h520v-47c-133 -16 -152 -36 -152 -125v-1024z" />
    <glyph glyph-name="K" unicode="&#x212a;" horiz-adv-x="1341" 
d="M428 167c0 -86 20 -104 145 -120v-47h-513v47c134 16 152 37 152 125v1100c0 89 -18 109 -152 125v47h513v-48c-125 -16 -145 -34 -145 -119v-498l155 1l339 406c125 151 121 198 -28 211v47h432v-47c-106 -22 -183 -79 -339 -247c-87 -92 -175 -190 -252 -279l350 -549
c130 -202 185 -257 260 -279v-43h-303l-459 723l-155 1v-557z" />
    <glyph glyph-name="K" unicode="K" horiz-adv-x="1341" 
d="M428 167c0 -86 20 -104 145 -120v-47h-513v47c134 16 152 37 152 125v1100c0 89 -18 109 -152 125v47h513v-48c-125 -16 -145 -34 -145 -119v-498l155 1l339 406c125 151 121 198 -28 211v47h432v-47c-106 -22 -183 -79 -339 -247c-87 -92 -175 -190 -252 -279l350 -549
c130 -202 185 -257 260 -279v-43h-303l-459 723l-155 1v-557z" />
    <glyph glyph-name="L" unicode="&#x216c;" horiz-adv-x="1133" 
d="M1070 0h-1010v47c134 16 152 37 152 125v1100c0 89 -18 109 -152 125v47h533v-47c-146 -16 -165 -41 -165 -138v-1205l201 8c265 10 353 61 416 345h43z" />
    <glyph glyph-name="L" unicode="L" horiz-adv-x="1133" 
d="M1070 0h-1010v47c134 16 152 37 152 125v1100c0 89 -18 109 -152 125v47h533v-47c-146 -16 -165 -41 -165 -138v-1205l201 8c265 10 353 61 416 345h43z" />
    <glyph glyph-name="M" unicode="&#x216f;" horiz-adv-x="1803" 
d="M444 1444l471 -1217l429 1217h378v-47c-127 -16 -149 -37 -147 -125l34 -1100c3 -91 20 -110 151 -125v-47h-511v47c127 14 147 33 145 123l-33 1103l-370 -974l-112 -299h-88l-506 1286l-10 -1046c-2 -144 14 -176 151 -193v-47h-399v47c135 17 154 49 160 191l35 1003
c4 107 -23 138 -142 156v47h364z" />
    <glyph glyph-name="M" unicode="M" horiz-adv-x="1803" 
d="M444 1444l471 -1217l429 1217h378v-47c-127 -16 -149 -37 -147 -125l34 -1100c3 -91 20 -110 151 -125v-47h-511v47c127 14 147 33 145 123l-33 1103l-370 -974l-112 -299h-88l-506 1286l-10 -1046c-2 -144 14 -176 151 -193v-47h-399v47c135 17 154 49 160 191l35 1003
c4 107 -23 138 -142 156v47h364z" />
    <glyph glyph-name="N" unicode="N" horiz-adv-x="1486" 
d="M404 1444l830 -1201l-20 956c-2 151 -20 183 -160 198v47h405v-47c-136 -18 -153 -51 -155 -198l-8 -1199h-160l-886 1280l19 -1034c2 -152 21 -184 160 -199v-47h-405v47c136 18 154 51 155 198l8 996c0 107 -25 136 -144 156v47h361z" />
    <glyph glyph-name="O" unicode="O" horiz-adv-x="1640" 
d="M99 722c0 413 284 746 721 746c366 0 722 -282 722 -745c0 -413 -285 -747 -722 -747c-366 0 -721 283 -721 746zM340 739c0 -387 189 -695 492 -695c333 0 468 292 468 662c0 387 -188 694 -491 694c-333 0 -469 -291 -469 -661z" />
    <glyph glyph-name="P" unicode="P" horiz-adv-x="1261" 
d="M1177 1026c0 -298 -264 -445 -604 -445h-145v-395c0 -97 19 -123 165 -139v-47h-533v47c134 16 152 37 152 125v1100c0 89 -18 109 -152 125v47h513c379 0 604 -144 604 -418zM945 1013c0 218 -134 362 -423 373l-94 4v-754l94 3c289 11 423 150 423 374z" />
    <glyph glyph-name="Q" unicode="Q" horiz-adv-x="1640" 
d="M99 722c0 413 284 746 721 746c366 0 722 -282 722 -745c0 -344 -198 -633 -516 -720l125 -97c162 -126 274 -165 395 -149v-43c-61 -41 -143 -70 -229 -70c-117 0 -203 40 -377 188l-174 146c-346 27 -667 304 -667 744zM340 739c0 -387 189 -695 492 -695
c332 0 467 292 468 662c1 387 -189 694 -492 694c-332 0 -468 -291 -468 -661z" />
    <glyph glyph-name="R" unicode="R" horiz-adv-x="1316" 
d="M1161 1057c0 -177 -124 -305 -297 -348l204 -388c122 -225 169 -261 229 -278v-43h-284l-350 659h-235v-492c0 -84 20 -102 145 -120v-47h-513v47c134 19 152 38 152 125v1100c0 91 -18 110 -152 125v47h529c377 0 572 -148 572 -387zM940 1041c0 198 -116 336 -400 345
l-112 4v-677l141 5c235 6 371 114 371 323z" />
    <glyph glyph-name="S" unicode="S" horiz-adv-x="1151" 
d="M557 -24c-202 0 -360 53 -446 115l-14 319h43c56 -248 222 -366 422 -366c184 0 308 108 308 272c0 149 -93 240 -292 313l-101 36c-237 85 -364 217 -364 415c0 245 205 388 488 388c174 0 308 -46 376 -99l13 -306h-43c-50 225 -174 337 -352 337
c-192 0 -296 -100 -296 -247c0 -150 105 -230 292 -298l99 -36c245 -90 365 -222 365 -425c0 -251 -225 -418 -498 -418z" />
    <glyph glyph-name="T" unicode="T" horiz-adv-x="1311" 
d="M1251 1444l14 -347h-43c-44 229 -125 277 -399 290l-60 3v-1204c0 -97 20 -123 166 -139v-47h-546v47c145 16 164 42 164 139v1204l-59 -3c-273 -13 -354 -60 -399 -290h-43l14 347h1191z" />
    <glyph glyph-name="U" unicode="U" horiz-adv-x="1493" 
d="M177 1277c0 86 -20 104 -145 120v47h513v-47c-134 -16 -152 -36 -152 -125v-712c0 -333 180 -488 424 -488c257 0 424 177 420 487l-7 641c-2 148 -20 180 -161 197v47h400v-48c-130 -15 -149 -49 -152 -195l-7 -654c-4 -347 -206 -571 -565 -571
c-291 0 -568 168 -568 576v725z" />
    <glyph glyph-name="V" unicode="&#x2164;" horiz-adv-x="1373" 
d="M187 1197c-56 152 -89 185 -198 200v47h538v-47c-139 -17 -162 -56 -112 -200l345 -980l325 950c58 171 42 210 -108 230v47h407v-47c-114 -15 -144 -48 -213 -235l-427 -1162h-124z" />
    <glyph glyph-name="V" unicode="V" horiz-adv-x="1373" 
d="M187 1197c-56 152 -89 185 -198 200v47h538v-47c-139 -17 -162 -56 -112 -200l345 -980l325 950c58 171 42 210 -108 230v47h407v-47c-114 -15 -144 -48 -213 -235l-427 -1162h-124z" />
    <glyph glyph-name="W" unicode="W" horiz-adv-x="2121" 
d="M185 1197c-51 159 -92 187 -196 200v47h534v-47c-140 -17 -155 -55 -112 -200l293 -969l276 957c48 164 32 191 -113 212v47h511v-47c-136 -17 -147 -45 -101 -201l284 -969l275 940c50 172 40 210 -110 230v47h406v-47c-114 -15 -147 -48 -208 -235l-376 -1162h-124
l-360 1181l-372 -1181h-123z" />
    <glyph glyph-name="X" unicode="&#x2169;" horiz-adv-x="1352" 
d="M283 286l288 417l-343 526c-76 117 -113 147 -211 168v47h535v-47c-147 -20 -151 -54 -76 -170l271 -416l233 368c101 159 97 198 -56 218v47h414v-47c-110 -14 -152 -48 -277 -229l-282 -407l356 -546c76 -118 119 -147 217 -168v-47h-541v47c143 21 148 63 76 170
l-283 434l-244 -381c-101 -164 -99 -203 54 -223v-47h-413v47c110 14 152 48 282 239z" />
    <glyph glyph-name="X" unicode="X" horiz-adv-x="1352" 
d="M283 286l288 417l-343 526c-76 117 -113 147 -211 168v47h535v-47c-147 -20 -151 -54 -76 -170l271 -416l233 368c101 159 97 198 -56 218v47h414v-47c-110 -14 -152 -48 -277 -229l-282 -407l356 -546c76 -118 119 -147 217 -168v-47h-541v47c143 21 148 63 76 170
l-283 434l-244 -381c-101 -164 -99 -203 54 -223v-47h-413v47c110 14 152 48 282 239z" />
    <glyph glyph-name="Y" unicode="Y" horiz-adv-x="1324" 
d="M227 1196c-99 160 -134 187 -234 201v47h536v-47c-136 -18 -152 -59 -68 -201l281 -470l252 443c94 168 87 210 -61 228v47h398v-47c-103 -16 -141 -50 -257 -237l-303 -486v-488c0 -97 19 -123 164 -139v-47h-545v47c145 16 165 42 165 139v476z" />
    <glyph glyph-name="Z" unicode="Z" horiz-adv-x="1245" 
d="M1152 0h-1074v43l827 1347l-325 -10c-328 -11 -393 -62 -442 -283h-43l17 347h1037v-43l-828 -1347l333 12c323 12 415 52 472 322h43z" />
    <glyph glyph-name="bracketleft" unicode="[" horiz-adv-x="651" 
d="M181 -283v1867l390 -4v-48l-220 -5v-1754l220 -5v-48z" />
    <glyph glyph-name="backslash" unicode="\" horiz-adv-x="651" 
d="M525 -280l-498 1860h99l498 -1860h-99z" />
    <glyph glyph-name="bracketright" unicode="]" horiz-adv-x="651" 
d="M470 1584v-1867l-390 3v48l219 5v1754l-219 5v48z" />
    <glyph glyph-name="asciicircum" unicode="^" horiz-adv-x="1135" 
d="M548 1444h39l422 -575l-61 -54l-381 520l-382 -520l-58 54z" />
    <glyph glyph-name="underscore" unicode="_" horiz-adv-x="1024" 
d="M31 -323v87h962v-87h-962z" />
    <glyph glyph-name="grave" unicode="`" horiz-adv-x="1024" 
d="M560 1111l-320 347v9h219l160 -356h-59z" />
    <glyph glyph-name="a" unicode="a" horiz-adv-x="1043" 
d="M372 -19c-163 0 -286 99 -286 244c0 153 111 244 382 303l213 47v97c0 187 -98 253 -246 253c-73 0 -140 -17 -188 -50c47 -7 85 -50 85 -103c0 -58 -47 -103 -107 -103c-59 0 -108 45 -108 106c0 128 171 221 389 221c222 0 368 -93 368 -302v-506
c0 -89 47 -124 107 -124c19 0 36 3 48 8v-43c-31 -22 -87 -43 -155 -43c-98 0 -169 50 -188 142c-50 -82 -169 -147 -314 -147zM286 260c0 -117 82 -185 190 -185c90 0 162 36 205 101v342l-120 -27c-207 -45 -275 -115 -275 -231z" />
    <glyph glyph-name="b" unicode="b" horiz-adv-x="1175" 
d="M1084 498c0 -310 -210 -517 -473 -517c-131 0 -235 60 -282 139l-104 -120h-68v1303c0 53 -7 65 -63 82l-65 18v41l326 38v-663c53 107 182 177 323 177c215 0 406 -181 406 -498zM878 476c0 257 -121 418 -296 418c-105 0 -183 -43 -227 -121v-608
c34 -61 114 -112 213 -112c184 0 310 166 310 423z" />
    <glyph glyph-name="c" unicode="c" horiz-adv-x="987" 
d="M568 -19c-272 0 -476 202 -476 506c0 300 219 509 500 509c219 0 327 -106 327 -224c0 -64 -48 -111 -108 -111s-107 47 -107 107c0 59 45 106 100 106c-41 34 -101 52 -175 52c-198 0 -330 -158 -330 -398c0 -276 160 -444 374 -444c108 0 198 40 256 98v-48
c-65 -89 -196 -153 -361 -153z" />
    <glyph glyph-name="d" unicode="d" horiz-adv-x="1193" 
d="M92 480c0 309 208 516 469 516c117 0 209 -47 259 -116v423c0 53 -7 65 -63 82l-66 18v41l326 38v-1312c0 -54 8 -66 65 -83l64 -17v-41l-323 -39v171c-54 -108 -183 -180 -326 -180c-214 0 -405 182 -405 499zM297 501c0 -256 121 -418 296 -418c105 0 183 44 227 122
v608c-32 63 -116 112 -215 112c-183 0 -308 -166 -308 -424z" />
    <glyph glyph-name="e" unicode="e" horiz-adv-x="1042" 
d="M92 487c0 296 182 509 460 509c257 0 404 -164 404 -408c0 -21 -2 -43 -4 -58h-660c8 -266 159 -447 386 -447c110 0 200 40 258 99v-47c-65 -90 -196 -154 -362 -154c-277 0 -482 198 -482 506zM551 932c-151 0 -250 -120 -259 -347l473 2c1 10 1 20 1 32
c0 186 -73 313 -215 313z" />
    <glyph glyph-name="f" unicode="f" horiz-adv-x="655" 
d="M380 153c0 -76 15 -91 142 -106v-47h-468v47c114 14 129 30 129 94v759h-129v32l129 45v172c0 223 119 340 297 340c134 0 204 -72 204 -157c0 -52 -40 -92 -91 -92c-52 0 -91 41 -91 92c0 41 24 73 58 85c-13 5 -29 8 -46 8c-86 0 -134 -65 -134 -209v-247l267 9v-78
l-267 8v-755z" />
    <glyph glyph-name="g" unicode="g" horiz-adv-x="1072" 
d="M102 661c0 203 188 335 415 335c76 0 144 -14 197 -36l338 19v-78l-270 13c90 -44 145 -135 145 -245c0 -206 -194 -333 -407 -333c-35 0 -70 4 -116 12c-86 -21 -129 -62 -129 -118c0 -66 59 -100 170 -100h195c236 0 368 -94 368 -268c0 -211 -220 -352 -486 -352
c-280 0 -461 100 -461 252c0 108 100 190 296 217c-137 2 -238 68 -238 174c0 104 91 176 237 209c-147 36 -254 140 -254 299zM300 670c0 -168 89 -275 220 -275c126 0 211 105 211 266c0 164 -81 277 -220 277c-131 0 -211 -107 -211 -268zM232 -217
c0 -120 107 -208 294 -208c191 0 321 87 321 221c0 106 -70 169 -235 169h-207c-116 -18 -173 -87 -173 -182z" />
    <glyph glyph-name="h" unicode="h" horiz-adv-x="1205" 
d="M380 1482v-654c57 99 173 168 320 168c198 0 335 -104 335 -308v-544c0 -66 15 -82 129 -97v-47h-447v47c107 13 121 29 121 92v504c0 167 -86 251 -229 251c-109 0 -188 -48 -229 -117v-638c0 -63 13 -78 121 -92v-47h-447v47c112 15 129 31 129 97v1159
c0 53 -8 65 -64 82l-65 18v41z" />
    <glyph glyph-name="i" unicode="i" horiz-adv-x="554" 
d="M262 1175c-67 0 -121 52 -121 117c0 66 54 117 121 117s121 -51 121 -117c0 -65 -54 -117 -121 -117zM380 988v-844c0 -66 17 -82 129 -97v-47h-455v47c112 15 129 31 129 97v666c0 53 -8 65 -64 81l-65 19v41z" />
    <glyph glyph-name="j" unicode="j" horiz-adv-x="532" 
d="M252 1175c-67 0 -121 52 -121 117c0 66 54 117 121 117s121 -51 121 -117c0 -65 -54 -117 -121 -117zM370 988v-832c0 -299 -71 -419 -310 -592l-56 -41l-30 40c161 137 199 286 199 576v671c0 53 -8 65 -63 81l-66 19v41z" />
    <glyph glyph-name="k" unicode="k" horiz-adv-x="1082" 
d="M817 0l-309 506l-128 1v-368c0 -63 13 -78 121 -92v-47h-447v47c112 15 129 31 129 97v1159c0 53 -8 65 -64 82l-65 18v41l326 38v-918l127 2l205 226c83 91 72 121 -46 139v47h385v-47c-101 -20 -146 -45 -299 -187l-111 -104l257 -419c77 -125 125 -164 192 -178v-43
h-273z" />
    <glyph glyph-name="l" unicode="l" horiz-adv-x="555" 
d="M380 1482v-1338c0 -66 17 -82 129 -97v-47h-455v47c112 15 129 31 129 97v1159c0 53 -8 65 -64 82l-65 18v41z" />
    <glyph glyph-name="m" unicode="m" horiz-adv-x="1821" 
d="M377 988v-162c63 105 175 170 320 170s254 -59 298 -177c63 113 184 177 327 177c194 0 329 -105 329 -312v-540c0 -66 17 -82 129 -97v-47h-447v47c108 14 121 29 121 92v502c0 168 -80 253 -222 253c-100 0 -177 -37 -227 -110c7 -28 11 -59 11 -92v-553
c0 -63 13 -78 121 -92v-47h-439v47c108 14 121 29 121 92v502c0 168 -78 253 -218 253c-99 0 -172 -40 -221 -115v-640c0 -63 13 -79 121 -92v-47h-447v47c112 15 129 31 129 97v666c0 53 -8 65 -64 81l-65 19v41z" />
    <glyph glyph-name="n" unicode="n" horiz-adv-x="1205" 
d="M377 988v-164c56 100 174 172 323 172c198 0 335 -104 335 -308v-544c0 -66 15 -82 129 -97v-47h-447v47c107 13 121 29 121 92v504c0 167 -86 251 -229 251c-109 0 -188 -48 -229 -117v-638c0 -63 13 -78 121 -92v-47h-447v47c112 15 129 31 129 97v666
c0 53 -8 65 -64 81l-65 19v41z" />
    <glyph glyph-name="o" unicode="o" horiz-adv-x="1182" 
d="M586 -19c-277 0 -494 202 -494 505c0 301 220 510 504 510c278 0 495 -202 495 -504c0 -301 -222 -511 -505 -511zM596 46c175 0 279 169 279 432c0 273 -119 454 -289 454c-175 0 -279 -169 -279 -432c0 -273 118 -454 289 -454z" />
    <glyph glyph-name="p" unicode="p" horiz-adv-x="1188" 
d="M1097 498c0 -309 -209 -517 -470 -517c-117 0 -210 48 -259 117v-405c0 -76 14 -91 141 -106v-47h-467v47c114 14 129 30 129 94v1129c0 53 -8 65 -64 81l-65 19v41l323 37v-173c54 109 182 181 326 181c215 0 406 -182 406 -498zM891 476c0 256 -121 418 -296 418
c-105 0 -183 -43 -227 -121v-608c32 -63 116 -112 215 -112c183 0 308 167 308 423z" />
    <glyph glyph-name="q" unicode="q" horiz-adv-x="1175" 
d="M92 480c0 310 209 517 471 517c133 0 234 -60 282 -138l104 119h68v-1297c0 -64 15 -80 129 -94v-47h-467v47c127 15 141 30 141 106l3 470c-54 -109 -183 -181 -326 -181c-214 0 -405 181 -405 498zM297 502c0 -256 121 -418 296 -418c105 0 183 43 227 121v608
c-33 61 -114 112 -212 112c-186 0 -311 -166 -311 -423z" />
    <glyph glyph-name="r" unicode="r" horiz-adv-x="805" 
d="M377 988v-210c118 143 202 214 287 214c74 0 103 -47 103 -101c0 -28 -9 -56 -19 -70c-20 6 -59 10 -99 10c-104 0 -218 -36 -269 -92v-586c0 -76 15 -91 141 -106v-47h-467v47c114 14 129 30 129 94v669c0 53 -8 65 -64 81l-65 19v41z" />
    <glyph glyph-name="s" unicode="s" horiz-adv-x="911" 
d="M101 717c0 178 157 279 371 279c144 0 251 -31 301 -65l6 -247h-44c-29 162 -132 248 -262 248c-126 0 -204 -63 -204 -157s72 -138 197 -177l77 -23c176 -53 279 -145 279 -304c0 -180 -181 -288 -377 -288c-148 0 -276 36 -343 83l-10 262h43
c38 -185 171 -280 309 -280c128 0 210 71 210 168c0 94 -57 146 -192 187l-77 24c-177 55 -284 140 -284 290z" />
    <glyph glyph-name="t" unicode="t" horiz-adv-x="678" 
d="M170 269v631h-128v32l303 238h22v-202l280 10v-78l-280 8v-625c0 -153 71 -203 166 -203c50 0 98 16 129 43v-47c-37 -50 -125 -95 -232 -95c-145 0 -260 81 -260 288z" />
    <glyph glyph-name="u" unicode="u" horiz-adv-x="1177" 
d="M358 988v-649c0 -170 82 -256 228 -256c103 0 179 49 220 117v610c0 53 -7 65 -63 81l-66 19v41l326 37v-818c0 -54 8 -66 64 -83l65 -17v-41l-324 -39v164c-56 -101 -170 -173 -318 -173c-194 0 -330 105 -330 313v516c0 53 -8 65 -63 81l-65 19v41z" />
    <glyph glyph-name="v" unicode="v" horiz-adv-x="1023" 
d="M163 772c-47 118 -73 141 -162 159v47h477v-47c-125 -16 -146 -41 -100 -167l202 -553l198 548c47 130 25 156 -100 172v47h344v-47c-89 -15 -112 -38 -171 -184l-296 -747h-87z" />
    <glyph glyph-name="w" unicode="w" horiz-adv-x="1592" 
d="M165 772c-41 120 -75 140 -164 159v47h457v-47c-112 -15 -126 -41 -87 -167l171 -537l184 537c43 124 25 154 -79 167v47h427v-47c-103 -13 -120 -43 -80 -167l176 -538l179 533c43 130 24 158 -87 172v47h329v-47c-88 -15 -115 -36 -170 -183l-273 -748h-86l-264 756
l-277 -756h-86z" />
    <glyph glyph-name="x" unicode="x" horiz-adv-x="1025" 
d="M170 811c-59 82 -91 106 -162 120v47h461v-47c-128 -10 -141 -38 -76 -130l172 -235l168 237c64 93 48 114 -74 128v47h351v-47c-97 -20 -125 -46 -207 -154l-202 -261l252 -345c61 -85 96 -109 170 -124v-47h-466v47c127 10 142 36 72 134l-175 240l-164 -237
c-69 -101 -45 -124 69 -137v-47h-356v47c102 21 133 49 218 161l197 263z" />
    <glyph glyph-name="y" unicode="y" horiz-adv-x="1020" 
d="M163 772c-48 119 -75 141 -162 159v47h474v-47c-125 -16 -145 -41 -98 -166l198 -530l197 525c48 129 27 155 -98 171v47h346v-47c-90 -15 -115 -37 -175 -184l-223 -549l-83 -202l-160 -456h-169v3c80 107 192 304 268 461z" />
    <glyph glyph-name="z" unicode="z" horiz-adv-x="903" 
d="M78 978h759v-43l-555 -882l255 9c165 7 226 45 264 247h43l-8 -309h-777v42l551 882l-214 -7c-188 -10 -243 -48 -284 -222h-43z" />
    <glyph glyph-name="braceleft" unicode="{" horiz-adv-x="651" 
d="M391 970c0 -193 -81 -294 -269 -318c186 -24 269 -125 269 -317v-289c0 -166 35 -279 203 -279v-47h-42c-211 0 -325 125 -325 344v345c0 156 -90 224 -200 224v39c110 0 200 68 200 222v343c0 219 114 343 325 343h42v-47c-168 0 -203 -113 -203 -278v-285z" />
    <glyph glyph-name="bar" unicode="|" horiz-adv-x="651" 
d="M276 -280v1860h99v-1860h-99z" />
    <glyph glyph-name="braceright" unicode="}" horiz-adv-x="651" 
d="M259 970v285c0 165 -34 278 -202 278v47h41c212 0 326 -124 326 -343v-343c0 -154 90 -222 199 -222v-39c-109 0 -199 -68 -199 -224v-345c0 -219 -114 -344 -326 -344h-41v47c168 0 202 113 202 279v288c0 193 84 294 269 318c-187 24 -269 125 -269 318z" />
    <glyph glyph-name="asciitilde" unicode="&#x223c;" horiz-adv-x="1135" 
d="M830 498c96 0 164 69 166 241h77c0 -224 -101 -326 -248 -326c-183 0 -345 242 -499 242c-95 0 -163 -69 -166 -242h-76c0 225 101 326 248 326c183 0 345 -241 498 -241z" />
    <glyph glyph-name="asciitilde" unicode="~" horiz-adv-x="1135" 
d="M830 498c96 0 164 69 166 241h77c0 -224 -101 -326 -248 -326c-183 0 -345 242 -499 242c-95 0 -163 -69 -166 -242h-76c0 225 101 326 248 326c183 0 345 -241 498 -241z" />
    <glyph glyph-name="exclamdown" unicode="&#xa1;" horiz-adv-x="593" 
d="M297 958c68 0 126 -57 126 -127c0 -71 -58 -128 -126 -128c-69 0 -126 57 -126 128c0 70 57 127 126 127zM297 -516c-70 0 -112 55 -112 141c0 93 16 221 39 411l53 468h40l52 -469c23 -189 40 -317 40 -410c0 -86 -43 -141 -112 -141z" />
    <glyph glyph-name="cent" unicode="&#xa2;" horiz-adv-x="995" 
d="M599 0h-48v214c-263 8 -459 207 -459 503c-1 285 195 489 459 511v216h48v-214h1c207 0 332 -92 332 -217c0 -62 -48 -110 -107 -110c-61 0 -107 48 -107 108c0 54 38 97 87 103c-43 30 -101 47 -170 47c-12 0 -24 -1 -36 -2v-835c24 -5 48 -7 74 -7c111 0 204 39 263 98
l1 -47c-62 -85 -183 -146 -338 -154v-214zM298 759c0 -220 102 -371 253 -422v814c-154 -38 -253 -185 -253 -392z" />
    <glyph glyph-name="sterling" unicode="&#xa3;" horiz-adv-x="1136" 
d="M119 739h202c-48 101 -101 208 -101 333c0 270 220 394 445 394c201 0 348 -97 348 -238c0 -61 -48 -108 -106 -108c-60 0 -106 45 -106 105c0 59 45 102 94 102c-45 42 -116 69 -203 69c-157 0 -268 -90 -268 -276c0 -132 64 -255 109 -381h324v-48h-308
c15 -50 25 -102 25 -154c0 -170 -122 -301 -285 -368h734l-2 -169h-882v126c155 71 264 198 264 351c0 73 -26 143 -59 214h-225v48z" />
    <glyph glyph-name="currency" unicode="&#xa4;" horiz-adv-x="1136" 
d="M567 187c-90 0 -173 30 -238 81l-141 -146l-61 61l140 144c-55 67 -87 153 -87 247c0 96 33 182 88 249l-141 146l61 60l141 -146c66 51 148 81 238 81c91 0 174 -31 239 -82l142 147l61 -60l-141 -146c55 -67 87 -154 87 -249c0 -94 -32 -179 -87 -246l141 -145l-61 -61
l-141 146c-66 -51 -149 -81 -240 -81zM567 266c167 0 301 133 301 308c0 178 -134 309 -301 309c-166 0 -301 -131 -301 -309c0 -175 135 -308 301 -308z" />
    <glyph glyph-name="yen" unicode="&#xa5;" horiz-adv-x="1136" 
d="M117 495h351v233h-351v48h331l-240 420c-93 163 -133 187 -233 201v47h518v-47c-135 -18 -146 -55 -67 -199l212 -391l198 370c90 168 76 204 -66 220v47h389v-47c-107 -16 -146 -44 -253 -228l-229 -393h339v-48h-352v-233h352v-48h-352v-261c0 -97 20 -123 165 -139
v-47h-526v47c145 16 165 42 165 139v261h-351v48z" />
    <glyph glyph-name="brokenbar" unicode="&#xa6;" horiz-adv-x="651" 
d="M276 789v791h99v-791h-99zM276 -280v791h99v-791h-99z" />
    <glyph glyph-name="section" unicode="&#xa7;" horiz-adv-x="1005" 
d="M103 606c0 155 136 267 304 267c14 0 27 -1 41 -3c-164 84 -267 169 -267 321c0 173 155 277 347 277c130 0 228 -32 275 -66l6 -232h-43c-32 157 -117 233 -238 233c-120 0 -191 -60 -191 -163c-1 -111 82 -168 214 -232l85 -42c186 -90 275 -184 275 -336
c0 -159 -143 -264 -310 -264c-9 0 -20 0 -31 2c157 -83 251 -182 251 -327c0 -185 -173 -290 -350 -290c-129 0 -233 35 -308 85l-10 246h43c40 -174 138 -265 274 -265c128 0 196 74 196 182c0 105 -63 164 -204 233l-84 41c-179 87 -275 171 -275 333zM757 582
c0 85 -51 157 -160 214c-65 34 -105 44 -153 44c-105 0 -186 -76 -186 -184c0 -85 51 -156 160 -213c66 -35 105 -45 153 -45c104 0 186 76 186 184z" />
    <glyph glyph-name="dieresis" unicode="&#xa8;" horiz-adv-x="1024" 
d="M302 1187c-60 0 -108 46 -108 105s48 105 108 105s108 -46 108 -105s-48 -105 -108 -105zM722 1187c-60 0 -108 46 -108 105s48 105 108 105s108 -46 108 -105s-48 -105 -108 -105z" />
    <glyph glyph-name="copyright" unicode="&#xa9;" horiz-adv-x="1691" 
d="M845 -24c-410 0 -746 337 -746 747s336 747 746 747c411 0 747 -337 747 -747s-336 -747 -747 -747zM845 24c379 0 692 315 692 699s-312 699 -692 699c-379 0 -691 -315 -691 -699s312 -699 691 -699zM511 725c0 230 165 361 374 361c109 0 186 -20 226 -48l6 -176h-27
c-27 115 -92 181 -196 181c-143 0 -226 -123 -226 -309c0 -180 84 -331 227 -331c99 0 169 59 197 186h27l-6 -176c-38 -29 -128 -53 -227 -53c-211 0 -375 139 -375 365z" />
    <glyph glyph-name="a.sups" unicode="&#xaa;" horiz-adv-x="648" 
d="M224 862c-93 0 -159 52 -159 128c0 78 61 130 217 163l116 24v45c0 91 -50 127 -131 127c-29 0 -57 -6 -80 -15c23 -10 39 -33 39 -61c0 -39 -30 -68 -70 -68s-71 28 -71 67c0 72 96 127 232 127c138 0 223 -54 223 -174v-242c0 -43 26 -62 57 -62c9 0 18 1 25 4v-33
c-21 -15 -57 -27 -99 -27c-60 0 -109 28 -120 80c-26 -48 -94 -83 -179 -83zM209 1015c0 -55 39 -85 91 -85c44 0 79 16 98 44v163l-55 -11c-99 -21 -134 -55 -134 -111z" />
    <glyph glyph-name="guillemetleft" unicode="&#xab;" horiz-adv-x="980" 
d="M50 494v20l412 391h71l-291 -396l291 -405h-71zM436 494v20l413 391h71l-292 -396l292 -405h-71z" />
    <glyph glyph-name="logicalnot" unicode="&#xac;" horiz-adv-x="1136" 
d="M114 527v85h908v-497h-85v412h-823z" />
    <glyph glyph-name="registered" unicode="&#xae;" horiz-adv-x="1691" 
d="M845 -24c-410 0 -746 337 -746 747s336 747 746 747c411 0 747 -337 747 -747s-336 -747 -747 -747zM845 24c379 0 692 315 692 699s-312 699 -692 699c-379 0 -691 -315 -691 -699s312 -699 691 -699zM1124 887c0 -86 -60 -145 -141 -164l97 -193
c54 -101 75 -119 104 -128v-30h-170l-159 317h-98v-226c0 -40 10 -50 68 -60v-31h-281v31c62 10 72 20 72 63v515c0 43 -10 53 -72 62v31h292c192 0 287 -73 288 -187zM982 878c0 90 -54 154 -177 158l-48 1v-312l58 2c103 4 167 55 167 151z" />
    <glyph glyph-name="macron" unicode="&#xaf;" horiz-adv-x="1024" 
d="M241 1219v123h542v-123h-542z" />
    <glyph glyph-name="degree" unicode="&#xb0;" horiz-adv-x="720" 
d="M361 861c-151 0 -274 116 -274 267s123 268 274 268c150 0 273 -117 273 -268s-123 -267 -273 -267zM361 928c105 0 193 85 193 200c0 116 -88 201 -193 201c-107 0 -195 -85 -195 -201c0 -115 88 -200 195 -200z" />
    <glyph glyph-name="plusminus" unicode="&#xb1;" horiz-adv-x="1136" 
d="M525 284v327h-411v86h411v327h86v-327h411v-86h-411v-327h-86zM114 115v86h908v-86h-908z" />
    <glyph glyph-name="two.sups" unicode="&#xb2;" horiz-adv-x="635" 
d="M550 889h-484v105l122 114c148 142 198 214 198 305c0 82 -55 134 -142 134c-85 0 -145 -36 -175 -90v37c27 90 113 152 245 152c130 0 222 -78 222 -195c0 -114 -75 -198 -276 -345l-128 -94h418v-123z" />
    <glyph glyph-name="three.sups" unicode="&#xb3;" horiz-adv-x="675" 
d="M301 876c-143 0 -234 73 -234 158c0 40 31 71 70 71s68 -29 68 -67c0 -36 -25 -63 -58 -66c28 -25 72 -39 120 -39c96 0 164 58 164 156c0 107 -88 173 -238 173v36c157 18 223 72 223 143c0 66 -52 107 -138 107c-81 0 -147 -33 -183 -86v35c30 87 119 150 249 150
s215 -66 215 -171c0 -87 -70 -147 -169 -164c115 -17 191 -98 191 -207c0 -149 -131 -229 -280 -229z" />
    <glyph glyph-name="acute" unicode="&#xb4;" horiz-adv-x="1024" 
d="M464 1111h-59l164 356h211v-9z" />
    <glyph glyph-name="mu.grek" unicode="&#x3bc;" horiz-adv-x="1154" 
d="M146 -460v624c0 296 -1 427 -2 814h201c-10 -205 -15 -414 -15 -602c0 -194 98 -286 237 -286c97 0 172 43 207 127l-8 761h203c-8 -373 -13 -557 -13 -711c0 -135 39 -182 120 -182c25 0 45 6 58 15v-46c-37 -38 -99 -67 -171 -67c-97 0 -168 59 -178 175
c-34 -101 -138 -180 -269 -181c-81 1 -151 26 -197 72c3 -179 12 -364 29 -513h-202z" />
    <glyph glyph-name="mu.grek" unicode="&#xb5;" horiz-adv-x="1154" 
d="M146 -460v624c0 296 -1 427 -2 814h201c-10 -205 -15 -414 -15 -602c0 -194 98 -286 237 -286c97 0 172 43 207 127l-8 761h203c-8 -373 -13 -557 -13 -711c0 -135 39 -182 120 -182c25 0 45 6 58 15v-46c-37 -38 -99 -67 -171 -67c-97 0 -168 59 -178 175
c-34 -101 -138 -180 -269 -181c-81 1 -151 26 -197 72c3 -179 12 -364 29 -513h-202z" />
    <glyph glyph-name="paragraph" unicode="&#xb6;" horiz-adv-x="1236" 
d="M609 -220v821h-67c-208 0 -458 149 -458 436c0 275 235 407 458 407h145v-1664h-78zM901 1444h258v-47c-157 -12 -180 -30 -180 -133v-1484h-78v1664z" />
    <glyph glyph-name="middledot" unicode="&#x2e31;" horiz-adv-x="493" 
d="M247 443c-69 0 -127 57 -127 127c0 71 58 126 127 126c70 0 127 -55 127 -126c0 -70 -57 -127 -127 -127z" />
    <glyph glyph-name="middledot" unicode="&#x2027;" horiz-adv-x="493" 
d="M247 443c-69 0 -127 57 -127 127c0 71 58 126 127 126c70 0 127 -55 127 -126c0 -70 -57 -127 -127 -127z" />
    <glyph glyph-name="middledot" unicode="&#xb7;" horiz-adv-x="493" 
d="M247 443c-69 0 -127 57 -127 127c0 71 58 126 127 126c70 0 127 -55 127 -126c0 -70 -57 -127 -127 -127z" />
    <glyph glyph-name="cedilla" unicode="&#xb8;" horiz-adv-x="1024" 
d="M487 -461c-84 0 -156 32 -192 80v46c29 -24 79 -41 129 -41c60 0 108 30 108 83c0 56 -51 86 -117 86c-20 0 -39 -3 -47 -7v42l140 196h44v-24l-85 -125c11 2 22 3 34 3c109 0 195 -64 195 -168c0 -110 -104 -171 -209 -171z" />
    <glyph glyph-name="one.sups" unicode="&#xb9;" horiz-adv-x="580" 
d="M367 1634v-630c0 -54 21 -69 115 -80v-35h-376v35c95 11 116 26 116 80v517l-123 -32v31c49 24 160 89 200 114h68z" />
    <glyph glyph-name="o.sups" unicode="&#xba;" horiz-adv-x="716" 
d="M356 862c-164 0 -287 105 -287 266c0 159 126 270 292 270c165 0 288 -105 288 -266c0 -159 -127 -270 -293 -270zM360 908c85 0 133 83 133 216c0 140 -56 228 -138 228c-84 0 -132 -83 -132 -217c0 -139 55 -227 137 -227z" />
    <glyph glyph-name="guillemetright" unicode="&#xbb;" horiz-adv-x="980" 
d="M544 515v-20l-412 -391h-72l292 396l-292 405h72zM930 515v-20l-411 -391h-72l292 396l-292 405h72z" />
    <glyph glyph-name="onequarter" unicode="&#xbc;" horiz-adv-x="1439" 
d="M367 1445v-630c0 -54 21 -69 115 -80v-35h-376v35c95 11 116 26 116 80v517l-123 -32v31c49 24 160 89 200 114h68zM279 0l853 1444h84l-854 -1444h-83zM1146 0v171h-351v72l372 502h111v-468h120v-106h-120v-171h-132zM1146 277v369l-256 -369h256z" />
    <glyph glyph-name="onehalf" unicode="&#xbd;" horiz-adv-x="1502" 
d="M367 1445v-630c0 -54 21 -69 115 -80v-35h-376v35c95 11 116 26 116 80v517l-123 -32v31c49 24 160 89 200 114h68zM279 0l853 1444h84l-854 -1444h-83zM1417 0h-484v104l122 115c148 141 199 213 199 305c0 82 -56 134 -143 134c-85 0 -145 -37 -175 -90v36
c27 91 113 153 246 153c129 0 221 -79 221 -195c0 -114 -74 -198 -276 -345l-128 -94h418v-123z" />
    <glyph glyph-name="threequarters" unicode="&#xbe;" horiz-adv-x="1486" 
d="M301 687c-143 0 -234 73 -234 158c0 40 31 70 70 70s68 -28 68 -67c0 -35 -25 -62 -58 -66c28 -24 72 -38 120 -38c96 0 164 58 164 156c0 107 -88 173 -238 173v36c157 18 223 71 223 143c0 66 -52 107 -138 107c-81 0 -147 -33 -183 -86v35c30 87 119 150 249 150
s215 -67 215 -171c0 -87 -70 -147 -169 -164c115 -17 191 -99 191 -207c0 -149 -131 -229 -280 -229zM326 0l853 1444h84l-854 -1444h-83zM1194 0v171h-351v72l372 502h111v-468h119v-106h-119v-171h-132zM1194 277v369l-257 -369h257z" />
    <glyph glyph-name="questiondown" unicode="&#xbf;" horiz-adv-x="718" 
d="M428 958c68 0 126 -57 126 -127s-58 -126 -126 -126c-70 0 -127 56 -127 126s57 127 127 127zM474 -520c-210 0 -382 175 -382 435c0 242 136 392 334 440l-9 142h44l51 -351c-224 -9 -348 -84 -346 -227c3 -179 197 -271 460 -271c4 -13 6 -28 6 -41
c0 -71 -55 -127 -158 -127z" />
    <glyph glyph-name="Agrave" unicode="&#xc0;" horiz-adv-x="1373" 
d="M744 1547l-301 265v7h219l139 -272h-57zM1186 247c56 -152 89 -185 198 -200v-47h-538v47c139 17 162 56 112 201l-93 264h-496l-81 -235c-58 -171 -43 -210 108 -230v-47h-407v47c115 15 145 48 213 235l427 1162h123zM390 574h453l-229 653z" />
    <glyph glyph-name="Aacute" unicode="&#xc1;" horiz-adv-x="1373" 
d="M649 1547l-58 1l145 271h210v-6zM1186 247c56 -152 89 -185 198 -200v-47h-538v47c139 17 162 56 112 201l-93 264h-496l-81 -235c-58 -171 -43 -210 108 -230v-47h-407v47c115 15 145 48 213 235l427 1162h123zM390 574h453l-229 653z" />
    <glyph glyph-name="Acircumflex" unicode="&#xc2;" horiz-adv-x="1373" 
d="M495 1547h-56l205 272h107l205 -272h-59l-200 147zM1186 247c56 -152 89 -185 198 -200v-47h-538v47c139 17 162 56 112 201l-93 264h-496l-81 -235c-58 -171 -43 -210 108 -230v-47h-407v47c115 15 145 48 213 235l427 1162h123zM390 574h453l-229 653z" />
    <glyph glyph-name="Atilde" unicode="&#xc3;" horiz-adv-x="1373" 
d="M796 1568c-52 0 -91 23 -138 57l-29 21c-32 23 -55 36 -83 36c-38 0 -62 -29 -66 -121h-53c-4 174 65 237 151 237c53 0 92 -23 140 -57l29 -21c31 -23 54 -35 82 -35c38 0 61 28 67 120h52c4 -174 -66 -237 -152 -237zM1186 247c56 -152 89 -185 198 -200v-47h-538v47
c139 17 162 56 112 201l-93 264h-496l-81 -235c-58 -171 -43 -210 108 -230v-47h-407v47c115 15 145 48 213 235l427 1162h123zM390 574h453l-229 653z" />
    <glyph glyph-name="Adieresis" unicode="&#xc4;" horiz-adv-x="1373" 
d="M529 1587c-53 0 -96 42 -96 95s43 95 96 95c54 0 96 -42 96 -95s-42 -95 -96 -95zM846 1587c-53 0 -96 42 -96 95s43 95 96 95c54 0 96 -42 96 -95s-42 -95 -96 -95zM1186 247c56 -152 89 -185 198 -200v-47h-538v47c139 17 162 56 112 201l-93 264h-496l-81 -235
c-58 -171 -43 -210 108 -230v-47h-407v47c115 15 145 48 213 235l427 1162h123zM390 574h453l-229 653z" />
    <glyph glyph-name="Aring" unicode="&#x212b;" horiz-adv-x="1373" 
d="M461 1732c0 103 104 171 226 171s227 -68 227 -171c0 -104 -105 -170 -227 -170c-121 0 -226 66 -226 170zM594 1732c0 -72 38 -121 93 -121s93 49 93 121c0 71 -38 121 -93 121s-93 -50 -93 -121zM1186 247c56 -152 89 -185 198 -200v-47h-538v47c139 17 162 56 112 201
l-93 264h-496l-81 -235c-58 -171 -43 -210 108 -230v-47h-407v47c115 15 145 48 213 235l427 1162h123zM390 574h453l-229 653z" />
    <glyph glyph-name="Aring" unicode="&#xc5;" horiz-adv-x="1373" 
d="M461 1732c0 103 104 171 226 171s227 -68 227 -171c0 -104 -105 -170 -227 -170c-121 0 -226 66 -226 170zM594 1732c0 -72 38 -121 93 -121s93 49 93 121c0 71 -38 121 -93 121s-93 -50 -93 -121zM1186 247c56 -152 89 -185 198 -200v-47h-538v47c139 17 162 56 112 201
l-93 264h-496l-81 -235c-58 -171 -43 -210 108 -230v-47h-407v47c115 15 145 48 213 235l427 1162h123zM390 574h453l-229 653z" />
    <glyph glyph-name="AE" unicode="&#xc6;" horiz-adv-x="1929" 
d="M1789 1444l17 -347h-44c-54 221 -137 273 -397 284l-204 9l4 -623l247 4c106 3 129 42 159 201h41l3 -464h-40c-30 156 -54 198 -162 201l-248 4l5 -659l231 10c291 13 365 56 415 324h44l-15 -388h-1027v47c127 16 146 34 145 120l-3 455h-458l-175 -348
c-85 -168 -63 -209 75 -227v-47h-417v47c112 15 154 45 249 226l612 1171h943zM890 1389l-356 -705h426l-5 705h-65z" />
    <glyph glyph-name="Ccedilla" unicode="&#xc7;" horiz-adv-x="1410" 
d="M99 730c0 471 327 738 736 738c234 0 389 -49 467 -106l13 -322h-43c-54 240 -195 360 -424 360c-319 0 -508 -258 -508 -648s192 -708 513 -708c215 0 367 103 425 368h43l-13 -321c-70 -52 -236 -106 -425 -114l-71 -102c10 2 21 3 32 3c110 0 195 -63 195 -168
c0 -110 -104 -171 -209 -171c-84 0 -155 32 -191 80v46c29 -24 78 -41 128 -41c61 0 109 30 109 83c0 56 -52 86 -118 86c-19 0 -38 -3 -47 -7v42l110 149c-404 8 -722 294 -722 753z" />
    <glyph glyph-name="Egrave" unicode="&#xc8;" horiz-adv-x="1230" 
d="M696 1547l-301 265v7h219l140 -272h-58zM1097 1444l14 -347h-43c-52 221 -137 274 -403 284l-237 9v-623l287 4c105 3 128 42 161 201h40v-464h-40c-29 156 -54 198 -161 201l-287 4v-659l263 10c297 12 374 56 427 324h43l-17 -388h-1084v47c134 16 152 37 152 125v1100
c0 89 -18 109 -152 125v47h1037z" />
    <glyph glyph-name="Eacute" unicode="&#xc9;" horiz-adv-x="1230" 
d="M601 1547l-58 1l145 271h211v-6zM1097 1444l14 -347h-43c-52 221 -137 274 -403 284l-237 9v-623l287 4c105 3 128 42 161 201h40v-464h-40c-29 156 -54 198 -161 201l-287 4v-659l263 10c297 12 374 56 427 324h43l-17 -388h-1084v47c134 16 152 37 152 125v1100
c0 89 -18 109 -152 125v47h1037z" />
    <glyph glyph-name="Ecircumflex" unicode="&#xca;" horiz-adv-x="1230" 
d="M447 1547h-56l205 272h108l205 -272h-60l-200 147zM1097 1444l14 -347h-43c-52 221 -137 274 -403 284l-237 9v-623l287 4c105 3 128 42 161 201h40v-464h-40c-29 156 -54 198 -161 201l-287 4v-659l263 10c297 12 374 56 427 324h43l-17 -388h-1084v47
c134 16 152 37 152 125v1100c0 89 -18 109 -152 125v47h1037z" />
    <glyph glyph-name="Edieresis" unicode="&#xcb;" horiz-adv-x="1230" 
d="M482 1587c-54 0 -96 42 -96 95s42 95 96 95c53 0 96 -42 96 -95s-43 -95 -96 -95zM799 1587c-54 0 -96 42 -96 95s42 95 96 95c53 0 96 -42 96 -95s-43 -95 -96 -95zM1097 1444l14 -347h-43c-52 221 -137 274 -403 284l-237 9v-623l287 4c105 3 128 42 161 201h40v-464
h-40c-29 156 -54 198 -161 201l-287 4v-659l263 10c297 12 374 56 427 324h43l-17 -388h-1084v47c134 16 152 37 152 125v1100c0 89 -18 109 -152 125v47h1037z" />
    <glyph glyph-name="Igrave" unicode="&#xcc;" horiz-adv-x="640" 
d="M376 1547l-300 265v7h219l139 -272h-58zM428 172c0 -88 19 -109 152 -125v-47h-520v47c134 16 152 37 152 125v1100c0 89 -18 109 -152 125v47h520v-47c-133 -16 -152 -36 -152 -125v-1100z" />
    <glyph glyph-name="Iacute" unicode="&#xcd;" horiz-adv-x="640" 
d="M281 1547l-58 1l145 271h211v-6zM428 172c0 -88 19 -109 152 -125v-47h-520v47c134 16 152 37 152 125v1100c0 89 -18 109 -152 125v47h520v-47c-133 -16 -152 -36 -152 -125v-1100z" />
    <glyph glyph-name="Icircumflex" unicode="&#xce;" horiz-adv-x="640" 
d="M127 1547h-56l205 272h108l205 -272h-60l-199 147zM428 172c0 -88 19 -109 152 -125v-47h-520v47c134 16 152 37 152 125v1100c0 89 -18 109 -152 125v47h520v-47c-133 -16 -152 -36 -152 -125v-1100z" />
    <glyph glyph-name="Idieresis" unicode="&#xcf;" horiz-adv-x="640" 
d="M162 1587c-54 0 -96 42 -96 95s42 95 96 95c53 0 96 -42 96 -95s-43 -95 -96 -95zM479 1587c-54 0 -96 42 -96 95s42 95 96 95c53 0 96 -42 96 -95s-43 -95 -96 -95zM428 172c0 -88 19 -109 152 -125v-47h-520v47c134 16 152 37 152 125v1100c0 89 -18 109 -152 125v47
h520v-47c-133 -16 -152 -36 -152 -125v-1100z" />
    <glyph glyph-name="Dstroke" unicode="&#x110;" horiz-adv-x="1518" 
d="M60 710v60h152v502c0 89 -18 109 -152 125v47h523c493 0 847 -251 847 -698c0 -479 -393 -746 -846 -746h-524v47c134 16 152 37 152 125v538h-152zM1191 727c0 393 -239 646 -645 659l-118 4v-620h319v-60h-319v-656l118 4c403 13 645 261 645 669z" />
    <glyph glyph-name="Dstroke" unicode="&#xd0;" horiz-adv-x="1518" 
d="M60 710v60h152v502c0 89 -18 109 -152 125v47h523c493 0 847 -251 847 -698c0 -479 -393 -746 -846 -746h-524v47c134 16 152 37 152 125v538h-152zM1191 727c0 393 -239 646 -645 659l-118 4v-620h319v-60h-319v-656l118 4c403 13 645 261 645 669z" />
    <glyph glyph-name="Ntilde" unicode="&#xd1;" horiz-adv-x="1486" 
d="M873 1568c-52 0 -91 23 -139 57l-29 21c-32 23 -54 36 -82 36c-38 0 -62 -29 -67 -121h-53c-3 174 66 237 152 237c52 0 92 -23 139 -57l29 -21c32 -23 55 -35 82 -35c39 0 62 28 67 120h52c4 -174 -65 -237 -151 -237zM404 1444l830 -1201l-20 956
c-2 151 -20 183 -160 198v47h405v-47c-136 -18 -153 -51 -155 -198l-8 -1199h-160l-886 1280l19 -1034c2 -152 21 -184 160 -199v-47h-405v47c136 18 154 51 155 198l8 996c0 107 -25 136 -144 156v47h361z" />
    <glyph glyph-name="Ograve" unicode="&#xd2;" horiz-adv-x="1640" 
d="M870 1547l-301 265v7h219l139 -272h-57zM99 722c0 413 284 746 721 746c366 0 722 -282 722 -745c0 -413 -285 -747 -722 -747c-366 0 -721 283 -721 746zM340 739c0 -387 189 -695 492 -695c333 0 468 292 468 662c0 387 -188 694 -491 694c-333 0 -469 -291 -469 -661z
" />
    <glyph glyph-name="Oacute" unicode="&#xd3;" horiz-adv-x="1640" 
d="M775 1547l-58 1l145 271h210v-6zM99 722c0 413 284 746 721 746c366 0 722 -282 722 -745c0 -413 -285 -747 -722 -747c-366 0 -721 283 -721 746zM340 739c0 -387 189 -695 492 -695c333 0 468 292 468 662c0 387 -188 694 -491 694c-333 0 -469 -291 -469 -661z" />
    <glyph glyph-name="Ocircumflex" unicode="&#xd4;" horiz-adv-x="1640" 
d="M621 1547h-56l205 272h107l205 -272h-59l-200 147zM99 722c0 413 284 746 721 746c366 0 722 -282 722 -745c0 -413 -285 -747 -722 -747c-366 0 -721 283 -721 746zM340 739c0 -387 189 -695 492 -695c333 0 468 292 468 662c0 387 -188 694 -491 694
c-333 0 -469 -291 -469 -661z" />
    <glyph glyph-name="Otilde" unicode="&#xd5;" horiz-adv-x="1640" 
d="M922 1568c-52 0 -91 23 -138 57l-29 21c-32 23 -55 36 -83 36c-38 0 -62 -29 -66 -121h-53c-4 174 65 237 151 237c53 0 92 -23 140 -57l29 -21c31 -23 54 -35 82 -35c38 0 61 28 67 120h52c4 -174 -66 -237 -152 -237zM99 722c0 413 284 746 721 746
c366 0 722 -282 722 -745c0 -413 -285 -747 -722 -747c-366 0 -721 283 -721 746zM340 739c0 -387 189 -695 492 -695c333 0 468 292 468 662c0 387 -188 694 -491 694c-333 0 -469 -291 -469 -661z" />
    <glyph glyph-name="Odieresis" unicode="&#xd6;" horiz-adv-x="1640" 
d="M655 1587c-53 0 -96 42 -96 95s43 95 96 95c54 0 96 -42 96 -95s-42 -95 -96 -95zM972 1587c-53 0 -96 42 -96 95s43 95 96 95c54 0 96 -42 96 -95s-42 -95 -96 -95zM99 722c0 413 284 746 721 746c366 0 722 -282 722 -745c0 -413 -285 -747 -722 -747
c-366 0 -721 283 -721 746zM340 739c0 -387 189 -695 492 -695c333 0 468 292 468 662c0 387 -188 694 -491 694c-333 0 -469 -291 -469 -661z" />
    <glyph glyph-name="multiply" unicode="&#xd7;" horiz-adv-x="1136" 
d="M985 214l-61 -61l-357 356l-356 -355l-58 59l355 355l-356 356l61 62l356 -356l356 356l59 -59l-356 -356z" />
    <glyph glyph-name="Ostroke" unicode="&#xd8;" horiz-adv-x="1640" 
d="M99 722c0 413 284 746 721 746c167 0 332 -59 462 -167l128 146l47 -42l-128 -147c129 -128 213 -310 213 -535c0 -413 -285 -747 -722 -747c-167 0 -332 59 -462 167l-127 -146l-48 42l128 147c-128 128 -212 311 -212 536zM340 739c0 -158 31 -302 89 -418l750 861
c-85 135 -212 218 -370 218c-333 0 -469 -291 -469 -661zM1300 706c0 158 -31 302 -88 417l-750 -861c85 -135 212 -218 370 -218c332 0 468 292 468 662z" />
    <glyph glyph-name="Ugrave" unicode="&#xd9;" horiz-adv-x="1493" 
d="M863 1547l-301 265v7h219l140 -272h-58zM177 1277c0 86 -20 104 -145 120v47h513v-47c-134 -16 -152 -36 -152 -125v-712c0 -333 180 -488 424 -488c257 0 424 177 420 487l-7 641c-2 148 -20 180 -161 197v47h400v-48c-130 -15 -149 -49 -152 -195l-7 -654
c-4 -347 -206 -571 -565 -571c-291 0 -568 168 -568 576v725z" />
    <glyph glyph-name="Uacute" unicode="&#xda;" horiz-adv-x="1493" 
d="M768 1547l-58 1l145 271h211v-6zM177 1277c0 86 -20 104 -145 120v47h513v-47c-134 -16 -152 -36 -152 -125v-712c0 -333 180 -488 424 -488c257 0 424 177 420 487l-7 641c-2 148 -20 180 -161 197v47h400v-48c-130 -15 -149 -49 -152 -195l-7 -654
c-4 -347 -206 -571 -565 -571c-291 0 -568 168 -568 576v725z" />
    <glyph glyph-name="Ucircumflex" unicode="&#xdb;" horiz-adv-x="1493" 
d="M614 1547h-56l205 272h108l205 -272h-60l-200 147zM177 1277c0 86 -20 104 -145 120v47h513v-47c-134 -16 -152 -36 -152 -125v-712c0 -333 180 -488 424 -488c257 0 424 177 420 487l-7 641c-2 148 -20 180 -161 197v47h400v-48c-130 -15 -149 -49 -152 -195l-7 -654
c-4 -347 -206 -571 -565 -571c-291 0 -568 168 -568 576v725z" />
    <glyph glyph-name="Udieresis" unicode="&#xdc;" horiz-adv-x="1493" 
d="M649 1587c-54 0 -96 42 -96 95s42 95 96 95c53 0 96 -42 96 -95s-43 -95 -96 -95zM966 1587c-54 0 -96 42 -96 95s42 95 96 95c53 0 96 -42 96 -95s-43 -95 -96 -95zM177 1277c0 86 -20 104 -145 120v47h513v-47c-134 -16 -152 -36 -152 -125v-712
c0 -333 180 -488 424 -488c257 0 424 177 420 487l-7 641c-2 148 -20 180 -161 197v47h400v-48c-130 -15 -149 -49 -152 -195l-7 -654c-4 -347 -206 -571 -565 -571c-291 0 -568 168 -568 576v725z" />
    <glyph glyph-name="Yacute" unicode="&#xdd;" horiz-adv-x="1324" 
d="M688 1547l-58 1l145 271h211v-6zM227 1196c-99 160 -134 187 -234 201v47h536v-47c-136 -18 -152 -59 -68 -201l281 -470l252 443c94 168 87 210 -61 228v47h398v-47c-103 -16 -141 -50 -257 -237l-303 -486v-488c0 -97 19 -123 164 -139v-47h-545v47
c145 16 165 42 165 139v476z" />
    <glyph glyph-name="Thorn" unicode="&#xde;" horiz-adv-x="1245" 
d="M1176 746c0 -272 -257 -408 -601 -408h-147v-152c0 -97 19 -123 165 -139v-47h-533v47c134 16 152 37 152 124v1102c0 88 -18 108 -152 124v47h533v-47c-146 -16 -165 -41 -165 -138v-126h147c364 0 601 -125 601 -387zM944 730c0 207 -146 337 -420 346l-96 3v-686l96 3
c273 8 420 123 420 334z" />
    <glyph glyph-name="germandbls" unicode="&#xdf;" horiz-adv-x="1274" 
d="M374 0h-326v47c114 14 128 30 128 94l1 839c0 332 189 515 484 515c249 0 405 -110 405 -262c0 -231 -329 -227 -329 -418c0 -70 34 -114 150 -172l70 -36c166 -84 236 -181 236 -315c0 -193 -161 -311 -339 -311c-124 0 -253 33 -315 71v276h43
c26 -169 138 -282 273 -282c117 0 179 72 179 170c0 94 -47 162 -184 234l-69 36c-131 68 -197 137 -197 243c0 218 320 217 320 473c0 134 -91 228 -243 228c-186 0 -287 -136 -287 -386v-1044z" />
    <glyph glyph-name="agrave" unicode="&#xe0;" horiz-adv-x="1043" 
d="M538 1111l-320 347v9h219l160 -356h-59zM372 -19c-163 0 -286 99 -286 244c0 153 111 244 382 303l213 47v97c0 187 -98 253 -246 253c-73 0 -140 -17 -188 -50c47 -7 85 -50 85 -103c0 -58 -47 -103 -107 -103c-59 0 -108 45 -108 106c0 128 171 221 389 221
c222 0 368 -93 368 -302v-506c0 -89 47 -124 107 -124c19 0 36 3 48 8v-43c-31 -22 -87 -43 -155 -43c-98 0 -169 50 -188 142c-50 -82 -169 -147 -314 -147zM286 260c0 -117 82 -185 190 -185c90 0 162 36 205 101v342l-120 -27c-207 -45 -275 -115 -275 -231z" />
    <glyph glyph-name="aacute" unicode="&#xe1;" horiz-adv-x="1043" 
d="M442 1111h-59l164 356h211v-9zM372 -19c-163 0 -286 99 -286 244c0 153 111 244 382 303l213 47v97c0 187 -98 253 -246 253c-73 0 -140 -17 -188 -50c47 -7 85 -50 85 -103c0 -58 -47 -103 -107 -103c-59 0 -108 45 -108 106c0 128 171 221 389 221
c222 0 368 -93 368 -302v-506c0 -89 47 -124 107 -124c19 0 36 3 48 8v-43c-31 -22 -87 -43 -155 -43c-98 0 -169 50 -188 142c-50 -82 -169 -147 -314 -147zM286 260c0 -117 82 -185 190 -185c90 0 162 36 205 101v342l-120 -27c-207 -45 -275 -115 -275 -231z" />
    <glyph glyph-name="acircumflex" unicode="&#xe2;" horiz-adv-x="1043" 
d="M271 1111h-59l227 356h102l227 -356h-61l-216 197zM372 -19c-163 0 -286 99 -286 244c0 153 111 244 382 303l213 47v97c0 187 -98 253 -246 253c-73 0 -140 -17 -188 -50c47 -7 85 -50 85 -103c0 -58 -47 -103 -107 -103c-59 0 -108 45 -108 106c0 128 171 221 389 221
c222 0 368 -93 368 -302v-506c0 -89 47 -124 107 -124c19 0 36 3 48 8v-43c-31 -22 -87 -43 -155 -43c-98 0 -169 50 -188 142c-50 -82 -169 -147 -314 -147zM286 260c0 -117 82 -185 190 -185c90 0 162 36 205 101v342l-120 -27c-207 -45 -275 -115 -275 -231z" />
    <glyph glyph-name="atilde" unicode="&#xe3;" horiz-adv-x="1043" 
d="M603 1171c-53 0 -95 24 -145 61l-30 24c-33 25 -57 38 -85 38c-41 0 -65 -31 -70 -130h-53c-4 185 67 252 157 252c54 0 95 -24 145 -61l30 -23c33 -26 57 -39 85 -39c41 0 65 31 70 130h53c4 -185 -68 -252 -157 -252zM372 -19c-163 0 -286 99 -286 244
c0 153 111 244 382 303l213 47v97c0 187 -98 253 -246 253c-73 0 -140 -17 -188 -50c47 -7 85 -50 85 -103c0 -58 -47 -103 -107 -103c-59 0 -108 45 -108 106c0 128 171 221 389 221c222 0 368 -93 368 -302v-506c0 -89 47 -124 107 -124c19 0 36 3 48 8v-43
c-31 -22 -87 -43 -155 -43c-98 0 -169 50 -188 142c-50 -82 -169 -147 -314 -147zM286 260c0 -117 82 -185 190 -185c90 0 162 36 205 101v342l-120 -27c-207 -45 -275 -115 -275 -231z" />
    <glyph glyph-name="adieresis" unicode="&#xe4;" horiz-adv-x="1043" 
d="M280 1187c-60 0 -108 46 -108 105s48 105 108 105s108 -46 108 -105s-48 -105 -108 -105zM700 1187c-60 0 -108 46 -108 105s48 105 108 105s108 -46 108 -105s-48 -105 -108 -105zM372 -19c-163 0 -286 99 -286 244c0 153 111 244 382 303l213 47v97
c0 187 -98 253 -246 253c-73 0 -140 -17 -188 -50c47 -7 85 -50 85 -103c0 -58 -47 -103 -107 -103c-59 0 -108 45 -108 106c0 128 171 221 389 221c222 0 368 -93 368 -302v-506c0 -89 47 -124 107 -124c19 0 36 3 48 8v-43c-31 -22 -87 -43 -155 -43
c-98 0 -169 50 -188 142c-50 -82 -169 -147 -314 -147zM286 260c0 -117 82 -185 190 -185c90 0 162 36 205 101v342l-120 -27c-207 -45 -275 -115 -275 -231z" />
    <glyph glyph-name="aring" unicode="&#xe5;" horiz-adv-x="1043" 
d="M239 1296c0 114 115 188 251 188s251 -74 251 -187c0 -115 -116 -188 -251 -188s-251 73 -251 187zM386 1296c0 -81 43 -134 104 -134s104 53 104 135c0 78 -43 135 -104 135s-104 -57 -104 -136zM372 -19c-163 0 -286 99 -286 244c0 153 111 244 382 303l213 47v97
c0 187 -98 253 -246 253c-73 0 -140 -17 -188 -50c47 -7 85 -50 85 -103c0 -58 -47 -103 -107 -103c-59 0 -108 45 -108 106c0 128 171 221 389 221c222 0 368 -93 368 -302v-506c0 -89 47 -124 107 -124c19 0 36 3 48 8v-43c-31 -22 -87 -43 -155 -43
c-98 0 -169 50 -188 142c-50 -82 -169 -147 -314 -147zM286 260c0 -117 82 -185 190 -185c90 0 162 36 205 101v342l-120 -27c-207 -45 -275 -115 -275 -231z" />
    <glyph glyph-name="ae" unicode="&#xe6;" horiz-adv-x="1607" 
d="M374 -19c-168 0 -289 94 -289 244c0 157 121 266 402 319l200 37v67c0 193 -109 278 -253 278c-73 0 -136 -18 -183 -47c45 -9 79 -48 79 -98c0 -60 -47 -107 -108 -107c-59 0 -107 46 -107 106c0 117 154 216 372 216c138 0 259 -46 312 -150c76 95 189 150 327 150
c250 0 394 -162 394 -403c0 -20 -1 -41 -3 -58h-647c6 -269 159 -452 384 -452c111 0 199 40 256 98v-47c-63 -84 -192 -153 -357 -153c-190 0 -368 103 -436 284c-27 -185 -162 -284 -343 -284zM1124 932c-143 0 -244 -117 -254 -342l460 3c1 9 1 20 1 30
c0 185 -66 309 -207 309zM462 75c118 0 225 81 225 273v179l-132 -26c-204 -43 -273 -125 -273 -241s71 -185 180 -185z" />
    <glyph glyph-name="ccedilla" unicode="&#xe7;" horiz-adv-x="987" 
d="M557 -461c-84 0 -156 32 -191 80v46c29 -24 78 -41 128 -41c61 0 109 30 109 83c0 56 -52 86 -118 86c-20 0 -39 -3 -47 -7v42l113 153c-263 8 -459 208 -459 506c0 300 219 509 500 509c219 0 327 -106 327 -224c0 -64 -48 -111 -108 -111s-107 47 -107 107
c0 59 45 106 100 106c-41 34 -101 52 -175 52c-198 0 -330 -158 -330 -398c0 -276 160 -444 374 -444c108 0 198 40 256 98v-48c-59 -81 -172 -141 -315 -152l-75 -107c10 2 21 3 32 3c109 0 195 -63 195 -168c0 -110 -104 -171 -209 -171z" />
    <glyph glyph-name="egrave" unicode="&#xe8;" horiz-adv-x="1042" 
d="M601 1111l-320 347v9h219l160 -356h-59zM92 487c0 296 182 509 460 509c257 0 404 -164 404 -408c0 -21 -2 -43 -4 -58h-660c8 -266 159 -447 386 -447c110 0 200 40 258 99v-47c-65 -90 -196 -154 -362 -154c-277 0 -482 198 -482 506zM551 932
c-151 0 -250 -120 -259 -347l473 2c1 10 1 20 1 32c0 186 -73 313 -215 313z" />
    <glyph glyph-name="eacute" unicode="&#xe9;" horiz-adv-x="1042" 
d="M505 1111h-59l164 356h211v-9zM92 487c0 296 182 509 460 509c257 0 404 -164 404 -408c0 -21 -2 -43 -4 -58h-660c8 -266 159 -447 386 -447c110 0 200 40 258 99v-47c-65 -90 -196 -154 -362 -154c-277 0 -482 198 -482 506zM551 932c-151 0 -250 -120 -259 -347l473 2
c1 10 1 20 1 32c0 186 -73 313 -215 313z" />
    <glyph glyph-name="ecircumflex" unicode="&#xea;" horiz-adv-x="1042" 
d="M334 1111h-59l227 356h102l227 -356h-61l-216 197zM92 487c0 296 182 509 460 509c257 0 404 -164 404 -408c0 -21 -2 -43 -4 -58h-660c8 -266 159 -447 386 -447c110 0 200 40 258 99v-47c-65 -90 -196 -154 -362 -154c-277 0 -482 198 -482 506zM551 932
c-151 0 -250 -120 -259 -347l473 2c1 10 1 20 1 32c0 186 -73 313 -215 313z" />
    <glyph glyph-name="edieresis" unicode="&#xeb;" horiz-adv-x="1042" 
d="M343 1187c-60 0 -108 46 -108 105s48 105 108 105s108 -46 108 -105s-48 -105 -108 -105zM763 1187c-60 0 -108 46 -108 105s48 105 108 105s108 -46 108 -105s-48 -105 -108 -105zM92 487c0 296 182 509 460 509c257 0 404 -164 404 -408c0 -21 -2 -43 -4 -58h-660
c8 -266 159 -447 386 -447c110 0 200 40 258 99v-47c-65 -90 -196 -154 -362 -154c-277 0 -482 198 -482 506zM551 932c-151 0 -250 -120 -259 -347l473 2c1 10 1 20 1 32c0 186 -73 313 -215 313z" />
    <glyph glyph-name="igrave" unicode="&#xec;" horiz-adv-x="554" 
d="M310 1111l-320 347v9h219l160 -356h-59zM380 988v-844c0 -66 17 -82 129 -97v-47h-455v47c112 15 129 31 129 97v666c0 53 -8 65 -64 81l-65 19v41z" />
    <glyph glyph-name="iacute" unicode="&#xed;" horiz-adv-x="554" 
d="M214 1111h-59l164 356h211v-9zM380 988v-844c0 -66 17 -82 129 -97v-47h-455v47c112 15 129 31 129 97v666c0 53 -8 65 -64 81l-65 19v41z" />
    <glyph glyph-name="icircumflex" unicode="&#xee;" horiz-adv-x="554" 
d="M65 1111h-53l204 356h92l204 -356h-54l-195 197zM380 988v-844c0 -66 17 -82 129 -97v-47h-455v47c112 15 129 31 129 97v666c0 53 -8 65 -64 81l-65 19v41z" />
    <glyph glyph-name="idieresis" unicode="&#xef;" horiz-adv-x="554" 
d="M52 1187c-60 0 -108 46 -108 105s48 105 108 105s108 -46 108 -105s-48 -105 -108 -105zM472 1187c-60 0 -108 46 -108 105s48 105 108 105s108 -46 108 -105s-48 -105 -108 -105zM380 988v-844c0 -66 17 -82 129 -97v-47h-455v47c112 15 129 31 129 97v666
c0 53 -8 65 -64 81l-65 19v41z" />
    <glyph glyph-name="eth" unicode="&#xf0;" horiz-adv-x="1168" 
d="M575 -19c-290 0 -483 205 -483 503c0 294 198 497 450 497c154 0 246 -71 293 -166c-45 162 -134 314 -279 446l-249 -168l-34 49l236 159c-69 57 -150 110 -242 158l32 47c107 -44 204 -95 291 -150l222 150l35 -49l-204 -137c278 -196 434 -451 434 -753
c0 -383 -252 -586 -502 -586zM583 46c153 0 293 117 293 449c-1 251 -92 413 -282 413c-173 0 -290 -154 -290 -417c0 -257 105 -445 279 -445z" />
    <glyph glyph-name="ntilde" unicode="&#xf1;" horiz-adv-x="1205" 
d="M722 1171c-53 0 -95 24 -145 61l-30 24c-33 25 -56 38 -85 38c-41 0 -65 -31 -70 -130h-53c-4 185 68 252 157 252c55 0 95 -24 145 -61l30 -23c33 -26 57 -39 85 -39c41 0 66 31 70 130h53c5 -185 -67 -252 -157 -252zM377 988v-164c56 100 174 172 323 172
c198 0 335 -104 335 -308v-544c0 -66 15 -82 129 -97v-47h-447v47c107 13 121 29 121 92v504c0 167 -86 251 -229 251c-109 0 -188 -48 -229 -117v-638c0 -63 13 -78 121 -92v-47h-447v47c112 15 129 31 129 97v666c0 53 -8 65 -64 81l-65 19v41z" />
    <glyph glyph-name="ograve" unicode="&#xf2;" horiz-adv-x="1182" 
d="M638 1111l-320 347v9h220l159 -356h-59zM586 -19c-277 0 -494 202 -494 505c0 301 220 510 504 510c278 0 495 -202 495 -504c0 -301 -222 -511 -505 -511zM596 46c175 0 279 169 279 432c0 273 -119 454 -289 454c-175 0 -279 -169 -279 -432c0 -273 118 -454 289 -454z
" />
    <glyph glyph-name="oacute" unicode="&#xf3;" horiz-adv-x="1182" 
d="M542 1111h-59l164 356h211v-9zM586 -19c-277 0 -494 202 -494 505c0 301 220 510 504 510c278 0 495 -202 495 -504c0 -301 -222 -511 -505 -511zM596 46c175 0 279 169 279 432c0 273 -119 454 -289 454c-175 0 -279 -169 -279 -432c0 -273 118 -454 289 -454z" />
    <glyph glyph-name="ocircumflex" unicode="&#xf4;" horiz-adv-x="1182" 
d="M371 1111h-59l227 356h102l227 -356h-61l-216 197zM586 -19c-277 0 -494 202 -494 505c0 301 220 510 504 510c278 0 495 -202 495 -504c0 -301 -222 -511 -505 -511zM596 46c175 0 279 169 279 432c0 273 -119 454 -289 454c-175 0 -279 -169 -279 -432
c0 -273 118 -454 289 -454z" />
    <glyph glyph-name="otilde" unicode="&#xf5;" horiz-adv-x="1182" 
d="M703 1171c-53 0 -95 24 -145 61l-30 24c-33 25 -56 38 -85 38c-41 0 -65 -31 -70 -130h-53c-4 185 68 252 157 252c55 0 95 -24 145 -61l30 -23c33 -26 57 -39 85 -39c41 0 66 31 70 130h53c5 -185 -67 -252 -157 -252zM586 -19c-277 0 -494 202 -494 505
c0 301 220 510 504 510c278 0 495 -202 495 -504c0 -301 -222 -511 -505 -511zM596 46c175 0 279 169 279 432c0 273 -119 454 -289 454c-175 0 -279 -169 -279 -432c0 -273 118 -454 289 -454z" />
    <glyph glyph-name="odieresis" unicode="&#xf6;" horiz-adv-x="1182" 
d="M380 1187c-60 0 -108 46 -108 105s48 105 108 105s108 -46 108 -105s-48 -105 -108 -105zM800 1187c-60 0 -108 46 -108 105s48 105 108 105s108 -46 108 -105s-48 -105 -108 -105zM586 -19c-277 0 -494 202 -494 505c0 301 220 510 504 510c278 0 495 -202 495 -504
c0 -301 -222 -511 -505 -511zM596 46c175 0 279 169 279 432c0 273 -119 454 -289 454c-175 0 -279 -169 -279 -432c0 -273 118 -454 289 -454z" />
    <glyph glyph-name="divide" unicode="&#xf7;" horiz-adv-x="1136" 
d="M568 820c-62 0 -113 51 -113 114c0 64 51 113 113 113c63 0 113 -49 113 -113c0 -63 -50 -114 -113 -114zM114 527v85h908v-85h-908zM568 93c-62 0 -113 50 -113 113c0 64 51 114 113 114c63 0 113 -50 113 -114c0 -63 -50 -113 -113 -113z" />
    <glyph glyph-name="ostroke" unicode="&#xf8;" horiz-adv-x="1176" 
d="M584 -19c-120 0 -228 38 -312 105l-83 -94l-45 40l84 94c-85 88 -136 212 -136 359c0 301 220 509 501 509c120 0 229 -38 313 -106l87 97l46 -40l-88 -98c84 -88 134 -210 134 -356c0 -301 -220 -510 -501 -510zM302 499c0 -94 14 -177 39 -245l469 526
c-52 96 -131 152 -226 152c-177 0 -282 -169 -282 -433zM593 44c177 0 283 170 283 433c0 92 -14 174 -39 242l-469 -525c52 -95 131 -150 225 -150z" />
    <glyph glyph-name="ugrave" unicode="&#xf9;" horiz-adv-x="1177" 
d="M630 1111l-320 347v9h219l160 -356h-59zM358 988v-649c0 -170 82 -256 228 -256c103 0 179 49 220 117v610c0 53 -7 65 -63 81l-66 19v41l326 37v-818c0 -54 8 -66 64 -83l65 -17v-41l-324 -39v164c-56 -101 -170 -173 -318 -173c-194 0 -330 105 -330 313v516
c0 53 -8 65 -63 81l-65 19v41z" />
    <glyph glyph-name="uacute" unicode="&#xfa;" horiz-adv-x="1177" 
d="M534 1111h-59l164 356h211v-9zM358 988v-649c0 -170 82 -256 228 -256c103 0 179 49 220 117v610c0 53 -7 65 -63 81l-66 19v41l326 37v-818c0 -54 8 -66 64 -83l65 -17v-41l-324 -39v164c-56 -101 -170 -173 -318 -173c-194 0 -330 105 -330 313v516c0 53 -8 65 -63 81
l-65 19v41z" />
    <glyph glyph-name="ucircumflex" unicode="&#xfb;" horiz-adv-x="1177" 
d="M363 1111h-59l227 356h102l227 -356h-61l-216 197zM358 988v-649c0 -170 82 -256 228 -256c103 0 179 49 220 117v610c0 53 -7 65 -63 81l-66 19v41l326 37v-818c0 -54 8 -66 64 -83l65 -17v-41l-324 -39v164c-56 -101 -170 -173 -318 -173c-194 0 -330 105 -330 313v516
c0 53 -8 65 -63 81l-65 19v41z" />
    <glyph glyph-name="udieresis" unicode="&#xfc;" horiz-adv-x="1177" 
d="M372 1187c-60 0 -108 46 -108 105s48 105 108 105s108 -46 108 -105s-48 -105 -108 -105zM792 1187c-60 0 -108 46 -108 105s48 105 108 105s108 -46 108 -105s-48 -105 -108 -105zM358 988v-649c0 -170 82 -256 228 -256c103 0 179 49 220 117v610c0 53 -7 65 -63 81
l-66 19v41l326 37v-818c0 -54 8 -66 64 -83l65 -17v-41l-324 -39v164c-56 -101 -170 -173 -318 -173c-194 0 -330 105 -330 313v516c0 53 -8 65 -63 81l-65 19v41z" />
    <glyph glyph-name="yacute" unicode="&#xfd;" horiz-adv-x="1020" 
d="M514 1111h-58l164 356h211v-9zM163 772c-48 119 -75 141 -162 159v47h474v-47c-125 -16 -145 -41 -98 -166l198 -530l197 525c48 129 27 155 -98 171v47h346v-47c-90 -15 -115 -37 -175 -184l-223 -549l-83 -202l-160 -456h-169v3c80 107 192 304 268 461z" />
    <glyph glyph-name="thorn" unicode="&#xfe;" horiz-adv-x="1175" 
d="M1084 498c0 -309 -209 -517 -470 -517c-118 0 -210 48 -259 117v-405c0 -76 14 -91 141 -106v-47h-467v47c114 14 128 30 128 94v1622c0 53 -7 65 -63 82l-65 18v41l326 38l-4 -667c55 109 184 181 327 181c214 0 406 -182 406 -498zM878 476c0 256 -121 418 -296 418
c-105 0 -183 -43 -227 -121v-608c32 -63 116 -112 214 -112c184 0 309 167 309 423z" />
    <glyph glyph-name="ydieresis" unicode="&#xff;" horiz-adv-x="1020" 
d="M353 1187c-60 0 -109 46 -109 105s49 105 109 105c59 0 108 -46 108 -105s-49 -105 -108 -105zM773 1187c-60 0 -108 46 -108 105s48 105 108 105s108 -46 108 -105s-48 -105 -108 -105zM163 772c-48 119 -75 141 -162 159v47h474v-47c-125 -16 -145 -41 -98 -166
l198 -530l197 525c48 129 27 155 -98 171v47h346v-47c-90 -15 -115 -37 -175 -184l-223 -549l-83 -202l-160 -456h-169v3c80 107 192 304 268 461z" />
    <glyph glyph-name="Amacron" unicode="&#x100;" horiz-adv-x="1373" 
d="M443 1611v108h489v-108h-489zM1186 247c56 -152 89 -185 198 -200v-47h-538v47c139 17 162 56 112 201l-93 264h-496l-81 -235c-58 -171 -43 -210 108 -230v-47h-407v47c115 15 145 48 213 235l427 1162h123zM390 574h453l-229 653z" />
    <glyph glyph-name="amacron" unicode="&#x101;" horiz-adv-x="1043" 
d="M219 1219v123h542v-123h-542zM372 -19c-163 0 -286 99 -286 244c0 153 111 244 382 303l213 47v97c0 187 -98 253 -246 253c-73 0 -140 -17 -188 -50c47 -7 85 -50 85 -103c0 -58 -47 -103 -107 -103c-59 0 -108 45 -108 106c0 128 171 221 389 221
c222 0 368 -93 368 -302v-506c0 -89 47 -124 107 -124c19 0 36 3 48 8v-43c-31 -22 -87 -43 -155 -43c-98 0 -169 50 -188 142c-50 -82 -169 -147 -314 -147zM286 260c0 -117 82 -185 190 -185c90 0 162 36 205 101v342l-120 -27c-207 -45 -275 -115 -275 -231z" />
    <glyph glyph-name="Abreve" unicode="&#x102;" horiz-adv-x="1373" 
d="M687 1592c-155 0 -244 120 -244 241c0 15 1 31 3 45h48v-6c0 -92 75 -160 193 -160s193 68 193 160v6h48c2 -14 3 -30 3 -45c0 -121 -88 -241 -244 -241zM1186 247c56 -152 89 -185 198 -200v-47h-538v47c139 17 162 56 112 201l-93 264h-496l-81 -235
c-58 -171 -43 -210 108 -230v-47h-407v47c115 15 145 48 213 235l427 1162h123zM390 574h453l-229 653z" />
    <glyph glyph-name="abreve" unicode="&#x103;" horiz-adv-x="1043" 
d="M490 1142c-176 0 -274 136 -274 274c0 17 1 34 4 51h53v-8c0 -102 85 -177 217 -177s217 75 217 177v8h53c3 -17 4 -34 4 -51c0 -138 -98 -274 -274 -274zM372 -19c-163 0 -286 99 -286 244c0 153 111 244 382 303l213 47v97c0 187 -98 253 -246 253
c-73 0 -140 -17 -188 -50c47 -7 85 -50 85 -103c0 -58 -47 -103 -107 -103c-59 0 -108 45 -108 106c0 128 171 221 389 221c222 0 368 -93 368 -302v-506c0 -89 47 -124 107 -124c19 0 36 3 48 8v-43c-31 -22 -87 -43 -155 -43c-98 0 -169 50 -188 142
c-50 -82 -169 -147 -314 -147zM286 260c0 -117 82 -185 190 -185c90 0 162 36 205 101v342l-120 -27c-207 -45 -275 -115 -275 -231z" />
    <glyph glyph-name="Aogonek" unicode="&#x104;" horiz-adv-x="1373" 
d="M1186 247c56 -152 89 -185 198 -200v-47h-232c-34 -45 -54 -116 -54 -192c0 -108 55 -190 129 -190c36 0 65 14 82 33v-47c-28 -50 -95 -86 -172 -86c-108 0 -191 73 -191 186c0 106 64 211 159 296h-259v47c139 17 162 56 112 201l-93 264h-496l-81 -235
c-58 -171 -43 -210 108 -230v-47h-407v47c115 15 145 48 213 235l427 1162h123zM390 574h453l-229 653z" />
    <glyph glyph-name="aogonek" unicode="&#x105;" horiz-adv-x="1045" 
d="M372 -19c-163 0 -286 99 -286 244c0 153 111 244 382 303l213 47v97c0 187 -98 253 -246 253c-73 0 -140 -17 -188 -50c47 -7 85 -50 85 -103c0 -58 -47 -103 -107 -103c-59 0 -108 45 -108 106c0 128 171 221 389 221c222 0 368 -93 368 -302v-506
c0 -89 47 -124 107 -124c19 0 36 3 48 8v-43c-142 -116 -194 -201 -194 -293c0 -79 52 -120 109 -120c39 0 75 12 93 31v-46c-34 -49 -102 -83 -188 -83c-100 0 -183 65 -183 167c0 101 69 194 247 302l3 2c-13 -2 -27 -3 -42 -3c-98 0 -169 50 -188 142
c-50 -82 -169 -147 -314 -147zM286 260c0 -117 82 -185 190 -185c90 0 162 36 205 101v342l-120 -27c-207 -45 -275 -115 -275 -231z" />
    <glyph glyph-name="Cacute" unicode="&#x106;" horiz-adv-x="1410" 
d="M792 1547l-58 1l146 271h210v-6zM99 730c0 471 327 738 736 738c234 0 389 -49 467 -106l13 -322h-43c-54 240 -195 360 -424 360c-319 0 -508 -258 -508 -648s192 -708 513 -708c215 0 367 103 425 368h43l-13 -321c-76 -56 -261 -115 -468 -115
c-413 0 -741 288 -741 754z" />
    <glyph glyph-name="cacute" unicode="&#x107;" horiz-adv-x="987" 
d="M527 1111h-58l164 356h211v-9zM568 -19c-272 0 -476 202 -476 506c0 300 219 509 500 509c219 0 327 -106 327 -224c0 -64 -48 -111 -108 -111s-107 47 -107 107c0 59 45 106 100 106c-41 34 -101 52 -175 52c-198 0 -330 -158 -330 -398c0 -276 160 -444 374 -444
c108 0 198 40 256 98v-48c-65 -89 -196 -153 -361 -153z" />
    <glyph glyph-name="Ccircumflex" unicode="&#x108;" horiz-adv-x="1410" 
d="M639 1547h-56l205 272h107l205 -272h-59l-200 147zM99 730c0 471 327 738 736 738c234 0 389 -49 467 -106l13 -322h-43c-54 240 -195 360 -424 360c-319 0 -508 -258 -508 -648s192 -708 513 -708c215 0 367 103 425 368h43l-13 -321c-76 -56 -261 -115 -468 -115
c-413 0 -741 288 -741 754z" />
    <glyph glyph-name="ccircumflex" unicode="&#x109;" horiz-adv-x="987" 
d="M356 1111h-58l227 356h102l226 -356h-60l-217 197zM568 -19c-272 0 -476 202 -476 506c0 300 219 509 500 509c219 0 327 -106 327 -224c0 -64 -48 -111 -108 -111s-107 47 -107 107c0 59 45 106 100 106c-41 34 -101 52 -175 52c-198 0 -330 -158 -330 -398
c0 -276 160 -444 374 -444c108 0 198 40 256 98v-48c-65 -89 -196 -153 -361 -153z" />
    <glyph glyph-name="Cdotaccent" unicode="&#x10a;" horiz-adv-x="1410" 
d="M831 1588c-54 0 -97 43 -97 95c0 53 43 95 97 95c55 0 98 -42 98 -95c0 -52 -43 -95 -98 -95zM99 730c0 471 327 738 736 738c234 0 389 -49 467 -106l13 -322h-43c-54 240 -195 360 -424 360c-319 0 -508 -258 -508 -648s192 -708 513 -708c215 0 367 103 425 368h43
l-13 -321c-76 -56 -261 -115 -468 -115c-413 0 -741 288 -741 754z" />
    <glyph glyph-name="cdotaccent" unicode="&#x10b;" horiz-adv-x="987" 
d="M576 1180c-64 0 -115 49 -115 112s51 111 115 111c63 0 115 -48 115 -111s-52 -112 -115 -112zM568 -19c-272 0 -476 202 -476 506c0 300 219 509 500 509c219 0 327 -106 327 -224c0 -64 -48 -111 -108 -111s-107 47 -107 107c0 59 45 106 100 106
c-41 34 -101 52 -175 52c-198 0 -330 -158 -330 -398c0 -276 160 -444 374 -444c108 0 198 40 256 98v-48c-65 -89 -196 -153 -361 -153z" />
    <glyph glyph-name="Ccaron" unicode="&#x10c;" horiz-adv-x="1410" 
d="M1042 1831h56l-205 -272h-107l-205 272h59l200 -147zM99 730c0 471 327 738 736 738c234 0 389 -49 467 -106l13 -322h-43c-54 240 -195 360 -424 360c-319 0 -508 -258 -508 -648s192 -708 513 -708c215 0 367 103 425 368h43l-13 -321c-76 -56 -261 -115 -468 -115
c-413 0 -741 288 -741 754z" />
    <glyph glyph-name="ccaron" unicode="&#x10d;" horiz-adv-x="987" 
d="M795 1482h58l-226 -355h-102l-227 355h60l217 -197zM568 -19c-272 0 -476 202 -476 506c0 300 219 509 500 509c219 0 327 -106 327 -224c0 -64 -48 -111 -108 -111s-107 47 -107 107c0 59 45 106 100 106c-41 34 -101 52 -175 52c-198 0 -330 -158 -330 -398
c0 -276 160 -444 374 -444c108 0 198 40 256 98v-48c-65 -89 -196 -153 -361 -153z" />
    <glyph glyph-name="Dcaron" unicode="&#x10e;" horiz-adv-x="1518" 
d="M937 1831h56l-205 -272h-108l-205 272h60l199 -147zM1430 746c0 -479 -393 -746 -846 -746h-524v47c134 16 152 37 152 125v1100c0 89 -18 109 -152 125v47h523c493 0 847 -251 847 -698zM1191 727c0 393 -239 646 -645 659l-118 4v-1336l118 4c403 13 645 261 645 669z
" />
    <glyph glyph-name="dcaron" unicode="&#x10f;" horiz-adv-x="1193" 
d="M1202 1076h-44l43 407h172zM92 480c0 309 208 516 469 516c117 0 209 -47 259 -116v423c0 53 -7 65 -63 82l-66 18v41l326 38v-1312c0 -54 8 -66 65 -83l64 -17v-41l-323 -39v171c-54 -108 -183 -180 -326 -180c-214 0 -405 182 -405 499zM297 501
c0 -256 121 -418 296 -418c105 0 183 44 227 122v608c-32 63 -116 112 -215 112c-183 0 -308 -166 -308 -424z" />
    <glyph glyph-name="dstroke" unicode="&#x111;" horiz-adv-x="1193" 
d="M92 480c0 309 208 516 469 516c117 0 209 -47 259 -116v336h-232v60h232v187l197 19v-206h129v-60h-129v-1046c0 -54 8 -66 65 -83l64 -17v-41l-323 -39v171c-54 -108 -183 -180 -326 -180c-214 0 -405 182 -405 499zM297 501c0 -256 121 -418 296 -418
c105 0 183 44 227 122v608c-32 63 -116 112 -215 112c-183 0 -308 -166 -308 -424z" />
    <glyph glyph-name="Emacron" unicode="&#x112;" horiz-adv-x="1230" 
d="M396 1611v108h488v-108h-488zM1097 1444l14 -347h-43c-52 221 -137 274 -403 284l-237 9v-623l287 4c105 3 128 42 161 201h40v-464h-40c-29 156 -54 198 -161 201l-287 4v-659l263 10c297 12 374 56 427 324h43l-17 -388h-1084v47c134 16 152 37 152 125v1100
c0 89 -18 109 -152 125v47h1037z" />
    <glyph glyph-name="emacron" unicode="&#x113;" horiz-adv-x="1042" 
d="M282 1219v123h542v-123h-542zM92 487c0 296 182 509 460 509c257 0 404 -164 404 -408c0 -21 -2 -43 -4 -58h-660c8 -266 159 -447 386 -447c110 0 200 40 258 99v-47c-65 -90 -196 -154 -362 -154c-277 0 -482 198 -482 506zM551 932c-151 0 -250 -120 -259 -347l473 2
c1 10 1 20 1 32c0 186 -73 313 -215 313z" />
    <glyph glyph-name="Ebreve" unicode="&#x114;" horiz-adv-x="1230" 
d="M640 1592c-155 0 -245 120 -245 241c0 15 1 31 4 45h47v-6c0 -92 76 -160 193 -160c118 0 194 68 194 160v6h47c2 -14 3 -30 3 -45c0 -121 -88 -241 -243 -241zM1097 1444l14 -347h-43c-52 221 -137 274 -403 284l-237 9v-623l287 4c105 3 128 42 161 201h40v-464h-40
c-29 156 -54 198 -161 201l-287 4v-659l263 10c297 12 374 56 427 324h43l-17 -388h-1084v47c134 16 152 37 152 125v1100c0 89 -18 109 -152 125v47h1037z" />
    <glyph glyph-name="ebreve" unicode="&#x115;" horiz-adv-x="1042" 
d="M553 1142c-177 0 -274 136 -274 274c0 17 1 34 4 51h53v-8c0 -102 85 -177 217 -177s217 75 217 177v8h53c3 -17 4 -34 4 -51c0 -138 -98 -274 -274 -274zM92 487c0 296 182 509 460 509c257 0 404 -164 404 -408c0 -21 -2 -43 -4 -58h-660c8 -266 159 -447 386 -447
c110 0 200 40 258 99v-47c-65 -90 -196 -154 -362 -154c-277 0 -482 198 -482 506zM551 932c-151 0 -250 -120 -259 -347l473 2c1 10 1 20 1 32c0 186 -73 313 -215 313z" />
    <glyph glyph-name="Edotaccent" unicode="&#x116;" horiz-adv-x="1230" 
d="M640 1588c-55 0 -98 43 -98 95c0 53 43 95 98 95c54 0 97 -42 97 -95c0 -52 -43 -95 -97 -95zM1097 1444l14 -347h-43c-52 221 -137 274 -403 284l-237 9v-623l287 4c105 3 128 42 161 201h40v-464h-40c-29 156 -54 198 -161 201l-287 4v-659l263 10
c297 12 374 56 427 324h43l-17 -388h-1084v47c134 16 152 37 152 125v1100c0 89 -18 109 -152 125v47h1037z" />
    <glyph glyph-name="edotaccent" unicode="&#x117;" horiz-adv-x="1042" 
d="M553 1180c-64 0 -115 49 -115 112s51 111 115 111s115 -48 115 -111s-51 -112 -115 -112zM92 487c0 296 182 509 460 509c257 0 404 -164 404 -408c0 -21 -2 -43 -4 -58h-660c8 -266 159 -447 386 -447c110 0 200 40 258 99v-47c-65 -90 -196 -154 -362 -154
c-277 0 -482 198 -482 506zM551 932c-151 0 -250 -120 -259 -347l473 2c1 10 1 20 1 32c0 186 -73 313 -215 313z" />
    <glyph glyph-name="Eogonek" unicode="&#x118;" horiz-adv-x="1230" 
d="M989 -482c-108 0 -191 73 -191 186c0 106 63 211 160 296h-898v47c134 16 152 37 152 125v1100c0 89 -18 109 -152 125v47h1037l14 -347h-43c-52 221 -137 274 -403 284l-237 9v-623l287 4c105 3 128 42 161 201h40v-464h-40c-29 156 -54 198 -161 201l-287 4v-659
l263 10c297 12 374 56 427 324h43l-17 -388h-141c-33 -45 -54 -116 -54 -192c0 -108 56 -190 130 -190c35 0 64 14 82 33v-47c-28 -50 -94 -86 -172 -86z" />
    <glyph glyph-name="eogonek" unicode="&#x119;" horiz-adv-x="1045" 
d="M92 487c0 296 182 509 460 509c257 0 404 -164 404 -408c0 -21 -2 -43 -4 -58h-659c8 -266 158 -447 385 -447c109 0 200 40 258 99v-47c-9 -13 -65 -79 -81 -94c-89 -98 -130 -184 -130 -274c0 -93 55 -151 126 -151c36 0 64 13 79 31l1 -47c-35 -51 -105 -82 -183 -82
c-109 0 -190 75 -190 181c0 111 79 214 212 313l8 6c-57 -24 -128 -37 -204 -37c-277 0 -482 198 -482 506zM551 932c-151 0 -250 -120 -258 -347l472 2c1 10 1 20 1 32c0 186 -73 313 -215 313z" />
    <glyph glyph-name="Ecaron" unicode="&#x11a;" horiz-adv-x="1230" 
d="M851 1831h56l-205 -272h-108l-205 272h60l200 -147zM1097 1444l14 -347h-43c-52 221 -137 274 -403 284l-237 9v-623l287 4c105 3 128 42 161 201h40v-464h-40c-29 156 -54 198 -161 201l-287 4v-659l263 10c297 12 374 56 427 324h43l-17 -388h-1084v47
c134 16 152 37 152 125v1100c0 89 -18 109 -152 125v47h1037z" />
    <glyph glyph-name="ecaron" unicode="&#x11b;" horiz-adv-x="1042" 
d="M772 1482h59l-227 -355h-102l-227 355h61l216 -197zM92 487c0 296 182 509 460 509c257 0 404 -164 404 -408c0 -21 -2 -43 -4 -58h-660c8 -266 159 -447 386 -447c110 0 200 40 258 99v-47c-65 -90 -196 -154 -362 -154c-277 0 -482 198 -482 506zM551 932
c-151 0 -250 -120 -259 -347l473 2c1 10 1 20 1 32c0 186 -73 313 -215 313z" />
    <glyph glyph-name="Gcircumflex" unicode="&#x11c;" horiz-adv-x="1528" 
d="M634 1547h-56l205 272h108l205 -272h-60l-200 147zM99 730c0 471 329 738 740 738c235 0 391 -49 470 -106l13 -320h-43c-55 238 -198 358 -428 358c-321 0 -511 -258 -511 -648s193 -708 518 -708c126 0 230 30 293 80v390c0 93 -17 110 -163 123v47h515v-47
c-134 -13 -152 -30 -152 -123v-393c-112 -86 -310 -145 -507 -145c-417 0 -745 290 -745 754z" />
    <glyph glyph-name="gcircumflex" unicode="&#x11d;" horiz-adv-x="1072" 
d="M313 1111h-58l226 356h102l227 -356h-60l-217 197zM102 661c0 203 188 335 415 335c76 0 144 -14 197 -36l338 19v-78l-270 13c90 -44 145 -135 145 -245c0 -206 -194 -333 -407 -333c-35 0 -70 4 -116 12c-86 -21 -129 -62 -129 -118c0 -66 59 -100 170 -100h195
c236 0 368 -94 368 -268c0 -211 -220 -352 -486 -352c-280 0 -461 100 -461 252c0 108 100 190 296 217c-137 2 -238 68 -238 174c0 104 91 176 237 209c-147 36 -254 140 -254 299zM300 670c0 -168 89 -275 220 -275c126 0 211 105 211 266c0 164 -81 277 -220 277
c-131 0 -211 -107 -211 -268zM232 -217c0 -120 107 -208 294 -208c191 0 321 87 321 221c0 106 -70 169 -235 169h-207c-116 -18 -173 -87 -173 -182z" />
    <glyph glyph-name="Gbreve" unicode="&#x11e;" horiz-adv-x="1528" 
d="M827 1592c-155 0 -245 120 -245 241c0 15 1 31 4 45h47v-6c0 -92 76 -160 193 -160c118 0 194 68 194 160v6h47c2 -14 3 -30 3 -45c0 -121 -88 -241 -243 -241zM99 730c0 471 329 738 740 738c235 0 391 -49 470 -106l13 -320h-43c-55 238 -198 358 -428 358
c-321 0 -511 -258 -511 -648s193 -708 518 -708c126 0 230 30 293 80v390c0 93 -17 110 -163 123v47h515v-47c-134 -13 -152 -30 -152 -123v-393c-112 -86 -310 -145 -507 -145c-417 0 -745 290 -745 754z" />
    <glyph glyph-name="gbreve" unicode="&#x11f;" horiz-adv-x="1072" 
d="M532 1142c-176 0 -274 136 -274 274c0 17 1 34 4 51h53v-8c0 -102 85 -177 217 -177c133 0 218 75 218 177v8h53c3 -17 4 -34 4 -51c0 -138 -98 -274 -275 -274zM102 661c0 203 188 335 415 335c76 0 144 -14 197 -36l338 19v-78l-270 13c90 -44 145 -135 145 -245
c0 -206 -194 -333 -407 -333c-35 0 -70 4 -116 12c-86 -21 -129 -62 -129 -118c0 -66 59 -100 170 -100h195c236 0 368 -94 368 -268c0 -211 -220 -352 -486 -352c-280 0 -461 100 -461 252c0 108 100 190 296 217c-137 2 -238 68 -238 174c0 104 91 176 237 209
c-147 36 -254 140 -254 299zM300 670c0 -168 89 -275 220 -275c126 0 211 105 211 266c0 164 -81 277 -220 277c-131 0 -211 -107 -211 -268zM232 -217c0 -120 107 -208 294 -208c191 0 321 87 321 221c0 106 -70 169 -235 169h-207c-116 -18 -173 -87 -173 -182z" />
    <glyph glyph-name="Gdotaccent" unicode="&#x120;" horiz-adv-x="1528" 
d="M827 1588c-55 0 -98 43 -98 95c0 53 43 95 98 95c54 0 97 -42 97 -95c0 -52 -43 -95 -97 -95zM99 730c0 471 329 738 740 738c235 0 391 -49 470 -106l13 -320h-43c-55 238 -198 358 -428 358c-321 0 -511 -258 -511 -648s193 -708 518 -708c126 0 230 30 293 80v390
c0 93 -17 110 -163 123v47h515v-47c-134 -13 -152 -30 -152 -123v-393c-112 -86 -310 -145 -507 -145c-417 0 -745 290 -745 754z" />
    <glyph glyph-name="gdotaccent" unicode="&#x121;" horiz-adv-x="1072" 
d="M532 1180c-63 0 -115 49 -115 112s52 111 115 111c64 0 115 -48 115 -111s-51 -112 -115 -112zM102 661c0 203 188 335 415 335c76 0 144 -14 197 -36l338 19v-78l-270 13c90 -44 145 -135 145 -245c0 -206 -194 -333 -407 -333c-35 0 -70 4 -116 12
c-86 -21 -129 -62 -129 -118c0 -66 59 -100 170 -100h195c236 0 368 -94 368 -268c0 -211 -220 -352 -486 -352c-280 0 -461 100 -461 252c0 108 100 190 296 217c-137 2 -238 68 -238 174c0 104 91 176 237 209c-147 36 -254 140 -254 299zM300 670
c0 -168 89 -275 220 -275c126 0 211 105 211 266c0 164 -81 277 -220 277c-131 0 -211 -107 -211 -268zM232 -217c0 -120 107 -208 294 -208c191 0 321 87 321 221c0 106 -70 169 -235 169h-207c-116 -18 -173 -87 -173 -182z" />
    <glyph glyph-name="Gcommaaccent" unicode="&#x122;" horiz-adv-x="1528" 
d="M99 730c0 471 329 738 740 738c235 0 391 -49 470 -106l13 -320h-43c-55 238 -198 358 -428 358c-321 0 -511 -258 -511 -648s193 -708 518 -708c126 0 230 30 293 80v390c0 93 -17 110 -163 123v47h515v-47c-134 -13 -152 -30 -152 -123v-393
c-112 -86 -310 -145 -507 -145c-417 0 -745 290 -745 754zM835 -462c-83 0 -156 33 -188 74v46c33 -24 82 -41 138 -41c65 0 114 30 114 83c0 50 -49 81 -112 81c-34 0 -66 -8 -84 -17v44c27 35 82 68 158 68c113 0 194 -65 194 -168c0 -102 -89 -170 -220 -170z" />
    <glyph glyph-name="gcommaaccent" unicode="&#x123;" horiz-adv-x="1072" 
d="M546 1458c84 0 156 -33 188 -74v-46c-33 24 -81 41 -138 41c-65 0 -113 -30 -113 -82c0 -51 48 -82 111 -82c33 0 66 8 84 17v-43c-26 -36 -82 -69 -158 -69c-113 0 -194 65 -194 168c0 102 89 170 220 170zM102 661c0 203 188 335 415 335c76 0 144 -14 197 -36l338 19
v-78l-270 13c90 -44 145 -135 145 -245c0 -206 -194 -333 -407 -333c-35 0 -70 4 -116 12c-86 -21 -129 -62 -129 -118c0 -66 59 -100 170 -100h195c236 0 368 -94 368 -268c0 -211 -220 -352 -486 -352c-280 0 -461 100 -461 252c0 108 100 190 296 217
c-137 2 -238 68 -238 174c0 104 91 176 237 209c-147 36 -254 140 -254 299zM300 670c0 -168 89 -275 220 -275c126 0 211 105 211 266c0 164 -81 277 -220 277c-131 0 -211 -107 -211 -268zM232 -217c0 -120 107 -208 294 -208c191 0 321 87 321 221
c0 106 -70 169 -235 169h-207c-116 -18 -173 -87 -173 -182z" />
    <glyph glyph-name="Hcircumflex" unicode="&#x124;" horiz-adv-x="1584" 
d="M601 1547h-56l205 272h107l205 -272h-59l-200 147zM428 167c0 -86 20 -104 145 -120v-47h-513v47c134 16 152 37 152 125v1100c0 89 -18 109 -152 125v47h513v-48c-125 -16 -145 -34 -145 -119v-508h728v508c0 86 -18 104 -145 120v47h513v-47
c-131 -16 -152 -36 -152 -125v-1100c0 -88 21 -109 152 -125v-47h-513v47c127 16 145 34 145 120v543h-728v-543z" />
    <glyph glyph-name="hcircumflex" unicode="&#x125;" horiz-adv-x="1205" 
d="M66 1573h-56l205 271h107l205 -271h-59l-200 147zM380 1482v-654c57 99 173 168 320 168c198 0 335 -104 335 -308v-544c0 -66 15 -82 129 -97v-47h-447v47c107 13 121 29 121 92v504c0 167 -86 251 -229 251c-109 0 -188 -48 -229 -117v-638c0 -63 13 -78 121 -92v-47
h-447v47c112 15 129 31 129 97v1159c0 53 -8 65 -64 82l-65 18v41z" />
    <glyph glyph-name="Hstroke" unicode="&#x126;" horiz-adv-x="1584" 
d="M428 167c0 -86 20 -104 145 -120v-47h-513v47c134 16 152 37 152 125v908h-152v61h152v131c0 89 -18 109 -152 125v47h513v-48c-125 -16 -145 -34 -145 -119v-136h728v136c0 86 -18 104 -145 120v47h513v-47c-131 -16 -152 -36 -152 -125v-131h152v-61h-152v-908
c0 -88 21 -109 152 -125v-47h-513v47c127 16 145 34 145 120v542h-728v-542zM428 769h728v311h-728v-311z" />
    <glyph glyph-name="hstroke" unicode="&#x127;" horiz-adv-x="1205" 
d="M501 47v-47h-447v47c112 15 129 31 129 97v1072h-129v60h129v187l197 19v-206h261v-60h-261v-388c57 99 173 168 320 168c198 0 335 -104 335 -308v-544c0 -66 15 -82 129 -97v-47h-447v47c107 13 121 29 121 92v504c0 167 -86 251 -229 251c-109 0 -188 -48 -229 -117
v-638c0 -63 13 -78 121 -92z" />
    <glyph glyph-name="Itilde" unicode="&#x128;" horiz-adv-x="640" 
d="M428 1568c-51 0 -91 23 -138 57l-29 21c-32 23 -54 36 -82 36c-38 0 -62 -29 -67 -121h-53c-3 174 66 237 152 237c52 0 92 -23 139 -57l29 -21c32 -23 54 -35 82 -35c38 0 62 28 67 120h52c4 -174 -65 -237 -152 -237zM428 172c0 -88 19 -109 152 -125v-47h-520v47
c134 16 152 37 152 125v1100c0 89 -18 109 -152 125v47h520v-47c-133 -16 -152 -36 -152 -125v-1100z" />
    <glyph glyph-name="itilde" unicode="&#x129;" horiz-adv-x="554" 
d="M364 1171c-48 0 -86 24 -131 61l-27 24c-29 25 -51 38 -77 38c-36 0 -58 -31 -62 -130h-48c-4 185 61 252 141 252c49 0 86 -24 131 -61l27 -23c29 -26 51 -39 77 -39c36 0 58 31 62 130h48c4 -185 -61 -252 -141 -252zM380 988v-844c0 -66 17 -82 129 -97v-47h-455v47
c112 15 129 31 129 97v666c0 53 -8 65 -64 81l-65 19v41z" />
    <glyph glyph-name="Imacron" unicode="&#x12a;" horiz-adv-x="640" 
d="M76 1611v108h489v-108h-489zM428 172c0 -88 19 -109 152 -125v-47h-520v47c134 16 152 37 152 125v1100c0 89 -18 109 -152 125v47h520v-47c-133 -16 -152 -36 -152 -125v-1100z" />
    <glyph glyph-name="imacron" unicode="&#x12b;" horiz-adv-x="554" 
d="M45 1219v123h434v-123h-434zM380 988v-844c0 -66 17 -82 129 -97v-47h-455v47c112 15 129 31 129 97v666c0 53 -8 65 -64 81l-65 19v41z" />
    <glyph glyph-name="Ibreve" unicode="&#x12c;" horiz-adv-x="640" 
d="M320 1592c-155 0 -244 120 -244 241c0 15 1 31 3 45h47v-6c0 -92 76 -160 193 -160c118 0 194 68 194 160v6h47c2 -14 3 -30 3 -45c0 -121 -88 -241 -243 -241zM428 172c0 -88 19 -109 152 -125v-47h-520v47c134 16 152 37 152 125v1100c0 89 -18 109 -152 125v47h520
v-47c-133 -16 -152 -36 -152 -125v-1100z" />
    <glyph glyph-name="ibreve" unicode="&#x12d;" horiz-adv-x="554" 
d="M262 1142c-159 0 -247 136 -247 274c0 17 1 34 4 51h48v-8c0 -102 76 -177 195 -177s195 75 195 177v8h48c3 -17 4 -34 4 -51c0 -138 -88 -274 -247 -274zM380 988v-844c0 -66 17 -82 129 -97v-47h-455v47c112 15 129 31 129 97v666c0 53 -8 65 -64 81l-65 19v41z" />
    <glyph glyph-name="Iogonek" unicode="&#x12e;" horiz-adv-x="640" 
d="M428 172c0 -88 19 -109 152 -125v-47h-222c-33 -45 -53 -116 -53 -192c0 -108 55 -190 129 -190c35 0 65 14 82 33v-47c-28 -50 -95 -86 -173 -86c-107 0 -191 73 -191 186c0 106 64 211 160 296h-252v47c134 16 152 37 152 125v1100c0 89 -18 109 -152 125v47h520v-47
c-133 -16 -152 -36 -152 -125v-1100z" />
    <glyph glyph-name="iogonek" unicode="&#x12f;" horiz-adv-x="554" 
d="M262 1183c-63 0 -115 50 -115 113c0 61 52 112 115 112s115 -51 115 -112c0 -63 -52 -113 -115 -113zM298 -482c-98 0 -186 70 -186 185c0 102 60 205 159 297h-217v47c112 15 129 31 129 97v666c0 53 -8 65 -64 81l-65 19v41l326 37v-844c0 -66 17 -82 129 -97v-47h-192
c-30 -53 -48 -118 -48 -184c0 -121 55 -200 128 -200c36 0 66 12 83 31l1 -46c-32 -47 -100 -83 -183 -83z" />
    <glyph glyph-name="Idotaccent" unicode="&#x130;" horiz-adv-x="640" 
d="M320 1588c-55 0 -98 43 -98 95c0 53 43 95 98 95c54 0 98 -42 98 -95c0 -52 -44 -95 -98 -95zM428 172c0 -88 19 -109 152 -125v-47h-520v47c134 16 152 37 152 125v1100c0 89 -18 109 -152 125v47h520v-47c-133 -16 -152 -36 -152 -125v-1100z" />
    <glyph glyph-name="dotlessi" unicode="&#x131;" horiz-adv-x="554" 
d="M380 988v-844c0 -66 17 -82 129 -97v-47h-455v47c112 15 129 31 129 97v666c0 53 -8 65 -64 81l-65 19v41z" />
    <glyph glyph-name="IJ" unicode="&#x132;" horiz-adv-x="1280" 
d="M428 172c0 -88 19 -109 152 -125v-47h-520v47c134 16 152 37 152 125v1100c0 89 -18 109 -152 125v47h520v-47c-133 -16 -152 -36 -152 -125v-1100zM1067 248c0 -343 -172 -492 -479 -650l-23 41c214 142 286 303 286 635v998c0 89 -18 109 -151 125v47h519v-47
c-133 -16 -152 -36 -152 -125v-1024z" />
    <glyph glyph-name="ij" unicode="&#x133;" horiz-adv-x="1086" 
d="M262 1175c-67 0 -121 52 -121 117c0 66 54 117 121 117s121 -51 121 -117c0 -65 -54 -117 -121 -117zM806 1175c-67 0 -121 52 -121 117c0 66 54 117 121 117s120 -51 120 -117c0 -65 -53 -117 -120 -117zM380 988v-844c0 -66 17 -82 129 -97v-47h-455v47
c112 15 129 31 129 97v666c0 53 -8 65 -64 81l-65 19v41zM924 988v-832c0 -299 -72 -419 -310 -592l-56 -41l-30 40c161 137 199 286 199 576v671c0 53 -8 65 -64 81l-65 19v41z" />
    <glyph glyph-name="Jcircumflex" unicode="&#x134;" horiz-adv-x="640" 
d="M127 1547h-56l205 272h108l204 -272h-59l-200 147zM428 248c0 -343 -173 -492 -479 -650l-24 41c214 142 287 303 287 635v998c0 89 -18 109 -152 125v47h520v-47c-133 -16 -152 -36 -152 -125v-1024z" />
    <glyph glyph-name="jcircumflex" unicode="&#x135;" horiz-adv-x="532" 
d="M33 1111h-59l227 356h102l227 -356h-61l-216 197zM370 988v-832c0 -299 -71 -419 -310 -592l-56 -41l-30 40c161 137 199 286 199 576v671c0 53 -8 65 -63 81l-66 19v41z" />
    <glyph glyph-name="Kcommaaccent" unicode="&#x136;" horiz-adv-x="1341" 
d="M428 167c0 -86 20 -104 145 -120v-47h-513v47c134 16 152 37 152 125v1100c0 89 -18 109 -152 125v47h513v-48c-125 -16 -145 -34 -145 -119v-498l155 1l339 406c125 151 121 198 -28 211v47h432v-47c-106 -22 -183 -79 -339 -247c-87 -92 -175 -190 -252 -279l350 -549
c130 -202 185 -257 260 -279v-43h-303l-459 723l-155 1v-557zM729 -462c-83 0 -155 33 -187 74v46c33 -24 81 -41 138 -41c65 0 113 30 113 83c0 50 -48 81 -112 81c-33 0 -66 -8 -83 -17v44c26 35 81 68 157 68c114 0 194 -65 194 -168c0 -102 -88 -170 -220 -170z" />
    <glyph glyph-name="kcommaaccent" unicode="&#x137;" horiz-adv-x="1082" 
d="M817 0l-309 506l-128 1v-368c0 -63 13 -78 121 -92v-47h-447v47c112 15 129 31 129 97v1159c0 53 -8 65 -64 82l-65 18v41l326 38v-918l127 2l205 226c83 91 72 121 -46 139v47h385v-47c-101 -20 -146 -45 -299 -187l-111 -104l257 -419c77 -125 125 -164 192 -178v-43
h-273zM601 -462c-83 0 -155 33 -187 74v46c33 -24 81 -41 138 -41c65 0 113 30 113 83c0 50 -48 81 -111 81c-34 0 -67 -8 -84 -17v44c26 35 81 68 157 68c114 0 194 -65 194 -168c0 -102 -88 -170 -220 -170z" />
    <glyph glyph-name="Lacute" unicode="&#x139;" horiz-adv-x="1133" 
d="M284 1547l-59 1l146 271h210v-6zM1070 0h-1010v47c134 16 152 37 152 125v1100c0 89 -18 109 -152 125v47h533v-47c-146 -16 -165 -41 -165 -138v-1205l201 8c265 10 353 61 416 345h43z" />
    <glyph glyph-name="lacute" unicode="&#x13a;" horiz-adv-x="555" 
d="M223 1547l-58 1l145 271h211v-6zM380 1482v-1338c0 -66 17 -82 129 -97v-47h-455v47c112 15 129 31 129 97v1159c0 53 -8 65 -64 82l-65 18v41z" />
    <glyph glyph-name="Lcommaaccent" unicode="&#x13b;" horiz-adv-x="1133" 
d="M1070 0h-1010v47c134 16 152 37 152 125v1100c0 89 -18 109 -152 125v47h533v-47c-146 -16 -165 -41 -165 -138v-1205l201 8c265 10 353 61 416 345h43zM581 -462c-83 0 -155 33 -187 74v46c33 -24 81 -41 138 -41c65 0 113 30 113 83c0 50 -48 81 -111 81
c-34 0 -67 -8 -84 -17v44c26 35 81 68 158 68c113 0 193 -65 193 -168c0 -102 -88 -170 -220 -170z" />
    <glyph glyph-name="lcommaaccent" unicode="&#x13c;" horiz-adv-x="555" 
d="M380 1482v-1338c0 -66 17 -82 129 -97v-47h-455v47c112 15 129 31 129 97v1159c0 53 -8 65 -64 82l-65 18v41zM274 -462c-83 0 -155 33 -188 74v46c34 -24 82 -41 138 -41c66 0 114 30 114 83c0 50 -48 81 -112 81c-33 0 -66 -8 -83 -17v44c26 35 81 68 157 68
c114 0 194 -65 194 -168c0 -102 -88 -170 -220 -170z" />
    <glyph glyph-name="Lcaron" unicode="&#x13d;" horiz-adv-x="1133" 
d="M829 1107h-44l44 407h171zM1070 0h-1010v47c134 16 152 37 152 125v1100c0 89 -18 109 -152 125v47h533v-47c-146 -16 -165 -41 -165 -138v-1205l201 8c265 10 353 61 416 345h43z" />
    <glyph glyph-name="lcaron" unicode="&#x13e;" horiz-adv-x="555" 
d="M567 1076h-44l43 407h171zM380 1482v-1338c0 -66 17 -82 129 -97v-47h-455v47c112 15 129 31 129 97v1159c0 53 -8 65 -64 82l-65 18v41z" />
    <glyph glyph-name="Ldot" unicode="&#x13f;" horiz-adv-x="1133" 
d="M1070 0h-1010v47c134 16 152 37 152 125v1100c0 89 -18 109 -152 125v47h533v-47c-146 -16 -165 -41 -165 -138v-1205l201 8c265 10 353 61 416 345h43zM835 708c-64 0 -115 49 -115 111c0 63 51 112 115 112s115 -49 115 -112c0 -62 -51 -111 -115 -111z" />
    <glyph glyph-name="ldot" unicode="&#x140;" horiz-adv-x="686" 
d="M380 1482v-1338c0 -66 17 -82 129 -97v-47h-455v47c112 15 129 31 129 97v1159c0 53 -8 65 -64 82l-65 18v41zM621 616c-61 0 -109 47 -109 106s48 106 109 106c60 0 108 -47 108 -106s-48 -106 -108 -106z" />
    <glyph glyph-name="Lstroke" unicode="&#x141;" horiz-adv-x="1133" 
d="M60 623v65l152 47v537c0 89 -18 109 -152 125v47h533v-47c-146 -16 -165 -41 -165 -138v-458l361 110v-65l-361 -111v-681l201 8c265 10 353 61 416 345h43l-18 -407h-1010v47c134 16 152 37 152 125v497z" />
    <glyph glyph-name="lstroke" unicode="&#x142;" horiz-adv-x="555" 
d="M54 717v66l129 47v473c0 53 -8 65 -64 82l-65 18v41l326 38v-579l135 51v-66l-135 -50v-694c0 -66 17 -82 129 -97v-47h-455v47c112 15 129 31 129 97v621z" />
    <glyph glyph-name="Nacute" unicode="&#x143;" horiz-adv-x="1486" 
d="M725 1547l-58 1l145 271h211v-6zM404 1444l830 -1201l-20 956c-2 151 -20 183 -160 198v47h405v-47c-136 -18 -153 -51 -155 -198l-8 -1199h-160l-886 1280l19 -1034c2 -152 21 -184 160 -199v-47h-405v47c136 18 154 51 155 198l8 996c0 107 -25 136 -144 156v47h361z
" />
    <glyph glyph-name="nacute" unicode="&#x144;" horiz-adv-x="1205" 
d="M561 1111h-59l164 356h211v-9zM377 988v-164c56 100 174 172 323 172c198 0 335 -104 335 -308v-544c0 -66 15 -82 129 -97v-47h-447v47c107 13 121 29 121 92v504c0 167 -86 251 -229 251c-109 0 -188 -48 -229 -117v-638c0 -63 13 -78 121 -92v-47h-447v47
c112 15 129 31 129 97v666c0 53 -8 65 -64 81l-65 19v41z" />
    <glyph glyph-name="Ncommaaccent" unicode="&#x145;" horiz-adv-x="1486" 
d="M404 1444l830 -1201l-20 956c-2 151 -20 183 -160 198v47h405v-47c-136 -18 -153 -51 -155 -198l-8 -1199h-160l-886 1280l19 -1034c2 -152 21 -184 160 -199v-47h-405v47c136 18 154 51 155 198l8 996c0 107 -25 136 -144 156v47h361zM735 -462c-83 0 -156 33 -188 74
v46c33 -24 82 -41 138 -41c65 0 114 30 114 83c0 50 -49 81 -112 81c-33 0 -66 -8 -84 -17v44c27 35 82 68 158 68c113 0 194 -65 194 -168c0 -102 -89 -170 -220 -170z" />
    <glyph glyph-name="ncommaaccent" unicode="&#x146;" horiz-adv-x="1205" 
d="M377 988v-164c56 100 174 172 323 172c198 0 335 -104 335 -308v-544c0 -66 15 -82 129 -97v-47h-447v47c107 13 121 29 121 92v504c0 167 -86 251 -229 251c-109 0 -188 -48 -229 -117v-638c0 -63 13 -78 121 -92v-47h-447v47c112 15 129 31 129 97v666
c0 53 -8 65 -64 81l-65 19v41zM602 -462c-83 0 -156 33 -188 74v46c34 -24 82 -41 138 -41c66 0 114 30 114 83c0 50 -49 81 -112 81c-33 0 -66 -8 -83 -17v44c26 35 81 68 157 68c114 0 194 -65 194 -168c0 -102 -88 -170 -220 -170z" />
    <glyph glyph-name="Ncaron" unicode="&#x147;" horiz-adv-x="1486" 
d="M975 1831h56l-205 -272h-108l-205 272h60l200 -147zM404 1444l830 -1201l-20 956c-2 151 -20 183 -160 198v47h405v-47c-136 -18 -153 -51 -155 -198l-8 -1199h-160l-886 1280l19 -1034c2 -152 21 -184 160 -199v-47h-405v47c136 18 154 51 155 198l8 996
c0 107 -25 136 -144 156v47h361z" />
    <glyph glyph-name="ncaron" unicode="&#x148;" horiz-adv-x="1205" 
d="M828 1482h59l-227 -355h-102l-227 355h61l216 -197zM377 988v-164c56 100 174 172 323 172c198 0 335 -104 335 -308v-544c0 -66 15 -82 129 -97v-47h-447v47c107 13 121 29 121 92v504c0 167 -86 251 -229 251c-109 0 -188 -48 -229 -117v-638c0 -63 13 -78 121 -92v-47
h-447v47c112 15 129 31 129 97v666c0 53 -8 65 -64 81l-65 19v41z" />
    <glyph glyph-name="Omacron" unicode="&#x14c;" horiz-adv-x="1640" 
d="M569 1611v108h489v-108h-489zM99 722c0 413 284 746 721 746c366 0 722 -282 722 -745c0 -413 -285 -747 -722 -747c-366 0 -721 283 -721 746zM340 739c0 -387 189 -695 492 -695c333 0 468 292 468 662c0 387 -188 694 -491 694c-333 0 -469 -291 -469 -661z" />
    <glyph glyph-name="omacron" unicode="&#x14d;" horiz-adv-x="1182" 
d="M319 1219v123h542v-123h-542zM586 -19c-277 0 -494 202 -494 505c0 301 220 510 504 510c278 0 495 -202 495 -504c0 -301 -222 -511 -505 -511zM596 46c175 0 279 169 279 432c0 273 -119 454 -289 454c-175 0 -279 -169 -279 -432c0 -273 118 -454 289 -454z" />
    <glyph glyph-name="Obreve" unicode="&#x14e;" horiz-adv-x="1640" 
d="M813 1592c-155 0 -244 120 -244 241c0 15 1 31 3 45h48v-6c0 -92 75 -160 193 -160s193 68 193 160v6h48c2 -14 3 -30 3 -45c0 -121 -88 -241 -244 -241zM99 722c0 413 284 746 721 746c366 0 722 -282 722 -745c0 -413 -285 -747 -722 -747c-366 0 -721 283 -721 746z
M340 739c0 -387 189 -695 492 -695c333 0 468 292 468 662c0 387 -188 694 -491 694c-333 0 -469 -291 -469 -661z" />
    <glyph glyph-name="obreve" unicode="&#x14f;" horiz-adv-x="1182" 
d="M590 1142c-176 0 -274 136 -274 274c0 17 1 34 4 51h53v-8c0 -102 85 -177 217 -177s217 75 217 177v8h53c3 -17 4 -34 4 -51c0 -138 -98 -274 -274 -274zM586 -19c-277 0 -494 202 -494 505c0 301 220 510 504 510c278 0 495 -202 495 -504c0 -301 -222 -511 -505 -511z
M596 46c175 0 279 169 279 432c0 273 -119 454 -289 454c-175 0 -279 -169 -279 -432c0 -273 118 -454 289 -454z" />
    <glyph glyph-name="Ohungarumlaut" unicode="&#x150;" horiz-adv-x="1640" 
d="M718 1819h178v-6l-200 -266h-58zM1038 1819h189v-6l-272 -266h-60zM99 722c0 413 284 746 721 746c366 0 722 -282 722 -745c0 -413 -285 -747 -722 -747c-366 0 -721 283 -721 746zM340 739c0 -387 189 -695 492 -695c333 0 468 292 468 662c0 387 -188 694 -491 694
c-333 0 -469 -291 -469 -661z" />
    <glyph glyph-name="ohungarumlaut" unicode="&#x151;" horiz-adv-x="1182" 
d="M492 1467h181v-9l-220 -347h-59zM837 1467h191v-9l-293 -347h-60zM586 -19c-277 0 -494 202 -494 505c0 301 220 510 504 510c278 0 495 -202 495 -504c0 -301 -222 -511 -505 -511zM596 46c175 0 279 169 279 432c0 273 -119 454 -289 454c-175 0 -279 -169 -279 -432
c0 -273 118 -454 289 -454z" />
    <glyph glyph-name="OE" unicode="&#x152;" horiz-adv-x="2041" 
d="M99 715c0 423 293 753 738 753c155 0 212 -24 388 -24h683l14 -347h-42c-53 221 -138 274 -403 284l-236 9v-623l287 4c104 3 128 42 160 201h40v-464h-40c-28 156 -53 198 -160 201l-287 4v-659l262 10c297 12 373 56 426 324h42l-17 -388h-729
c-146 0 -240 -24 -394 -24c-414 0 -732 321 -732 739zM339 728c0 -392 190 -687 508 -687c64 0 128 9 178 29v1299c-47 24 -109 34 -177 34c-338 0 -509 -293 -509 -675z" />
    <glyph glyph-name="oe" unicode="&#x153;" horiz-adv-x="1827" 
d="M588 -19c-289 0 -496 203 -496 509c0 296 221 506 497 506c163 0 299 -69 384 -189c79 117 205 189 362 189c257 0 405 -164 405 -408c0 -21 -1 -43 -4 -58h-662c8 -266 159 -447 387 -447c109 0 199 40 258 98v-47c-66 -85 -196 -153 -362 -153c-164 0 -302 71 -386 193
c-88 -121 -227 -193 -383 -193zM598 46c178 0 277 158 277 427c0 273 -114 459 -292 459s-277 -159 -277 -429c0 -273 115 -457 292 -457zM1333 932c-151 0 -251 -120 -259 -347l476 2c0 10 1 20 1 32c0 186 -74 313 -218 313z" />
    <glyph glyph-name="Racute" unicode="&#x154;" horiz-adv-x="1316" 
d="M578 1547l-58 1l145 271h211v-6zM1161 1057c0 -177 -124 -305 -297 -348l204 -388c122 -225 169 -261 229 -278v-43h-284l-350 659h-235v-492c0 -84 20 -102 145 -120v-47h-513v47c134 19 152 38 152 125v1100c0 91 -18 110 -152 125v47h529c377 0 572 -148 572 -387z
M940 1041c0 198 -116 336 -400 345l-112 4v-677l141 5c235 6 371 114 371 323z" />
    <glyph glyph-name="racute" unicode="&#x155;" horiz-adv-x="805" 
d="M386 1111h-59l164 356h211v-9zM377 988v-210c118 143 202 214 287 214c74 0 103 -47 103 -101c0 -28 -9 -56 -19 -70c-20 6 -59 10 -99 10c-104 0 -218 -36 -269 -92v-586c0 -76 15 -91 141 -106v-47h-467v47c114 14 129 30 129 94v669c0 53 -8 65 -64 81l-65 19v41z" />
    <glyph glyph-name="Rcommaaccent" unicode="&#x156;" horiz-adv-x="1316" 
d="M1161 1057c0 -177 -124 -305 -297 -348l204 -388c122 -225 169 -261 229 -278v-43h-284l-350 659h-235v-492c0 -84 20 -102 145 -120v-47h-513v47c134 19 152 38 152 125v1100c0 91 -18 110 -152 125v47h529c377 0 572 -148 572 -387zM940 1041c0 198 -116 336 -400 345
l-112 4v-677l141 5c235 6 371 114 371 323zM675 -462c-83 0 -156 33 -188 74v46c33 -24 82 -41 138 -41c65 0 114 30 114 83c0 50 -49 81 -112 81c-34 0 -66 -8 -84 -17v44c27 35 82 68 158 68c113 0 194 -65 194 -168c0 -102 -89 -170 -220 -170z" />
    <glyph glyph-name="rcommaaccent" unicode="&#x157;" horiz-adv-x="805" 
d="M377 988v-210c118 143 202 214 287 214c74 0 103 -47 103 -101c0 -28 -9 -56 -19 -70c-20 6 -59 10 -99 10c-104 0 -218 -36 -269 -92v-586c0 -76 15 -91 141 -106v-47h-467v47c114 14 129 30 129 94v669c0 53 -8 65 -64 81l-65 19v41zM278 -462c-83 0 -155 33 -187 74
v46c33 -24 81 -41 138 -41c65 0 113 30 113 83c0 50 -48 81 -111 81c-34 0 -67 -8 -84 -17v44c26 35 81 68 157 68c114 0 194 -65 194 -168c0 -102 -88 -170 -220 -170z" />
    <glyph glyph-name="Rcaron" unicode="&#x158;" horiz-adv-x="1316" 
d="M828 1831h56l-205 -272h-108l-205 272h60l200 -147zM1161 1057c0 -177 -124 -305 -297 -348l204 -388c122 -225 169 -261 229 -278v-43h-284l-350 659h-235v-492c0 -84 20 -102 145 -120v-47h-513v47c134 19 152 38 152 125v1100c0 91 -18 110 -152 125v47h529
c377 0 572 -148 572 -387zM940 1041c0 198 -116 336 -400 345l-112 4v-677l141 5c235 6 371 114 371 323z" />
    <glyph glyph-name="rcaron" unicode="&#x159;" horiz-adv-x="805" 
d="M653 1482h59l-227 -355h-102l-227 355h61l216 -197zM377 988v-210c118 143 202 214 287 214c74 0 103 -47 103 -101c0 -28 -9 -56 -19 -70c-20 6 -59 10 -99 10c-104 0 -218 -36 -269 -92v-586c0 -76 15 -91 141 -106v-47h-467v47c114 14 129 30 129 94v669
c0 53 -8 65 -64 81l-65 19v41z" />
    <glyph glyph-name="Sacute" unicode="&#x15a;" horiz-adv-x="1151" 
d="M556 1547l-58 1l145 271h210v-6zM557 -24c-202 0 -360 53 -446 115l-14 319h43c56 -248 222 -366 422 -366c184 0 308 108 308 272c0 149 -93 240 -292 313l-101 36c-237 85 -364 217 -364 415c0 245 205 388 488 388c174 0 308 -46 376 -99l13 -306h-43
c-50 225 -174 337 -352 337c-192 0 -296 -100 -296 -247c0 -150 105 -230 292 -298l99 -36c245 -90 365 -222 365 -425c0 -251 -225 -418 -498 -418z" />
    <glyph glyph-name="sacute" unicode="&#x15b;" horiz-adv-x="911" 
d="M410 1111h-59l164 356h211v-9zM101 717c0 178 157 279 371 279c144 0 251 -31 301 -65l6 -247h-44c-29 162 -132 248 -262 248c-126 0 -204 -63 -204 -157s72 -138 197 -177l77 -23c176 -53 279 -145 279 -304c0 -180 -181 -288 -377 -288c-148 0 -276 36 -343 83
l-10 262h43c38 -185 171 -280 309 -280c128 0 210 71 210 168c0 94 -57 146 -192 187l-77 24c-177 55 -284 140 -284 290z" />
    <glyph glyph-name="Scircumflex" unicode="&#x15c;" horiz-adv-x="1151" 
d="M402 1547h-56l205 272h107l205 -272h-59l-200 147zM557 -24c-202 0 -360 53 -446 115l-14 319h43c56 -248 222 -366 422 -366c184 0 308 108 308 272c0 149 -93 240 -292 313l-101 36c-237 85 -364 217 -364 415c0 245 205 388 488 388c174 0 308 -46 376 -99l13 -306
h-43c-50 225 -174 337 -352 337c-192 0 -296 -100 -296 -247c0 -150 105 -230 292 -298l99 -36c245 -90 365 -222 365 -425c0 -251 -225 -418 -498 -418z" />
    <glyph glyph-name="scircumflex" unicode="&#x15d;" horiz-adv-x="911" 
d="M239 1111h-59l227 356h102l227 -356h-60l-217 197zM101 717c0 178 157 279 371 279c144 0 251 -31 301 -65l6 -247h-44c-29 162 -132 248 -262 248c-126 0 -204 -63 -204 -157s72 -138 197 -177l77 -23c176 -53 279 -145 279 -304c0 -180 -181 -288 -377 -288
c-148 0 -276 36 -343 83l-10 262h43c38 -185 171 -280 309 -280c128 0 210 71 210 168c0 94 -57 146 -192 187l-77 24c-177 55 -284 140 -284 290z" />
    <glyph glyph-name="Scedilla" unicode="&#x15e;" horiz-adv-x="1151" 
d="M542 -461c-84 0 -156 32 -192 80v46c29 -24 79 -41 129 -41c60 0 108 30 108 83c0 56 -51 86 -118 86c-19 0 -38 -3 -46 -7v42l110 149c-191 3 -339 54 -422 114l-14 319h43c56 -248 222 -366 422 -366c184 0 308 108 308 272c0 149 -93 240 -292 313l-101 36
c-237 85 -364 217 -364 415c0 245 205 388 488 388c174 0 308 -46 376 -99l13 -306h-43c-50 225 -174 337 -352 337c-192 0 -296 -100 -296 -247c0 -150 105 -230 292 -298l99 -36c245 -90 365 -222 365 -425c0 -239 -204 -402 -460 -417l-72 -102c10 2 21 3 32 3
c110 0 196 -63 196 -168c0 -110 -104 -171 -209 -171z" />
    <glyph glyph-name="scedilla" unicode="&#x15f;" horiz-adv-x="911" 
d="M422 -461c-84 0 -155 32 -191 80v46c29 -24 78 -41 128 -41c61 0 109 30 109 83c0 56 -52 86 -118 86c-19 0 -38 -3 -47 -7v42l116 156c-137 4 -254 38 -317 82l-10 262h43c38 -185 171 -280 309 -280c128 0 210 71 210 168c0 94 -57 146 -192 187l-77 24
c-177 55 -284 140 -284 290c0 178 157 279 371 279c144 0 251 -31 301 -65l6 -247h-44c-29 162 -132 248 -262 248c-126 0 -204 -63 -204 -157s72 -138 197 -177l77 -23c176 -53 279 -145 279 -304c0 -169 -160 -274 -342 -286l-76 -110c10 2 21 3 32 3
c110 0 195 -63 195 -168c0 -110 -104 -171 -209 -171z" />
    <glyph glyph-name="Scaron" unicode="&#x160;" horiz-adv-x="1151" 
d="M805 1831h56l-205 -272h-107l-205 272h59l200 -147zM557 -24c-202 0 -360 53 -446 115l-14 319h43c56 -248 222 -366 422 -366c184 0 308 108 308 272c0 149 -93 240 -292 313l-101 36c-237 85 -364 217 -364 415c0 245 205 388 488 388c174 0 308 -46 376 -99l13 -306
h-43c-50 225 -174 337 -352 337c-192 0 -296 -100 -296 -247c0 -150 105 -230 292 -298l99 -36c245 -90 365 -222 365 -425c0 -251 -225 -418 -498 -418z" />
    <glyph glyph-name="scaron" unicode="&#x161;" horiz-adv-x="911" 
d="M677 1482h59l-227 -355h-102l-227 355h61l216 -197zM101 717c0 178 157 279 371 279c144 0 251 -31 301 -65l6 -247h-44c-29 162 -132 248 -262 248c-126 0 -204 -63 -204 -157s72 -138 197 -177l77 -23c176 -53 279 -145 279 -304c0 -180 -181 -288 -377 -288
c-148 0 -276 36 -343 83l-10 262h43c38 -185 171 -280 309 -280c128 0 210 71 210 168c0 94 -57 146 -192 187l-77 24c-177 55 -284 140 -284 290z" />
    <glyph glyph-name="Tcedilla" unicode="&#x162;" horiz-adv-x="1311" 
d="M632 -461c-83 0 -155 32 -192 80l1 46c29 -24 78 -41 128 -41c61 0 108 30 108 83c0 56 -52 86 -118 86c-19 0 -38 -3 -46 -7v42l123 172h-253v47c145 16 164 42 164 139v1204l-59 -3c-273 -13 -354 -60 -399 -290h-43l14 347h1191l14 -347h-43
c-44 229 -125 277 -399 290l-60 3v-1204c0 -97 20 -123 166 -139v-47h-231l-85 -125c10 2 21 3 33 3c109 0 195 -64 195 -168c0 -110 -104 -171 -209 -171z" />
    <glyph glyph-name="tcedilla" unicode="&#x163;" horiz-adv-x="678" 
d="M170 269v631h-128v32l303 238h22v-202l280 10v-78l-280 8v-625c0 -153 71 -203 166 -203c50 0 98 16 129 43v-47c-33 -46 -109 -87 -203 -94l-75 -107c10 2 21 3 32 3c110 0 196 -63 196 -168c0 -110 -104 -171 -210 -171c-84 0 -155 32 -191 80v46
c29 -24 78 -41 128 -41c61 0 109 30 109 83c0 56 -52 86 -118 86c-19 0 -38 -3 -46 -7v42l113 154c-129 12 -227 96 -227 287z" />
    <glyph glyph-name="Tcaron" unicode="&#x164;" horiz-adv-x="1311" 
d="M866 1831h56l-205 -272h-107l-205 272h59l200 -147zM1251 1444l14 -347h-43c-44 229 -125 277 -399 290l-60 3v-1204c0 -97 20 -123 166 -139v-47h-546v47c145 16 164 42 164 139v1204l-59 -3c-273 -13 -354 -60 -399 -290h-43l14 347h1191z" />
    <glyph glyph-name="tcaron" unicode="&#x165;" horiz-adv-x="678" 
d="M567 1076h-44l43 407h172zM170 269v631h-128v32l303 238h22v-202l280 10v-78l-280 8v-625c0 -153 71 -203 166 -203c50 0 98 16 129 43v-47c-37 -50 -125 -95 -232 -95c-145 0 -260 81 -260 288z" />
    <glyph glyph-name="Tstroke" unicode="&#x166;" horiz-adv-x="1311" 
d="M272 710v60h275v620l-59 -3c-273 -13 -354 -60 -399 -290h-43l14 347h1191l14 -347h-43c-44 229 -125 277 -399 290l-60 3v-620h276v-60h-276v-524c0 -97 20 -123 166 -139v-47h-546v47c145 16 164 42 164 139v524h-275z" />
    <glyph glyph-name="tstroke" unicode="&#x167;" horiz-adv-x="678" 
d="M170 269v234h-114v60h114v337h-128v32l303 238h22v-202l280 10v-78l-280 8v-345h295v-60h-295v-221c0 -152 71 -202 166 -202c51 0 98 16 129 43v-47c-37 -50 -125 -95 -232 -95c-145 0 -260 81 -260 288z" />
    <glyph glyph-name="Utilde" unicode="&#x168;" horiz-adv-x="1493" 
d="M915 1568c-51 0 -91 23 -138 57l-29 21c-32 23 -55 36 -82 36c-39 0 -62 -29 -67 -121h-53c-3 174 66 237 152 237c52 0 91 -23 139 -57l29 -21c32 -23 54 -35 82 -35c38 0 61 28 67 120h52c4 -174 -65 -237 -152 -237zM177 1277c0 86 -20 104 -145 120v47h513v-47
c-134 -16 -152 -36 -152 -125v-712c0 -333 180 -488 424 -488c257 0 424 177 420 487l-7 641c-2 148 -20 180 -161 197v47h400v-48c-130 -15 -149 -49 -152 -195l-7 -654c-4 -347 -206 -571 -565 -571c-291 0 -568 168 -568 576v725z" />
    <glyph glyph-name="utilde" unicode="&#x169;" horiz-adv-x="1177" 
d="M695 1171c-54 0 -95 24 -145 61l-30 24c-33 25 -57 38 -86 38c-41 0 -65 -31 -69 -130h-53c-5 185 67 252 156 252c55 0 96 -24 146 -61l30 -23c33 -26 56 -39 85 -39c41 0 65 31 70 130h53c4 -185 -68 -252 -157 -252zM358 988v-649c0 -170 82 -256 228 -256
c103 0 179 49 220 117v610c0 53 -7 65 -63 81l-66 19v41l326 37v-818c0 -54 8 -66 64 -83l65 -17v-41l-324 -39v164c-56 -101 -170 -173 -318 -173c-194 0 -330 105 -330 313v516c0 53 -8 65 -63 81l-65 19v41z" />
    <glyph glyph-name="Umacron" unicode="&#x16a;" horiz-adv-x="1493" 
d="M563 1611v108h488v-108h-488zM177 1277c0 86 -20 104 -145 120v47h513v-47c-134 -16 -152 -36 -152 -125v-712c0 -333 180 -488 424 -488c257 0 424 177 420 487l-7 641c-2 148 -20 180 -161 197v47h400v-48c-130 -15 -149 -49 -152 -195l-7 -654
c-4 -347 -206 -571 -565 -571c-291 0 -568 168 -568 576v725z" />
    <glyph glyph-name="umacron" unicode="&#x16b;" horiz-adv-x="1177" 
d="M311 1219v123h542v-123h-542zM358 988v-649c0 -170 82 -256 228 -256c103 0 179 49 220 117v610c0 53 -7 65 -63 81l-66 19v41l326 37v-818c0 -54 8 -66 64 -83l65 -17v-41l-324 -39v164c-56 -101 -170 -173 -318 -173c-194 0 -330 105 -330 313v516c0 53 -8 65 -63 81
l-65 19v41z" />
    <glyph glyph-name="Ubreve" unicode="&#x16c;" horiz-adv-x="1493" 
d="M807 1592c-155 0 -245 120 -245 241c0 15 1 31 4 45h47v-6c0 -92 76 -160 193 -160c118 0 194 68 194 160v6h47c2 -14 3 -30 3 -45c0 -121 -88 -241 -243 -241zM177 1277c0 86 -20 104 -145 120v47h513v-47c-134 -16 -152 -36 -152 -125v-712c0 -333 180 -488 424 -488
c257 0 424 177 420 487l-7 641c-2 148 -20 180 -161 197v47h400v-48c-130 -15 -149 -49 -152 -195l-7 -654c-4 -347 -206 -571 -565 -571c-291 0 -568 168 -568 576v725z" />
    <glyph glyph-name="ubreve" unicode="&#x16d;" horiz-adv-x="1177" 
d="M582 1142c-177 0 -274 136 -274 274c0 17 1 34 4 51h53v-8c0 -102 85 -177 217 -177s217 75 217 177v8h53c3 -17 4 -34 4 -51c0 -138 -98 -274 -274 -274zM358 988v-649c0 -170 82 -256 228 -256c103 0 179 49 220 117v610c0 53 -7 65 -63 81l-66 19v41l326 37v-818
c0 -54 8 -66 64 -83l65 -17v-41l-324 -39v164c-56 -101 -170 -173 -318 -173c-194 0 -330 105 -330 313v516c0 53 -8 65 -63 81l-65 19v41z" />
    <glyph glyph-name="Uring" unicode="&#x16e;" horiz-adv-x="1493" 
d="M580 1732c0 103 105 171 227 171s227 -68 227 -171c0 -104 -106 -170 -227 -170c-122 0 -227 66 -227 170zM713 1732c0 -72 38 -121 93 -121s94 49 94 121c0 71 -39 121 -94 121s-93 -50 -93 -121zM177 1277c0 86 -20 104 -145 120v47h513v-47
c-134 -16 -152 -36 -152 -125v-712c0 -333 180 -488 424 -488c257 0 424 177 420 487l-7 641c-2 148 -20 180 -161 197v47h400v-48c-130 -15 -149 -49 -152 -195l-7 -654c-4 -347 -206 -571 -565 -571c-291 0 -568 168 -568 576v725z" />
    <glyph glyph-name="uring" unicode="&#x16f;" horiz-adv-x="1177" 
d="M331 1296c0 114 115 188 251 188c135 0 251 -74 251 -187c0 -115 -116 -188 -251 -188s-251 73 -251 187zM478 1296c0 -81 43 -134 104 -134s104 53 104 135c0 78 -43 135 -104 135s-104 -57 -104 -136zM358 988v-649c0 -170 82 -256 228 -256c103 0 179 49 220 117v610
c0 53 -7 65 -63 81l-66 19v41l326 37v-818c0 -54 8 -66 64 -83l65 -17v-41l-324 -39v164c-56 -101 -170 -173 -318 -173c-194 0 -330 105 -330 313v516c0 53 -8 65 -63 81l-65 19v41z" />
    <glyph glyph-name="Uhungarumlaut" unicode="&#x170;" horiz-adv-x="1493" 
d="M711 1819h178v-6l-200 -266h-58zM1031 1819h190v-6l-273 -266h-60zM177 1277c0 86 -20 104 -145 120v47h513v-47c-134 -16 -152 -36 -152 -125v-712c0 -333 180 -488 424 -488c257 0 424 177 420 487l-7 641c-2 148 -20 180 -161 197v47h400v-48
c-130 -15 -149 -49 -152 -195l-7 -654c-4 -347 -206 -571 -565 -571c-291 0 -568 168 -568 576v725z" />
    <glyph glyph-name="uhungarumlaut" unicode="&#x171;" horiz-adv-x="1177" 
d="M483 1467h182v-9l-221 -347h-58zM829 1467h191v-9l-293 -347h-60zM358 988v-649c0 -170 82 -256 228 -256c103 0 179 49 220 117v610c0 53 -7 65 -63 81l-66 19v41l326 37v-818c0 -54 8 -66 64 -83l65 -17v-41l-324 -39v164c-56 -101 -170 -173 -318 -173
c-194 0 -330 105 -330 313v516c0 53 -8 65 -63 81l-65 19v41z" />
    <glyph glyph-name="Uogonek" unicode="&#x172;" horiz-adv-x="1493" 
d="M806 -482c-107 0 -190 73 -190 185c0 96 57 192 147 274c-6 -1 -12 -1 -18 -1c-291 0 -568 168 -568 576v725c0 86 -20 104 -145 120v47h513v-47c-134 -16 -152 -36 -152 -125v-712c0 -333 180 -488 424 -488c258 0 424 177 420 487l-7 641c-1 148 -20 180 -161 197v47
h400v-48c-130 -15 -149 -49 -152 -195l-7 -654c-4 -323 -180 -540 -494 -568c-31 -43 -49 -109 -49 -178c0 -104 56 -183 130 -183c35 0 64 14 82 33v-47c-29 -50 -95 -86 -173 -86z" />
    <glyph glyph-name="uogonek" unicode="&#x173;" horiz-adv-x="1177" 
d="M358 988v-649c0 -170 82 -256 228 -256c103 0 179 49 220 117v610c0 53 -7 65 -63 81l-66 19v41l326 37v-818c0 -54 8 -66 64 -83l65 -17v-41c-138 -112 -184 -201 -184 -293c0 -79 47 -120 98 -120c40 0 75 12 93 31l1 -46c-33 -49 -100 -83 -182 -83
c-96 0 -179 64 -179 167c0 102 69 197 242 308l46 28l-259 -31v164c-56 -101 -170 -173 -318 -173c-194 0 -330 105 -330 313v516c0 53 -8 65 -63 81l-65 19v41z" />
    <glyph glyph-name="Wcircumflex" unicode="&#x174;" horiz-adv-x="2121" 
d="M921 1547h-56l205 272h107l205 -272h-59l-200 147zM185 1197c-51 159 -92 187 -196 200v47h534v-47c-140 -17 -155 -55 -112 -200l293 -969l276 957c48 164 32 191 -113 212v47h511v-47c-136 -17 -147 -45 -101 -201l284 -969l275 940c50 172 40 210 -110 230v47h406v-47
c-114 -15 -147 -48 -208 -235l-376 -1162h-124l-360 1181l-372 -1181h-123z" />
    <glyph glyph-name="wcircumflex" unicode="&#x175;" horiz-adv-x="1592" 
d="M638 1111h-59l227 356h102l227 -356h-61l-217 197zM165 772c-41 120 -75 140 -164 159v47h457v-47c-112 -15 -126 -41 -87 -167l171 -537l184 537c43 124 25 154 -79 167v47h427v-47c-103 -13 -120 -43 -80 -167l176 -538l179 533c43 130 24 158 -87 172v47h329v-47
c-88 -15 -115 -36 -170 -183l-273 -748h-86l-264 756l-277 -756h-86z" />
    <glyph glyph-name="Ycircumflex" unicode="&#x176;" horiz-adv-x="1324" 
d="M534 1547h-56l205 272h108l205 -272h-59l-200 147zM227 1196c-99 160 -134 187 -234 201v47h536v-47c-136 -18 -152 -59 -68 -201l281 -470l252 443c94 168 87 210 -61 228v47h398v-47c-103 -16 -141 -50 -257 -237l-303 -486v-488c0 -97 19 -123 164 -139v-47h-545v47
c145 16 165 42 165 139v476z" />
    <glyph glyph-name="ycircumflex" unicode="&#x177;" horiz-adv-x="1020" 
d="M343 1111h-58l227 356h102l226 -356h-60l-217 197zM163 772c-48 119 -75 141 -162 159v47h474v-47c-125 -16 -145 -41 -98 -166l198 -530l197 525c48 129 27 155 -98 171v47h346v-47c-90 -15 -115 -37 -175 -184l-223 -549l-83 -202l-160 -456h-169v3
c80 107 192 304 268 461z" />
    <glyph glyph-name="Ydieresis" unicode="&#x178;" horiz-adv-x="1324" 
d="M569 1587c-54 0 -96 42 -96 95s42 95 96 95s96 -42 96 -95s-42 -95 -96 -95zM886 1587c-54 0 -96 42 -96 95s42 95 96 95s96 -42 96 -95s-42 -95 -96 -95zM227 1196c-99 160 -134 187 -234 201v47h536v-47c-136 -18 -152 -59 -68 -201l281 -470l252 443
c94 168 87 210 -61 228v47h398v-47c-103 -16 -141 -50 -257 -237l-303 -486v-488c0 -97 19 -123 164 -139v-47h-545v47c145 16 165 42 165 139v476z" />
    <glyph glyph-name="Zacute" unicode="&#x179;" horiz-adv-x="1245" 
d="M587 1547l-58 1l145 271h211v-6zM1152 0h-1074v43l827 1347l-325 -10c-328 -11 -393 -62 -442 -283h-43l17 347h1037v-43l-828 -1347l333 12c323 12 415 52 472 322h43z" />
    <glyph glyph-name="zacute" unicode="&#x17a;" horiz-adv-x="903" 
d="M413 1111h-59l164 356h211v-9zM78 978h759v-43l-555 -882l255 9c165 7 226 45 264 247h43l-8 -309h-777v42l551 882l-214 -7c-188 -10 -243 -48 -284 -222h-43z" />
    <glyph glyph-name="Zdotaccent" unicode="&#x17b;" horiz-adv-x="1245" 
d="M626 1588c-54 0 -98 43 -98 95c0 53 44 95 98 95c55 0 98 -42 98 -95c0 -52 -43 -95 -98 -95zM1152 0h-1074v43l827 1347l-325 -10c-328 -11 -393 -62 -442 -283h-43l17 347h1037v-43l-828 -1347l333 12c323 12 415 52 472 322h43z" />
    <glyph glyph-name="zdotaccent" unicode="&#x17c;" horiz-adv-x="903" 
d="M461 1180c-64 0 -115 49 -115 112s51 111 115 111s115 -48 115 -111s-51 -112 -115 -112zM78 978h759v-43l-555 -882l255 9c165 7 226 45 264 247h43l-8 -309h-777v42l551 882l-214 -7c-188 -10 -243 -48 -284 -222h-43z" />
    <glyph glyph-name="Zcaron" unicode="&#x17d;" horiz-adv-x="1245" 
d="M837 1831h56l-205 -272h-108l-205 272h60l200 -147zM1152 0h-1074v43l827 1347l-325 -10c-328 -11 -393 -62 -442 -283h-43l17 347h1037v-43l-828 -1347l333 12c323 12 415 52 472 322h43z" />
    <glyph glyph-name="zcaron" unicode="&#x17e;" horiz-adv-x="903" 
d="M680 1482h59l-227 -355h-102l-227 355h61l216 -197zM78 978h759v-43l-555 -882l255 9c165 7 226 45 264 247h43l-8 -309h-777v42l551 882l-214 -7c-188 -10 -243 -48 -284 -222h-43z" />
    <glyph glyph-name="Schwa" unicode="&#x18f;" horiz-adv-x="1471" 
d="M684 -24c-395 0 -605 259 -605 619c0 30 2 60 7 89l1048 -1c0 17 1 34 1 51c0 417 -178 667 -489 667c-241 0 -397 -126 -448 -358h-44l14 320c85 60 254 106 496 106c403 0 709 -260 709 -742c0 -449 -268 -751 -689 -751zM302 580c0 -286 97 -536 388 -536
c285 0 418 252 441 583l-828 -3c-1 -14 -1 -30 -1 -44z" />
    <glyph glyph-name="florin" unicode="&#x192;" horiz-adv-x="1136" 
d="M366 309l118 483h-271v47h283l48 198c75 314 217 431 401 431c119 0 188 -66 188 -154c0 -54 -43 -96 -94 -96c-55 0 -93 42 -93 94c0 46 32 79 71 86c-13 5 -28 7 -44 7c-96 0 -153 -67 -202 -270l-73 -296h328v-47h-339l-94 -385c-76 -314 -218 -431 -401 -431
c-119 0 -188 66 -188 154c0 54 43 96 94 96c54 0 93 -42 93 -94c0 -47 -32 -80 -72 -87c13 -4 28 -7 45 -7c95 0 153 67 202 271z" />
    <glyph glyph-name="Ohorn" unicode="&#x1a0;" horiz-adv-x="1648" 
d="M99 722c0 413 284 746 721 746c119 0 210 -24 296 -24c157 0 236 82 236 205c0 51 -16 106 -36 131h47c79 -42 140 -120 140 -207c0 -123 -121 -180 -296 -180c-29 0 -58 3 -84 8c242 -113 419 -353 419 -678c0 -413 -285 -747 -722 -747c-366 0 -721 283 -721 746z
M340 739c0 -387 189 -695 492 -695c333 0 468 292 468 662c0 387 -188 694 -491 694c-333 0 -469 -291 -469 -661z" />
    <glyph glyph-name="ohorn" unicode="&#x1a1;" horiz-adv-x="1232" 
d="M586 -19c-289 0 -494 200 -494 505c0 299 221 510 489 510c105 0 164 -16 241 -16c140 0 221 75 221 187c0 52 -16 105 -35 130h47c78 -41 135 -119 135 -201c0 -102 -101 -163 -258 -163c-45 0 -89 4 -128 13c174 -69 287 -237 287 -454c0 -301 -222 -511 -505 -511z
M596 46c179 0 279 166 279 434c0 270 -114 452 -289 452c-180 0 -279 -167 -279 -435c0 -269 113 -451 289 -451z" />
    <glyph glyph-name="Uhorn" unicode="&#x1af;" horiz-adv-x="1590" 
d="M176 552v714c0 91 -21 111 -140 131v47h510v-47c-132 -20 -154 -41 -154 -134v-703c0 -333 180 -488 424 -488c258 0 424 177 421 487l-7 641c-2 145 -20 176 -164 197v47h115c189 0 271 88 271 206c0 53 -16 105 -35 130h47c76 -42 132 -122 132 -206
c0 -102 -78 -164 -228 -164c-16 0 -31 2 -46 4l-12 -867c-5 -347 -206 -571 -565 -571c-291 0 -569 168 -569 576z" />
    <glyph glyph-name="uhorn" unicode="&#x1b0;" horiz-adv-x="1264" 
d="M357 988v-649c0 -170 82 -256 228 -256c103 0 180 49 220 117v610c0 53 -7 65 -65 81l-66 19v39l109 10c214 18 290 93 290 208c0 52 -16 104 -34 129h46c79 -40 139 -123 138 -203c0 -93 -73 -141 -176 -141c-16 0 -31 1 -45 3v-785c0 -54 8 -67 66 -83l68 -17v-41
l-328 -39v164c-57 -101 -170 -173 -319 -173c-193 0 -329 105 -329 313v516c0 53 -8 65 -66 81l-66 19v41z" />
    <glyph glyph-name="uni01C4" unicode="&#x1c4;" horiz-adv-x="2763" 
d="M2355 1831h56l-205 -272h-107l-205 272h59l200 -147zM1430 746c0 -479 -393 -746 -846 -746h-524v47c134 16 152 37 152 125v1100c0 89 -18 109 -152 125v47h523c493 0 847 -251 847 -698zM2670 0h-1074v43l827 1347l-324 -10c-328 -11 -393 -62 -443 -283h-43l17 347
h1038v-43l-828 -1347l333 12c323 12 415 52 472 322h42zM1191 727c0 393 -239 646 -645 659l-118 4v-1336l118 4c403 13 645 261 645 669z" />
    <glyph glyph-name="uni01C5" unicode="&#x1c5;" horiz-adv-x="2421" 
d="M2199 1482h58l-226 -355h-102l-227 355h60l217 -197zM1430 746c0 -479 -393 -746 -846 -746h-524v47c134 16 152 37 152 125v1100c0 89 -18 109 -152 125v47h523c493 0 847 -251 847 -698zM1191 727c0 393 -239 646 -645 659l-118 4v-1336l118 4c403 13 645 261 645 669z
M1596 978h759v-43l-555 -882l256 9c165 7 226 45 263 247h44l-8 -309h-777v42l550 882l-214 -7c-188 -10 -242 -48 -284 -222h-42z" />
    <glyph glyph-name="uni01C6" unicode="&#x1c6;" horiz-adv-x="2096" 
d="M1873 1482h59l-227 -355h-102l-227 355h60l217 -197zM92 480c0 309 208 516 469 516c117 0 209 -47 259 -116v423c0 53 -7 65 -63 82l-66 18v41l326 38v-1312c0 -54 8 -66 65 -83l64 -17v-41l-323 -39v171c-54 -108 -183 -180 -326 -180c-214 0 -405 182 -405 499z
M1270 978h759v-43l-555 -882l256 9c165 7 226 45 263 247h44l-8 -309h-777v42l550 882l-214 -7c-187 -10 -242 -48 -284 -222h-42zM297 501c0 -256 121 -418 296 -418c105 0 183 44 227 122v608c-32 63 -116 112 -215 112c-183 0 -308 -166 -308 -424z" />
    <glyph glyph-name="uni01C7" unicode="&#x1c7;" horiz-adv-x="1772" 
d="M1070 0h-1010v47c134 16 152 37 152 125v1100c0 89 -18 109 -152 125v47h533v-47c-146 -16 -165 -41 -165 -138v-1205l201 8c265 10 353 61 416 345h43zM1561 248c0 -343 -173 -492 -480 -650l-23 41c214 142 287 303 287 635v998c0 89 -19 109 -152 125v47h519v-47
c-133 -16 -151 -36 -151 -125v-1024z" />
    <glyph glyph-name="uni01C8" unicode="&#x1c8;" horiz-adv-x="1665" 
d="M1070 0h-1010v47c134 16 152 37 152 125v1100c0 89 -18 109 -152 125v47h533v-47c-146 -16 -165 -41 -165 -138v-1205l201 8c265 10 353 61 416 345h43zM1385 1175c-67 0 -121 52 -121 117c0 66 54 117 121 117s121 -51 121 -117c0 -65 -54 -117 -121 -117zM1503 988
v-832c0 -299 -71 -419 -310 -592l-56 -41l-30 40c161 137 199 286 199 576v671c0 53 -8 65 -64 81l-65 19v41z" />
    <glyph glyph-name="uni01C9" unicode="&#x1c9;" horiz-adv-x="1087" 
d="M380 1482v-1338c0 -66 17 -82 129 -97v-47h-455v47c112 15 129 31 129 97v1159c0 53 -8 65 -64 82l-65 18v41zM807 1175c-67 0 -121 52 -121 117c0 66 54 117 121 117s121 -51 121 -117c0 -65 -54 -117 -121 -117zM925 988v-832c0 -299 -71 -419 -310 -592l-56 -41
l-30 40c161 137 199 286 199 576v671c0 53 -8 65 -63 81l-66 19v41z" />
    <glyph glyph-name="uni01CA" unicode="&#x1ca;" horiz-adv-x="2126" 
d="M404 1444l830 -1201l-20 956c-2 151 -20 183 -160 198v47h405v-47c-136 -18 -153 -51 -155 -198l-8 -1199h-160l-886 1280l19 -1034c2 -152 21 -184 160 -199v-47h-405v47c136 18 154 51 155 198l8 996c0 107 -25 136 -144 156v47h361zM1914 248
c0 -343 -173 -492 -480 -650l-23 41c214 142 287 303 287 635v998c0 89 -18 109 -152 125v47h520v-47c-134 -16 -152 -36 -152 -125v-1024z" />
    <glyph glyph-name="uni01CB" unicode="&#x1cb;" horiz-adv-x="2018" 
d="M404 1444l830 -1201l-20 956c-2 151 -20 183 -160 198v47h405v-47c-136 -18 -153 -51 -155 -198l-8 -1199h-160l-886 1280l19 -1034c2 -152 21 -184 160 -199v-47h-405v47c136 18 154 51 155 198l8 996c0 107 -25 136 -144 156v47h361zM1738 1175c-67 0 -121 52 -121 117
c0 66 54 117 121 117s121 -51 121 -117c0 -65 -54 -117 -121 -117zM1856 988v-832c0 -299 -71 -419 -310 -592l-56 -41l-30 40c161 137 199 286 199 576v671c0 53 -8 65 -64 81l-65 19v41z" />
    <glyph glyph-name="uni01CC" unicode="&#x1cc;" horiz-adv-x="1737" 
d="M1457 1175c-67 0 -121 52 -121 117c0 66 54 117 121 117s121 -51 121 -117c0 -65 -54 -117 -121 -117zM377 988v-164c56 100 174 172 323 172c198 0 335 -104 335 -308v-544c0 -66 15 -82 129 -97v-47h-447v47c107 13 121 29 121 92v504c0 167 -86 251 -229 251
c-109 0 -188 -48 -229 -117v-638c0 -63 13 -78 121 -92v-47h-447v47c112 15 129 31 129 97v666c0 53 -8 65 -64 81l-65 19v41zM1575 988v-832c0 -299 -71 -419 -310 -592l-56 -41l-30 40c161 137 199 286 199 576v671c0 53 -8 65 -64 81l-65 19v41z" />
    <glyph glyph-name="Acaron" unicode="&#x1cd;" horiz-adv-x="1373" 
d="M898 1831h56l-205 -272h-107l-205 272h59l200 -147zM1186 247c56 -152 89 -185 198 -200v-47h-538v47c139 17 162 56 112 201l-93 264h-496l-81 -235c-58 -171 -43 -210 108 -230v-47h-407v47c115 15 145 48 213 235l427 1162h123zM390 574h453l-229 653z" />
    <glyph glyph-name="acaron" unicode="&#x1ce;" horiz-adv-x="1043" 
d="M709 1482h59l-227 -355h-102l-227 355h61l216 -197zM372 -19c-163 0 -286 99 -286 244c0 153 111 244 382 303l213 47v97c0 187 -98 253 -246 253c-73 0 -140 -17 -188 -50c47 -7 85 -50 85 -103c0 -58 -47 -103 -107 -103c-59 0 -108 45 -108 106c0 128 171 221 389 221
c222 0 368 -93 368 -302v-506c0 -89 47 -124 107 -124c19 0 36 3 48 8v-43c-31 -22 -87 -43 -155 -43c-98 0 -169 50 -188 142c-50 -82 -169 -147 -314 -147zM286 260c0 -117 82 -185 190 -185c90 0 162 36 205 101v342l-120 -27c-207 -45 -275 -115 -275 -231z" />
    <glyph glyph-name="Icaron" unicode="&#x1cf;" horiz-adv-x="640" 
d="M531 1831h56l-205 -272h-108l-205 272h60l200 -147zM428 172c0 -88 19 -109 152 -125v-47h-520v47c134 16 152 37 152 125v1100c0 89 -18 109 -152 125v47h520v-47c-133 -16 -152 -36 -152 -125v-1100z" />
    <glyph glyph-name="icaron" unicode="&#x1d0;" horiz-adv-x="554" 
d="M459 1482h53l-204 -355h-92l-204 355h54l195 -197zM380 988v-844c0 -66 17 -82 129 -97v-47h-455v47c112 15 129 31 129 97v666c0 53 -8 65 -64 81l-65 19v41z" />
    <glyph glyph-name="Ocaron" unicode="&#x1d1;" horiz-adv-x="1640" 
d="M1024 1831h56l-205 -272h-107l-205 272h59l200 -147zM99 722c0 413 284 746 721 746c366 0 722 -282 722 -745c0 -413 -285 -747 -722 -747c-366 0 -721 283 -721 746zM340 739c0 -387 189 -695 492 -695c333 0 468 292 468 662c0 387 -188 694 -491 694
c-333 0 -469 -291 -469 -661z" />
    <glyph glyph-name="ocaron" unicode="&#x1d2;" horiz-adv-x="1182" 
d="M809 1482h59l-227 -355h-102l-227 355h61l216 -197zM586 -19c-277 0 -494 202 -494 505c0 301 220 510 504 510c278 0 495 -202 495 -504c0 -301 -222 -511 -505 -511zM596 46c175 0 279 169 279 432c0 273 -119 454 -289 454c-175 0 -279 -169 -279 -432
c0 -273 118 -454 289 -454z" />
    <glyph glyph-name="Ucaron" unicode="&#x1d3;" horiz-adv-x="1493" 
d="M1018 1831h56l-205 -272h-108l-205 272h60l200 -147zM177 1277c0 86 -20 104 -145 120v47h513v-47c-134 -16 -152 -36 -152 -125v-712c0 -333 180 -488 424 -488c257 0 424 177 420 487l-7 641c-2 148 -20 180 -161 197v47h400v-48c-130 -15 -149 -49 -152 -195l-7 -654
c-4 -347 -206 -571 -565 -571c-291 0 -568 168 -568 576v725z" />
    <glyph glyph-name="ucaron" unicode="&#x1d4;" horiz-adv-x="1177" 
d="M801 1482h59l-227 -355h-102l-227 355h61l216 -197zM358 988v-649c0 -170 82 -256 228 -256c103 0 179 49 220 117v610c0 53 -7 65 -63 81l-66 19v41l326 37v-818c0 -54 8 -66 64 -83l65 -17v-41l-324 -39v164c-56 -101 -170 -173 -318 -173c-194 0 -330 105 -330 313
v516c0 53 -8 65 -63 81l-65 19v41z" />
    <glyph glyph-name="Udieresismacron" unicode="&#x1d5;" horiz-adv-x="1493" 
d="M550 1811v86h514v-86h-514zM664 1561h-6c-46 0 -81 31 -81 71s35 71 81 71h6c45 0 80 -31 80 -71s-35 -71 -80 -71zM956 1561h-6c-46 0 -81 31 -81 71s35 71 81 71h6c46 0 80 -31 80 -71s-34 -71 -80 -71zM177 1277c0 86 -20 104 -145 120v47h513v-47
c-134 -16 -152 -36 -152 -125v-712c0 -333 180 -488 424 -488c257 0 424 177 420 487l-7 641c-2 148 -20 180 -161 197v47h400v-48c-130 -15 -149 -49 -152 -195l-7 -654c-4 -347 -206 -571 -565 -571c-291 0 -568 168 -568 576v725z" />
    <glyph glyph-name="udieresismacron" unicode="&#x1d6;" horiz-adv-x="1177" 
d="M331 1419v100h501v-100h-501zM431 1119h-6c-48 0 -85 37 -85 83c0 48 37 86 85 86h6c47 0 84 -38 84 -86c0 -46 -37 -83 -84 -83zM739 1119h-6c-48 0 -85 37 -85 83c0 48 37 86 85 86h6c48 0 85 -38 85 -86c0 -46 -37 -83 -85 -83zM358 988v-649c0 -170 82 -256 228 -256
c103 0 179 49 220 117v610c0 53 -7 65 -63 81l-66 19v41l326 37v-818c0 -54 8 -66 64 -83l65 -17v-41l-324 -39v164c-56 -101 -170 -173 -318 -173c-194 0 -330 105 -330 313v516c0 53 -8 65 -63 81l-65 19v41z" />
    <glyph glyph-name="Udieresisacute" unicode="&#x1d7;" horiz-adv-x="1493" 
d="M1063 1834l-513 -75v43l513 147v-115zM664 1561h-6c-46 0 -81 31 -81 71s35 71 81 71h6c45 0 80 -31 80 -71s-35 -71 -80 -71zM956 1561h-6c-46 0 -81 31 -81 71s35 71 81 71h6c46 0 80 -31 80 -71s-34 -71 -80 -71zM177 1277c0 86 -20 104 -145 120v47h513v-47
c-134 -16 -152 -36 -152 -125v-712c0 -333 180 -488 424 -488c257 0 424 177 420 487l-7 641c-2 148 -20 180 -161 197v47h400v-48c-130 -15 -149 -49 -152 -195l-7 -654c-4 -347 -206 -571 -565 -571c-291 0 -568 168 -568 576v725z" />
    <glyph glyph-name="udieresisacute" unicode="&#x1d8;" horiz-adv-x="1177" 
d="M832 1459l-500 -89v51l500 172v-134zM431 1119h-6c-48 0 -85 37 -85 83c0 48 37 86 85 86h6c47 0 84 -38 84 -86c0 -46 -37 -83 -84 -83zM739 1119h-6c-48 0 -85 37 -85 83c0 48 37 86 85 86h6c48 0 85 -38 85 -86c0 -46 -37 -83 -85 -83zM358 988v-649
c0 -170 82 -256 228 -256c103 0 179 49 220 117v610c0 53 -7 65 -63 81l-66 19v41l326 37v-818c0 -54 8 -66 64 -83l65 -17v-41l-324 -39v164c-56 -101 -170 -173 -318 -173c-194 0 -330 105 -330 313v516c0 53 -8 65 -63 81l-65 19v41z" />
    <glyph glyph-name="Udieresiscaron" unicode="&#x1d9;" horiz-adv-x="1493" 
d="M1063 1951v-42l-237 -153h-38l-238 153v42l256 -88zM664 1561h-6c-46 0 -81 31 -81 71s35 71 81 71h6c45 0 80 -31 80 -71s-35 -71 -80 -71zM956 1561h-6c-46 0 -81 31 -81 71s35 71 81 71h6c46 0 80 -31 80 -71s-34 -71 -80 -71zM177 1277c0 86 -20 104 -145 120v47h513
v-47c-134 -16 -152 -36 -152 -125v-712c0 -333 180 -488 424 -488c257 0 424 177 420 487l-7 641c-2 148 -20 180 -161 197v47h400v-48c-130 -15 -149 -49 -152 -195l-7 -654c-4 -347 -206 -571 -565 -571c-291 0 -568 168 -568 576v725z" />
    <glyph glyph-name="udieresiscaron" unicode="&#x1da;" horiz-adv-x="1177" 
d="M832 1594v-52l-231 -187h-37l-232 187v52l250 -108zM431 1119h-6c-48 0 -85 37 -85 83c0 48 37 86 85 86h6c47 0 84 -38 84 -86c0 -46 -37 -83 -84 -83zM739 1119h-6c-48 0 -85 37 -85 83c0 48 37 86 85 86h6c48 0 85 -38 85 -86c0 -46 -37 -83 -85 -83zM358 988v-649
c0 -170 82 -256 228 -256c103 0 179 49 220 117v610c0 53 -7 65 -63 81l-66 19v41l326 37v-818c0 -54 8 -66 64 -83l65 -17v-41l-324 -39v164c-56 -101 -170 -173 -318 -173c-194 0 -330 105 -330 313v516c0 53 -8 65 -63 81l-65 19v41z" />
    <glyph glyph-name="Udieresisgrave" unicode="&#x1db;" horiz-adv-x="1493" 
d="M550 1834v115l514 -147v-43zM664 1561h-6c-46 0 -81 31 -81 71s35 71 81 71h6c45 0 80 -31 80 -71s-35 -71 -80 -71zM956 1561h-6c-46 0 -81 31 -81 71s35 71 81 71h6c46 0 80 -31 80 -71s-34 -71 -80 -71zM177 1277c0 86 -20 104 -145 120v47h513v-47
c-134 -16 -152 -36 -152 -125v-712c0 -333 180 -488 424 -488c257 0 424 177 420 487l-7 641c-2 148 -20 180 -161 197v47h400v-48c-130 -15 -149 -49 -152 -195l-7 -654c-4 -347 -206 -571 -565 -571c-291 0 -568 168 -568 576v725z" />
    <glyph glyph-name="udieresisgrave" unicode="&#x1dc;" horiz-adv-x="1177" 
d="M332 1459v134l500 -172v-51zM431 1119h-6c-48 0 -85 37 -85 83c0 48 37 86 85 86h6c47 0 84 -38 84 -86c0 -46 -37 -83 -84 -83zM739 1119h-6c-48 0 -85 37 -85 83c0 48 37 86 85 86h6c48 0 85 -38 85 -86c0 -46 -37 -83 -85 -83zM358 988v-649c0 -170 82 -256 228 -256
c103 0 179 49 220 117v610c0 53 -7 65 -63 81l-66 19v41l326 37v-818c0 -54 8 -66 64 -83l65 -17v-41l-324 -39v164c-56 -101 -170 -173 -318 -173c-194 0 -330 105 -330 313v516c0 53 -8 65 -63 81l-65 19v41z" />
    <glyph glyph-name="Adieresismacron" unicode="&#x1de;" horiz-adv-x="1373" 
d="M430 1811v86h514v-86h-514zM545 1561h-7c-46 0 -80 31 -80 71s34 71 80 71h7c45 0 80 -31 80 -71s-35 -71 -80 -71zM837 1561h-7c-45 0 -80 31 -80 71s35 71 80 71h7c45 0 80 -31 80 -71s-35 -71 -80 -71zM1186 247c56 -152 89 -185 198 -200v-47h-538v47
c139 17 162 56 112 201l-93 264h-496l-81 -235c-58 -171 -43 -210 108 -230v-47h-407v47c115 15 145 48 213 235l427 1162h123zM390 574h453l-229 653z" />
    <glyph glyph-name="adieresismacron" unicode="&#x1df;" horiz-adv-x="1043" 
d="M239 1419v100h501v-100h-501zM339 1119h-6c-48 0 -85 37 -85 83c0 48 37 86 85 86h6c48 0 85 -38 85 -86c0 -46 -37 -83 -85 -83zM647 1119h-6c-48 0 -85 37 -85 83c0 48 37 86 85 86h6c48 0 85 -38 85 -86c0 -46 -37 -83 -85 -83zM372 -19c-163 0 -286 99 -286 244
c0 153 111 244 382 303l213 47v97c0 187 -98 253 -246 253c-73 0 -140 -17 -188 -50c47 -7 85 -50 85 -103c0 -58 -47 -103 -107 -103c-59 0 -108 45 -108 106c0 128 171 221 389 221c222 0 368 -93 368 -302v-506c0 -89 47 -124 107 -124c19 0 36 3 48 8v-43
c-31 -22 -87 -43 -155 -43c-98 0 -169 50 -188 142c-50 -82 -169 -147 -314 -147zM286 260c0 -117 82 -185 190 -185c90 0 162 36 205 101v342l-120 -27c-207 -45 -275 -115 -275 -231z" />
    <glyph glyph-name="Adotmacron" unicode="&#x1e0;" horiz-adv-x="1373" 
d="M430 1789v85h514v-85h-514zM687 1556c-49 0 -87 33 -87 76s38 77 87 77c50 0 88 -34 88 -77s-38 -76 -88 -76zM1186 247c56 -152 89 -185 198 -200v-47h-538v47c139 17 162 56 112 201l-93 264h-496l-81 -235c-58 -171 -43 -210 108 -230v-47h-407v47
c115 15 145 48 213 235l427 1162h123zM390 574h453l-229 653z" />
    <glyph glyph-name="adotmacron" unicode="&#x1e1;" horiz-adv-x="1043" 
d="M239 1408v100h501v-100h-501zM490 1120c-52 0 -92 38 -92 90c0 49 40 89 92 89c51 0 92 -40 92 -89c0 -52 -41 -90 -92 -90zM372 -19c-163 0 -286 99 -286 244c0 153 111 244 382 303l213 47v97c0 187 -98 253 -246 253c-73 0 -140 -17 -188 -50c47 -7 85 -50 85 -103
c0 -58 -47 -103 -107 -103c-59 0 -108 45 -108 106c0 128 171 221 389 221c222 0 368 -93 368 -302v-506c0 -89 47 -124 107 -124c19 0 36 3 48 8v-43c-31 -22 -87 -43 -155 -43c-98 0 -169 50 -188 142c-50 -82 -169 -147 -314 -147zM286 260c0 -117 82 -185 190 -185
c90 0 162 36 205 101v342l-120 -27c-207 -45 -275 -115 -275 -231z" />
    <glyph glyph-name="AEmacron" unicode="&#x1e2;" horiz-adv-x="1929" 
d="M1003 1611v108h488v-108h-488zM1789 1444l17 -347h-44c-54 221 -137 273 -397 284l-204 9l4 -623l247 4c106 3 129 42 159 201h41l3 -464h-40c-30 156 -54 198 -162 201l-248 4l5 -659l231 10c291 13 365 56 415 324h44l-15 -388h-1027v47c127 16 146 34 145 120l-3 455
h-458l-175 -348c-85 -168 -63 -209 75 -227v-47h-417v47c112 15 154 45 249 226l612 1171h943zM890 1389l-356 -705h426l-5 705h-65z" />
    <glyph glyph-name="aemacron" unicode="&#x1e3;" horiz-adv-x="1607" 
d="M529 1219v123h542v-123h-542zM374 -19c-168 0 -289 94 -289 244c0 157 121 266 402 319l200 37v67c0 193 -109 278 -253 278c-73 0 -136 -18 -183 -47c45 -9 79 -48 79 -98c0 -60 -47 -107 -108 -107c-59 0 -107 46 -107 106c0 117 154 216 372 216
c138 0 259 -46 312 -150c76 95 189 150 327 150c250 0 394 -162 394 -403c0 -20 -1 -41 -3 -58h-647c6 -269 159 -452 384 -452c111 0 199 40 256 98v-47c-63 -84 -192 -153 -357 -153c-190 0 -368 103 -436 284c-27 -185 -162 -284 -343 -284zM1124 932
c-143 0 -244 -117 -254 -342l460 3c1 9 1 20 1 30c0 185 -66 309 -207 309zM462 75c118 0 225 81 225 273v179l-132 -26c-204 -43 -273 -125 -273 -241s71 -185 180 -185z" />
    <glyph glyph-name="Gcaron" unicode="&#x1e6;" horiz-adv-x="1528" 
d="M1038 1831h56l-205 -272h-108l-205 272h60l200 -147zM99 730c0 471 329 738 740 738c235 0 391 -49 470 -106l13 -320h-43c-55 238 -198 358 -428 358c-321 0 -511 -258 -511 -648s193 -708 518 -708c126 0 230 30 293 80v390c0 93 -17 110 -163 123v47h515v-47
c-134 -13 -152 -30 -152 -123v-393c-112 -86 -310 -145 -507 -145c-417 0 -745 290 -745 754z" />
    <glyph glyph-name="gcaron" unicode="&#x1e7;" horiz-adv-x="1072" 
d="M752 1482h58l-227 -355h-102l-226 355h60l217 -197zM102 661c0 203 188 335 415 335c76 0 144 -14 197 -36l338 19v-78l-270 13c90 -44 145 -135 145 -245c0 -206 -194 -333 -407 -333c-35 0 -70 4 -116 12c-86 -21 -129 -62 -129 -118c0 -66 59 -100 170 -100h195
c236 0 368 -94 368 -268c0 -211 -220 -352 -486 -352c-280 0 -461 100 -461 252c0 108 100 190 296 217c-137 2 -238 68 -238 174c0 104 91 176 237 209c-147 36 -254 140 -254 299zM300 670c0 -168 89 -275 220 -275c126 0 211 105 211 266c0 164 -81 277 -220 277
c-131 0 -211 -107 -211 -268zM232 -217c0 -120 107 -208 294 -208c191 0 321 87 321 221c0 106 -70 169 -235 169h-207c-116 -18 -173 -87 -173 -182z" />
    <glyph glyph-name="Kcaron" unicode="&#x1e8;" horiz-adv-x="1341" 
d="M915 1831h56l-205 -272h-108l-205 272h60l200 -147zM428 167c0 -86 20 -104 145 -120v-47h-513v47c134 16 152 37 152 125v1100c0 89 -18 109 -152 125v47h513v-48c-125 -16 -145 -34 -145 -119v-498l155 1l339 406c125 151 121 198 -28 211v47h432v-47
c-106 -22 -183 -79 -339 -247c-87 -92 -175 -190 -252 -279l350 -549c130 -202 185 -257 260 -279v-43h-303l-459 723l-155 1v-557z" />
    <glyph glyph-name="kcaron" unicode="&#x1e9;" horiz-adv-x="1082" 
d="M490 1857h56l-205 -272h-107l-205 272h59l200 -147zM817 0l-309 506l-128 1v-368c0 -63 13 -78 121 -92v-47h-447v47c112 15 129 31 129 97v1159c0 53 -8 65 -64 82l-65 18v41l326 38v-918l127 2l205 226c83 91 72 121 -46 139v47h385v-47c-101 -20 -146 -45 -299 -187
l-111 -104l257 -419c77 -125 125 -164 192 -178v-43h-273z" />
    <glyph glyph-name="Oogonek" unicode="&#x1ea;" horiz-adv-x="1640" 
d="M99 722c0 413 284 746 721 746c366 0 722 -282 722 -745c0 -400 -267 -726 -681 -746c-29 -44 -47 -108 -47 -176c0 -104 55 -183 130 -183c34 0 64 14 82 33v-47c-29 -50 -95 -86 -172 -86c-108 0 -192 73 -192 185c0 96 58 192 148 273c-363 6 -711 287 -711 746z
M340 739c0 -387 188 -695 492 -695c332 0 468 292 468 662c0 387 -188 694 -491 694c-333 0 -469 -291 -469 -661z" />
    <glyph glyph-name="oogonek" unicode="&#x1eb;" horiz-adv-x="1182" 
d="M586 -19c-277 0 -494 202 -494 505c0 301 220 510 504 510c278 0 495 -202 495 -504c0 -282 -194 -484 -450 -509c-24 -47 -37 -105 -37 -162c0 -123 59 -205 133 -205c35 0 65 12 82 31l1 -46c-31 -47 -99 -83 -183 -83c-98 0 -185 70 -186 185c0 96 49 192 136 278h-1z
M596 46c175 0 279 169 279 432c0 273 -119 454 -289 454c-175 0 -279 -169 -279 -432c0 -273 118 -454 289 -454z" />
    <glyph glyph-name="Oogonekmacron" unicode="&#x1ec;" horiz-adv-x="1640" 
d="M569 1611v108h489v-108h-489zM99 722c0 413 284 746 721 746c366 0 722 -282 722 -745c0 -400 -267 -726 -681 -746c-29 -44 -47 -108 -47 -176c0 -104 55 -183 130 -183c34 0 64 14 82 33v-47c-29 -50 -95 -86 -172 -86c-108 0 -192 73 -192 185c0 96 58 192 148 273
c-363 6 -711 287 -711 746zM340 739c0 -387 188 -695 492 -695c332 0 468 292 468 662c0 387 -188 694 -491 694c-333 0 -469 -291 -469 -661z" />
    <glyph glyph-name="oogonekmacron" unicode="&#x1ed;" horiz-adv-x="1182" 
d="M319 1219v123h542v-123h-542zM586 -19c-277 0 -494 202 -494 505c0 301 220 510 504 510c278 0 495 -202 495 -504c0 -282 -194 -484 -450 -509c-24 -47 -37 -105 -37 -162c0 -123 59 -205 133 -205c35 0 65 12 82 31l1 -46c-31 -47 -99 -83 -183 -83
c-98 0 -185 70 -186 185c0 96 49 192 136 278h-1zM596 46c175 0 279 169 279 432c0 273 -119 454 -289 454c-175 0 -279 -169 -279 -432c0 -273 118 -454 289 -454z" />
    <glyph glyph-name="uni01F1" unicode="&#x1f1;" horiz-adv-x="2763" 
d="M1430 746c0 -479 -393 -746 -846 -746h-524v47c134 16 152 37 152 125v1100c0 89 -18 109 -152 125v47h523c493 0 847 -251 847 -698zM2670 0h-1074v43l827 1347l-324 -10c-328 -11 -393 -62 -443 -283h-43l17 347h1038v-43l-828 -1347l333 12c323 12 415 52 472 322h42z
M1191 727c0 393 -239 646 -645 659l-118 4v-1336l118 4c403 13 645 261 645 669z" />
    <glyph glyph-name="uni01F2" unicode="&#x1f2;" horiz-adv-x="2421" 
d="M1430 746c0 -479 -393 -746 -846 -746h-524v47c134 16 152 37 152 125v1100c0 89 -18 109 -152 125v47h523c493 0 847 -251 847 -698zM1191 727c0 393 -239 646 -645 659l-118 4v-1336l118 4c403 13 645 261 645 669zM1596 978h759v-43l-555 -882l256 9
c165 7 226 45 263 247h44l-8 -309h-777v42l550 882l-214 -7c-188 -10 -242 -48 -284 -222h-42z" />
    <glyph glyph-name="uni01F3" unicode="&#x1f3;" horiz-adv-x="2096" 
d="M92 480c0 309 208 516 469 516c117 0 209 -47 259 -116v423c0 53 -7 65 -63 82l-66 18v41l326 38v-1312c0 -54 8 -66 65 -83l64 -17v-41l-323 -39v171c-54 -108 -183 -180 -326 -180c-214 0 -405 182 -405 499zM1270 978h759v-43l-555 -882l256 9c165 7 226 45 263 247
h44l-8 -309h-777v42l550 882l-214 -7c-187 -10 -242 -48 -284 -222h-42zM297 501c0 -256 121 -418 296 -418c105 0 183 44 227 122v608c-32 63 -116 112 -215 112c-183 0 -308 -166 -308 -424z" />
    <glyph glyph-name="Gacute" unicode="&#x1f4;" horiz-adv-x="1528" 
d="M788 1547l-58 1l145 271h211v-6zM99 730c0 471 329 738 740 738c235 0 391 -49 470 -106l13 -320h-43c-55 238 -198 358 -428 358c-321 0 -511 -258 -511 -648s193 -708 518 -708c126 0 230 30 293 80v390c0 93 -17 110 -163 123v47h515v-47c-134 -13 -152 -30 -152 -123
v-393c-112 -86 -310 -145 -507 -145c-417 0 -745 290 -745 754z" />
    <glyph glyph-name="gacute" unicode="&#x1f5;" horiz-adv-x="1072" 
d="M484 1111h-58l163 356h212v-9zM102 661c0 203 188 335 415 335c76 0 144 -14 197 -36l338 19v-78l-270 13c90 -44 145 -135 145 -245c0 -206 -194 -333 -407 -333c-35 0 -70 4 -116 12c-86 -21 -129 -62 -129 -118c0 -66 59 -100 170 -100h195c236 0 368 -94 368 -268
c0 -211 -220 -352 -486 -352c-280 0 -461 100 -461 252c0 108 100 190 296 217c-137 2 -238 68 -238 174c0 104 91 176 237 209c-147 36 -254 140 -254 299zM300 670c0 -168 89 -275 220 -275c126 0 211 105 211 266c0 164 -81 277 -220 277c-131 0 -211 -107 -211 -268z
M232 -217c0 -120 107 -208 294 -208c191 0 321 87 321 221c0 106 -70 169 -235 169h-207c-116 -18 -173 -87 -173 -182z" />
    <glyph glyph-name="Ngrave" unicode="&#x1f8;" horiz-adv-x="1486" 
d="M821 1547l-301 265v7h219l139 -272h-57zM404 1444l830 -1201l-20 956c-2 151 -20 183 -160 198v47h405v-47c-136 -18 -153 -51 -155 -198l-8 -1199h-160l-886 1280l19 -1034c2 -152 21 -184 160 -199v-47h-405v47c136 18 154 51 155 198l8 996c0 107 -25 136 -144 156v47
h361z" />
    <glyph glyph-name="ngrave" unicode="&#x1f9;" horiz-adv-x="1205" 
d="M657 1111l-320 347v9h220l159 -356h-59zM377 988v-164c56 100 174 172 323 172c198 0 335 -104 335 -308v-544c0 -66 15 -82 129 -97v-47h-447v47c107 13 121 29 121 92v504c0 167 -86 251 -229 251c-109 0 -188 -48 -229 -117v-638c0 -63 13 -78 121 -92v-47h-447v47
c112 15 129 31 129 97v666c0 53 -8 65 -64 81l-65 19v41z" />
    <glyph glyph-name="Aringacute" unicode="&#x1fa;" horiz-adv-x="1373" 
d="M944 1818l-513 -75v43l513 147v-115zM713 1525h-53c-112 0 -187 36 -187 91c0 56 75 91 187 91h53c115 0 188 -35 188 -91c0 -55 -73 -91 -188 -91zM710 1564c43 0 66 22 66 52c0 31 -23 52 -66 52h-46c-41 0 -66 -21 -66 -52c0 -30 25 -52 66 -52h46zM1186 247
c56 -152 89 -185 198 -200v-47h-538v47c139 17 162 56 112 201l-93 264h-496l-81 -235c-58 -171 -43 -210 108 -230v-47h-407v47c115 15 145 48 213 235l427 1162h123zM390 574h453l-229 653z" />
    <glyph glyph-name="aringacute" unicode="&#x1fb;" horiz-adv-x="1043" 
d="M740 1461l-500 -88v51l500 171v-134zM517 1082h-55c-118 0 -198 48 -198 122s80 122 198 122h55c121 0 198 -48 198 -122s-77 -122 -198 -122zM514 1134c45 0 68 30 68 70s-23 70 -68 70h-49c-43 0 -69 -30 -69 -70s26 -70 69 -70h49zM372 -19c-163 0 -286 99 -286 244
c0 153 111 244 382 303l213 47v97c0 187 -98 253 -246 253c-73 0 -140 -17 -188 -50c47 -7 85 -50 85 -103c0 -58 -47 -103 -107 -103c-59 0 -108 45 -108 106c0 128 171 221 389 221c222 0 368 -93 368 -302v-506c0 -89 47 -124 107 -124c19 0 36 3 48 8v-43
c-31 -22 -87 -43 -155 -43c-98 0 -169 50 -188 142c-50 -82 -169 -147 -314 -147zM286 260c0 -117 82 -185 190 -185c90 0 162 36 205 101v342l-120 -27c-207 -45 -275 -115 -275 -231z" />
    <glyph glyph-name="AEacute" unicode="&#x1fc;" horiz-adv-x="1929" 
d="M1208 1547l-58 1l145 271h211v-6zM1789 1444l17 -347h-44c-54 221 -137 273 -397 284l-204 9l4 -623l247 4c106 3 129 42 159 201h41l3 -464h-40c-30 156 -54 198 -162 201l-248 4l5 -659l231 10c291 13 365 56 415 324h44l-15 -388h-1027v47c127 16 146 34 145 120
l-3 455h-458l-175 -348c-85 -168 -63 -209 75 -227v-47h-417v47c112 15 154 45 249 226l612 1171h943zM890 1389l-356 -705h426l-5 705h-65z" />
    <glyph glyph-name="aeacute" unicode="&#x1fd;" horiz-adv-x="1607" 
d="M752 1111h-59l164 356h211v-9zM374 -19c-168 0 -289 94 -289 244c0 157 121 266 402 319l200 37v67c0 193 -109 278 -253 278c-73 0 -136 -18 -183 -47c45 -9 79 -48 79 -98c0 -60 -47 -107 -108 -107c-59 0 -107 46 -107 106c0 117 154 216 372 216
c138 0 259 -46 312 -150c76 95 189 150 327 150c250 0 394 -162 394 -403c0 -20 -1 -41 -3 -58h-647c6 -269 159 -452 384 -452c111 0 199 40 256 98v-47c-63 -84 -192 -153 -357 -153c-190 0 -368 103 -436 284c-27 -185 -162 -284 -343 -284zM1124 932
c-143 0 -244 -117 -254 -342l460 3c1 9 1 20 1 30c0 185 -66 309 -207 309zM462 75c118 0 225 81 225 273v179l-132 -26c-204 -43 -273 -125 -273 -241s71 -185 180 -185z" />
    <glyph glyph-name="Ostrokeacute" unicode="&#x1fe;" horiz-adv-x="1640" 
d="M775 1547l-58 1l145 271h210v-6zM99 722c0 413 284 746 721 746c167 0 332 -59 462 -167l128 146l47 -42l-128 -147c129 -128 213 -310 213 -535c0 -413 -285 -747 -722 -747c-167 0 -332 59 -462 167l-127 -146l-48 42l128 147c-128 128 -212 311 -212 536zM340 739
c0 -158 31 -302 89 -418l750 861c-85 135 -212 218 -370 218c-333 0 -469 -291 -469 -661zM1300 706c0 158 -31 302 -88 417l-750 -861c85 -135 212 -218 370 -218c332 0 468 292 468 662z" />
    <glyph glyph-name="ostrokeacute" unicode="&#x1ff;" horiz-adv-x="1176" 
d="M539 1110h-58l163 356h212v-9zM584 -19c-120 0 -228 38 -312 105l-83 -94l-45 40l84 94c-85 88 -136 212 -136 359c0 301 220 509 501 509c120 0 229 -38 313 -106l87 97l46 -40l-88 -98c84 -88 134 -210 134 -356c0 -301 -220 -510 -501 -510zM302 499
c0 -94 14 -177 39 -245l469 526c-52 96 -131 152 -226 152c-177 0 -282 -169 -282 -433zM593 44c177 0 283 170 283 433c0 92 -14 174 -39 242l-469 -525c52 -95 131 -150 225 -150z" />
    <glyph glyph-name="Adblgrave" unicode="&#x200;" horiz-adv-x="1373" 
d="M484 1819l142 -273h-59l-272 266v7h189zM804 1819l80 -273h-58l-199 266v7h177zM1186 247c56 -152 89 -185 198 -200v-47h-538v47c139 17 162 56 112 201l-93 264h-496l-81 -235c-58 -171 -43 -210 108 -230v-47h-407v47c115 15 145 48 213 235l427 1162h123zM390 574
h453l-229 653z" />
    <glyph glyph-name="adblgrave" unicode="&#x201;" horiz-adv-x="1043" 
d="M244 1467l162 -356h-60l-293 347v9h191zM590 1467l97 -356h-58l-221 347v9h182zM372 -19c-163 0 -286 99 -286 244c0 153 111 244 382 303l213 47v97c0 187 -98 253 -246 253c-73 0 -140 -17 -188 -50c47 -7 85 -50 85 -103c0 -58 -47 -103 -107 -103
c-59 0 -108 45 -108 106c0 128 171 221 389 221c222 0 368 -93 368 -302v-506c0 -89 47 -124 107 -124c19 0 36 3 48 8v-43c-31 -22 -87 -43 -155 -43c-98 0 -169 50 -188 142c-50 -82 -169 -147 -314 -147zM286 260c0 -117 82 -185 190 -185c90 0 162 36 205 101v342
l-120 -27c-207 -45 -275 -115 -275 -231z" />
    <glyph glyph-name="Ainvertedbreve" unicode="&#x202;" horiz-adv-x="1373" 
d="M687 1878c155 0 244 -120 244 -241c0 -15 -1 -31 -3 -45h-48v7c0 91 -75 159 -193 159s-193 -68 -193 -159v-7h-48c-2 14 -3 30 -3 45c0 121 88 241 244 241zM1186 247c56 -152 89 -185 198 -200v-47h-538v47c139 17 162 56 112 201l-93 264h-496l-81 -235
c-58 -171 -43 -210 108 -230v-47h-407v47c115 15 145 48 213 235l427 1162h123zM390 574h453l-229 653z" />
    <glyph glyph-name="ainvertedbreve" unicode="&#x203;" horiz-adv-x="1043" 
d="M490 1451c176 0 274 -136 274 -273c0 -17 -1 -35 -4 -51h-53v7c0 102 -85 177 -217 177s-217 -75 -217 -177v-7h-53c-3 16 -4 34 -4 51c0 137 98 273 274 273zM372 -19c-163 0 -286 99 -286 244c0 153 111 244 382 303l213 47v97c0 187 -98 253 -246 253
c-73 0 -140 -17 -188 -50c47 -7 85 -50 85 -103c0 -58 -47 -103 -107 -103c-59 0 -108 45 -108 106c0 128 171 221 389 221c222 0 368 -93 368 -302v-506c0 -89 47 -124 107 -124c19 0 36 3 48 8v-43c-31 -22 -87 -43 -155 -43c-98 0 -169 50 -188 142
c-50 -82 -169 -147 -314 -147zM286 260c0 -117 82 -185 190 -185c90 0 162 36 205 101v342l-120 -27c-207 -45 -275 -115 -275 -231z" />
    <glyph glyph-name="Edblgrave" unicode="&#x204;" horiz-adv-x="1230" 
d="M436 1819l143 -273h-60l-272 266v7h189zM756 1819l80 -273h-58l-199 266v7h177zM1097 1444l14 -347h-43c-52 221 -137 274 -403 284l-237 9v-623l287 4c105 3 128 42 161 201h40v-464h-40c-29 156 -54 198 -161 201l-287 4v-659l263 10c297 12 374 56 427 324h43
l-17 -388h-1084v47c134 16 152 37 152 125v1100c0 89 -18 109 -152 125v47h1037z" />
    <glyph glyph-name="edblgrave" unicode="&#x205;" horiz-adv-x="1042" 
d="M307 1467l161 -356h-59l-293 347v9h191zM653 1467l97 -356h-58l-221 347v9h182zM92 487c0 296 182 509 460 509c257 0 404 -164 404 -408c0 -21 -2 -43 -4 -58h-660c8 -266 159 -447 386 -447c110 0 200 40 258 99v-47c-65 -90 -196 -154 -362 -154
c-277 0 -482 198 -482 506zM551 932c-151 0 -250 -120 -259 -347l473 2c1 10 1 20 1 32c0 186 -73 313 -215 313z" />
    <glyph glyph-name="Einvertedbreve" unicode="&#x206;" horiz-adv-x="1230" 
d="M639 1878c155 0 244 -120 244 -241c0 -15 -1 -31 -3 -45h-47v7c0 91 -76 159 -194 159c-117 0 -193 -68 -193 -159v-7h-47c-3 14 -4 30 -4 45c0 121 88 241 244 241zM1097 1444l14 -347h-43c-52 221 -137 274 -403 284l-237 9v-623l287 4c105 3 128 42 161 201h40v-464
h-40c-29 156 -54 198 -161 201l-287 4v-659l263 10c297 12 374 56 427 324h43l-17 -388h-1084v47c134 16 152 37 152 125v1100c0 89 -18 109 -152 125v47h1037z" />
    <glyph glyph-name="einvertedbreve" unicode="&#x207;" horiz-adv-x="1042" 
d="M553 1451c176 0 274 -136 274 -273c0 -17 -1 -35 -4 -51h-53v7c0 102 -85 177 -217 177s-217 -75 -217 -177v-7h-53c-3 16 -4 34 -4 51c0 137 97 273 274 273zM92 487c0 296 182 509 460 509c257 0 404 -164 404 -408c0 -21 -2 -43 -4 -58h-660c8 -266 159 -447 386 -447
c110 0 200 40 258 99v-47c-65 -90 -196 -154 -362 -154c-277 0 -482 198 -482 506zM551 932c-151 0 -250 -120 -259 -347l473 2c1 10 1 20 1 32c0 186 -73 313 -215 313z" />
    <glyph glyph-name="Idblgrave" unicode="&#x208;" horiz-adv-x="640" 
d="M116 1819l143 -273h-60l-272 266v7h189zM436 1819l80 -273h-58l-199 266v7h177zM428 172c0 -88 19 -109 152 -125v-47h-520v47c134 16 152 37 152 125v1100c0 89 -18 109 -152 125v47h520v-47c-133 -16 -152 -36 -152 -125v-1100z" />
    <glyph glyph-name="idblgrave" unicode="&#x209;" horiz-adv-x="554" 
d="M17 1467l161 -356h-59l-294 347v9h192zM362 1467l97 -356h-58l-221 347v9h182zM380 988v-844c0 -66 17 -82 129 -97v-47h-455v47c112 15 129 31 129 97v666c0 53 -8 65 -64 81l-65 19v41z" />
    <glyph glyph-name="Iinvertedbreve" unicode="&#x20a;" horiz-adv-x="640" 
d="M319 1878c155 0 244 -120 244 -241c0 -15 -1 -31 -3 -45h-47v7c0 91 -76 159 -194 159c-117 0 -193 -68 -193 -159v-7h-47c-2 14 -3 30 -3 45c0 121 87 241 243 241zM428 172c0 -88 19 -109 152 -125v-47h-520v47c134 16 152 37 152 125v1100c0 89 -18 109 -152 125v47
h520v-47c-133 -16 -152 -36 -152 -125v-1100z" />
    <glyph glyph-name="iinvertedbreve" unicode="&#x20b;" horiz-adv-x="554" 
d="M262 1451c159 0 247 -136 247 -273c0 -17 -1 -35 -4 -51h-48v7c0 102 -76 177 -195 177s-195 -75 -195 -177v-7h-48c-3 16 -4 34 -4 51c0 137 88 273 247 273zM380 988v-844c0 -66 17 -82 129 -97v-47h-455v47c112 15 129 31 129 97v666c0 53 -8 65 -64 81l-65 19v41z
" />
    <glyph glyph-name="Odblgrave" unicode="&#x20c;" horiz-adv-x="1640" 
d="M610 1819l142 -273h-59l-272 266v7h189zM930 1819l80 -273h-58l-199 266v7h177zM99 722c0 413 284 746 721 746c366 0 722 -282 722 -745c0 -413 -285 -747 -722 -747c-366 0 -721 283 -721 746zM340 739c0 -387 189 -695 492 -695c333 0 468 292 468 662
c0 387 -188 694 -491 694c-333 0 -469 -291 -469 -661z" />
    <glyph glyph-name="odblgrave" unicode="&#x20d;" horiz-adv-x="1182" 
d="M345 1467l161 -356h-59l-294 347v9h192zM690 1467l98 -356h-59l-220 347v9h181zM586 -19c-277 0 -494 202 -494 505c0 301 220 510 504 510c278 0 495 -202 495 -504c0 -301 -222 -511 -505 -511zM596 46c175 0 279 169 279 432c0 273 -119 454 -289 454
c-175 0 -279 -169 -279 -432c0 -273 118 -454 289 -454z" />
    <glyph glyph-name="Oinvertedbreve" unicode="&#x20e;" horiz-adv-x="1640" 
d="M813 1878c155 0 244 -120 244 -241c0 -15 -1 -31 -3 -45h-48v7c0 91 -75 159 -193 159s-193 -68 -193 -159v-7h-48c-2 14 -3 30 -3 45c0 121 88 241 244 241zM99 722c0 413 284 746 721 746c366 0 722 -282 722 -745c0 -413 -285 -747 -722 -747
c-366 0 -721 283 -721 746zM340 739c0 -387 189 -695 492 -695c333 0 468 292 468 662c0 387 -188 694 -491 694c-333 0 -469 -291 -469 -661z" />
    <glyph glyph-name="oinvertedbreve" unicode="&#x20f;" horiz-adv-x="1182" 
d="M590 1451c176 0 274 -136 274 -273c0 -17 -1 -35 -4 -51h-53v7c0 102 -85 177 -217 177s-217 -75 -217 -177v-7h-53c-3 16 -4 34 -4 51c0 137 98 273 274 273zM586 -19c-277 0 -494 202 -494 505c0 301 220 510 504 510c278 0 495 -202 495 -504
c0 -301 -222 -511 -505 -511zM596 46c175 0 279 169 279 432c0 273 -119 454 -289 454c-175 0 -279 -169 -279 -432c0 -273 118 -454 289 -454z" />
    <glyph glyph-name="Rdblgrave" unicode="&#x210;" horiz-adv-x="1316" 
d="M413 1819l143 -273h-60l-272 266v7h189zM733 1819l80 -273h-58l-199 266v7h177zM1161 1057c0 -177 -124 -305 -297 -348l204 -388c122 -225 169 -261 229 -278v-43h-284l-350 659h-235v-492c0 -84 20 -102 145 -120v-47h-513v47c134 19 152 38 152 125v1100
c0 91 -18 110 -152 125v47h529c377 0 572 -148 572 -387zM940 1041c0 198 -116 336 -400 345l-112 4v-677l141 5c235 6 371 114 371 323z" />
    <glyph glyph-name="rdblgrave" unicode="&#x211;" horiz-adv-x="805" 
d="M189 1467l161 -356h-59l-294 347v9h192zM534 1467l97 -356h-58l-221 347v9h182zM377 988v-210c118 143 202 214 287 214c74 0 103 -47 103 -101c0 -28 -9 -56 -19 -70c-20 6 -59 10 -99 10c-104 0 -218 -36 -269 -92v-586c0 -76 15 -91 141 -106v-47h-467v47
c114 14 129 30 129 94v669c0 53 -8 65 -64 81l-65 19v41z" />
    <glyph glyph-name="Rinvertedbreve" unicode="&#x212;" horiz-adv-x="1316" 
d="M616 1878c155 0 244 -120 244 -241c0 -15 -1 -31 -3 -45h-47v7c0 91 -76 159 -194 159c-117 0 -193 -68 -193 -159v-7h-47c-3 14 -4 30 -4 45c0 121 88 241 244 241zM1161 1057c0 -177 -124 -305 -297 -348l204 -388c122 -225 169 -261 229 -278v-43h-284l-350 659h-235
v-492c0 -84 20 -102 145 -120v-47h-513v47c134 19 152 38 152 125v1100c0 91 -18 110 -152 125v47h529c377 0 572 -148 572 -387zM940 1041c0 198 -116 336 -400 345l-112 4v-677l141 5c235 6 371 114 371 323z" />
    <glyph glyph-name="rinvertedbreve" unicode="&#x213;" horiz-adv-x="805" 
d="M434 1451c176 0 274 -136 274 -273c0 -17 -1 -35 -4 -51h-53v7c0 102 -85 177 -217 177s-217 -75 -217 -177v-7h-53c-3 16 -4 34 -4 51c0 137 98 273 274 273zM377 988v-210c118 143 202 214 287 214c74 0 103 -47 103 -101c0 -28 -9 -56 -19 -70c-20 6 -59 10 -99 10
c-104 0 -218 -36 -269 -92v-586c0 -76 15 -91 141 -106v-47h-467v47c114 14 129 30 129 94v669c0 53 -8 65 -64 81l-65 19v41z" />
    <glyph glyph-name="Udblgrave" unicode="&#x214;" horiz-adv-x="1493" 
d="M603 1819l143 -273h-60l-272 266v7h189zM923 1819l80 -273h-58l-199 266v7h177zM177 1277c0 86 -20 104 -145 120v47h513v-47c-134 -16 -152 -36 -152 -125v-712c0 -333 180 -488 424 -488c257 0 424 177 420 487l-7 641c-2 148 -20 180 -161 197v47h400v-48
c-130 -15 -149 -49 -152 -195l-7 -654c-4 -347 -206 -571 -565 -571c-291 0 -568 168 -568 576v725z" />
    <glyph glyph-name="udblgrave" unicode="&#x215;" horiz-adv-x="1177" 
d="M336 1467l161 -356h-59l-293 347v9h191zM682 1467l97 -356h-58l-221 347v9h182zM358 988v-649c0 -170 82 -256 228 -256c103 0 179 49 220 117v610c0 53 -7 65 -63 81l-66 19v41l326 37v-818c0 -54 8 -66 64 -83l65 -17v-41l-324 -39v164c-56 -101 -170 -173 -318 -173
c-194 0 -330 105 -330 313v516c0 53 -8 65 -63 81l-65 19v41z" />
    <glyph glyph-name="Uinvertedbreve" unicode="&#x216;" horiz-adv-x="1493" 
d="M806 1878c155 0 244 -120 244 -241c0 -15 -1 -31 -3 -45h-47v7c0 91 -76 159 -194 159c-117 0 -193 -68 -193 -159v-7h-47c-3 14 -4 30 -4 45c0 121 88 241 244 241zM177 1277c0 86 -20 104 -145 120v47h513v-47c-134 -16 -152 -36 -152 -125v-712
c0 -333 180 -488 424 -488c257 0 424 177 420 487l-7 641c-2 148 -20 180 -161 197v47h400v-48c-130 -15 -149 -49 -152 -195l-7 -654c-4 -347 -206 -571 -565 -571c-291 0 -568 168 -568 576v725z" />
    <glyph glyph-name="uinvertedbreve" unicode="&#x217;" horiz-adv-x="1177" 
d="M582 1451c176 0 274 -136 274 -273c0 -17 -1 -35 -4 -51h-53v7c0 102 -85 177 -217 177s-217 -75 -217 -177v-7h-53c-3 16 -4 34 -4 51c0 137 97 273 274 273zM358 988v-649c0 -170 82 -256 228 -256c103 0 179 49 220 117v610c0 53 -7 65 -63 81l-66 19v41l326 37v-818
c0 -54 8 -66 64 -83l65 -17v-41l-324 -39v164c-56 -101 -170 -173 -318 -173c-194 0 -330 105 -330 313v516c0 53 -8 65 -63 81l-65 19v41z" />
    <glyph glyph-name="Scommaaccent" unicode="&#x218;" horiz-adv-x="1151" 
d="M557 -24c-202 0 -360 53 -446 115l-14 319h43c56 -248 222 -366 422 -366c184 0 308 108 308 272c0 149 -93 240 -292 313l-101 36c-237 85 -364 217 -364 415c0 245 205 388 488 388c174 0 308 -46 376 -99l13 -306h-43c-50 225 -174 337 -352 337
c-192 0 -296 -100 -296 -247c0 -150 105 -230 292 -298l99 -36c245 -90 365 -222 365 -425c0 -251 -225 -418 -498 -418zM558 -462c-83 0 -155 33 -187 74v46c33 -24 81 -41 138 -41c65 0 113 30 113 83c0 50 -48 81 -111 81c-34 0 -67 -8 -84 -17v44c26 35 81 68 158 68
c113 0 193 -65 193 -168c0 -102 -88 -170 -220 -170z" />
    <glyph glyph-name="scommaaccent" unicode="&#x219;" horiz-adv-x="911" 
d="M101 717c0 178 157 279 371 279c144 0 251 -31 301 -65l6 -247h-44c-29 162 -132 248 -262 248c-126 0 -204 -63 -204 -157s72 -138 197 -177l77 -23c176 -53 279 -145 279 -304c0 -180 -181 -288 -377 -288c-148 0 -276 36 -343 83l-10 262h43
c38 -185 171 -280 309 -280c128 0 210 71 210 168c0 94 -57 146 -192 187l-77 24c-177 55 -284 140 -284 290zM439 -462c-83 0 -156 33 -188 74v46c34 -24 82 -41 138 -41c66 0 114 30 114 83c0 50 -49 81 -112 81c-33 0 -66 -8 -83 -17v44c26 35 81 68 157 68
c114 0 194 -65 194 -168c0 -102 -88 -170 -220 -170z" />
    <glyph glyph-name="Tcommaaccent" unicode="&#x21a;" horiz-adv-x="1311" 
d="M1251 1444l14 -347h-43c-44 229 -125 277 -399 290l-60 3v-1204c0 -97 20 -123 166 -139v-47h-546v47c145 16 164 42 164 139v1204l-59 -3c-273 -13 -354 -60 -399 -290h-43l14 347h1191zM649 -462c-83 0 -156 33 -188 74v46c33 -24 81 -41 138 -41c65 0 114 30 114 83
c0 50 -49 81 -112 81c-34 0 -66 -8 -84 -17v44c27 35 82 68 158 68c113 0 194 -65 194 -168c0 -102 -89 -170 -220 -170z" />
    <glyph glyph-name="tcommaaccent" unicode="&#x21b;" horiz-adv-x="678" 
d="M170 269v631h-128v32l303 238h22v-202l280 10v-78l-280 8v-625c0 -153 71 -203 166 -203c50 0 98 16 129 43v-47c-37 -50 -125 -95 -232 -95c-145 0 -260 81 -260 288zM419 -462c-83 0 -156 33 -188 74v46c33 -24 82 -41 138 -41c65 0 114 30 114 83c0 50 -49 81 -112 81
c-34 0 -66 -8 -84 -17v44c27 35 82 68 158 68c113 0 194 -65 194 -168c0 -102 -89 -170 -220 -170z" />
    <glyph glyph-name="Hcaron" unicode="&#x21e;" horiz-adv-x="1584" 
d="M1004 1831h56l-205 -272h-107l-205 272h59l200 -147zM428 167c0 -86 20 -104 145 -120v-47h-513v47c134 16 152 37 152 125v1100c0 89 -18 109 -152 125v47h513v-48c-125 -16 -145 -34 -145 -119v-508h728v508c0 86 -18 104 -145 120v47h513v-47
c-131 -16 -152 -36 -152 -125v-1100c0 -88 21 -109 152 -125v-47h-513v47c127 16 145 34 145 120v543h-728v-543z" />
    <glyph glyph-name="hcaron" unicode="&#x21f;" horiz-adv-x="1205" 
d="M469 1857h56l-205 -272h-107l-205 272h59l200 -147zM380 1482v-654c57 99 173 168 320 168c198 0 335 -104 335 -308v-544c0 -66 15 -82 129 -97v-47h-447v47c107 13 121 29 121 92v504c0 167 -86 251 -229 251c-109 0 -188 -48 -229 -117v-638c0 -63 13 -78 121 -92v-47
h-447v47c112 15 129 31 129 97v1159c0 53 -8 65 -64 82l-65 18v41z" />
    <glyph glyph-name="Adotaccent" unicode="&#x226;" horiz-adv-x="1373" 
d="M687 1588c-54 0 -97 43 -97 95c0 53 43 95 97 95c55 0 98 -42 98 -95c0 -52 -43 -95 -98 -95zM1186 247c56 -152 89 -185 198 -200v-47h-538v47c139 17 162 56 112 201l-93 264h-496l-81 -235c-58 -171 -43 -210 108 -230v-47h-407v47c115 15 145 48 213 235l427 1162
h123zM390 574h453l-229 653z" />
    <glyph glyph-name="adotaccent" unicode="&#x227;" horiz-adv-x="1043" 
d="M490 1180c-64 0 -115 49 -115 112s51 111 115 111s115 -48 115 -111s-51 -112 -115 -112zM372 -19c-163 0 -286 99 -286 244c0 153 111 244 382 303l213 47v97c0 187 -98 253 -246 253c-73 0 -140 -17 -188 -50c47 -7 85 -50 85 -103c0 -58 -47 -103 -107 -103
c-59 0 -108 45 -108 106c0 128 171 221 389 221c222 0 368 -93 368 -302v-506c0 -89 47 -124 107 -124c19 0 36 3 48 8v-43c-31 -22 -87 -43 -155 -43c-98 0 -169 50 -188 142c-50 -82 -169 -147 -314 -147zM286 260c0 -117 82 -185 190 -185c90 0 162 36 205 101v342
l-120 -27c-207 -45 -275 -115 -275 -231z" />
    <glyph glyph-name="Ecedilla" unicode="&#x228;" horiz-adv-x="1230" 
d="M607 -461c-83 0 -155 32 -191 80v46c29 -24 78 -41 128 -41c61 0 109 30 109 83c0 56 -52 86 -118 86c-19 0 -38 -3 -46 -7v42l127 172h-556v47c134 16 152 37 152 125v1100c0 89 -18 109 -152 125v47h1037l14 -347h-43c-52 221 -137 274 -403 284l-237 9v-623l287 4
c105 3 128 42 161 201h40v-464h-40c-29 156 -54 198 -161 201l-287 4v-659l263 10c297 12 374 56 427 324h43l-17 -388h-471v-6l-84 -119c10 2 21 3 32 3c110 0 196 -63 196 -168c0 -110 -104 -171 -210 -171z" />
    <glyph glyph-name="ecedilla" unicode="&#x229;" horiz-adv-x="1042" 
d="M92 487c0 296 182 509 460 509c257 0 404 -164 404 -408c0 -21 -2 -43 -4 -58h-660c8 -266 159 -447 386 -447c110 0 200 40 258 99v-47c-60 -83 -176 -144 -324 -153l-75 -107c10 2 21 3 32 3c110 0 196 -63 196 -168c0 -110 -104 -171 -210 -171c-83 0 -155 32 -191 80
v46c29 -24 78 -41 128 -41c61 0 109 30 109 83c0 56 -52 86 -118 86c-19 0 -38 -3 -46 -7v42l113 153c-265 11 -458 207 -458 506zM551 932c-151 0 -250 -120 -259 -347l473 2c1 10 1 20 1 32c0 186 -73 313 -215 313z" />
    <glyph glyph-name="Odieresismacron" unicode="&#x22a;" horiz-adv-x="1640" 
d="M556 1811v86h514v-86h-514zM671 1561h-7c-46 0 -80 31 -80 71s34 71 80 71h7c45 0 80 -31 80 -71s-35 -71 -80 -71zM963 1561h-7c-45 0 -80 31 -80 71s35 71 80 71h7c45 0 80 -31 80 -71s-35 -71 -80 -71zM99 722c0 413 284 746 721 746c366 0 722 -282 722 -745
c0 -413 -285 -747 -722 -747c-366 0 -721 283 -721 746zM340 739c0 -387 189 -695 492 -695c333 0 468 292 468 662c0 387 -188 694 -491 694c-333 0 -469 -291 -469 -661z" />
    <glyph glyph-name="odieresismacron" unicode="&#x22b;" horiz-adv-x="1182" 
d="M339 1419v100h501v-100h-501zM439 1119h-6c-48 0 -85 37 -85 83c0 48 37 86 85 86h6c48 0 85 -38 85 -86c0 -46 -37 -83 -85 -83zM747 1119h-6c-48 0 -84 37 -84 83c0 48 36 86 84 86h6c48 0 85 -38 85 -86c0 -46 -37 -83 -85 -83zM586 -19c-277 0 -494 202 -494 505
c0 301 220 510 504 510c278 0 495 -202 495 -504c0 -301 -222 -511 -505 -511zM596 46c175 0 279 169 279 432c0 273 -119 454 -289 454c-175 0 -279 -169 -279 -432c0 -273 118 -454 289 -454z" />
    <glyph glyph-name="Otildemacron" unicode="&#x22c;" horiz-adv-x="1640" 
d="M556 1811v86h514v-86h-514zM926 1563c-45 0 -84 9 -125 23l-28 9c-40 13 -67 19 -93 19c-43 0 -72 -18 -72 -63h-51c-1 102 62 151 144 151c45 0 84 -9 125 -22l29 -10c40 -12 66 -19 93 -19c42 0 70 18 72 64h51c0 -103 -62 -152 -145 -152zM99 722
c0 413 284 746 721 746c366 0 722 -282 722 -745c0 -413 -285 -747 -722 -747c-366 0 -721 283 -721 746zM340 739c0 -387 189 -695 492 -695c333 0 468 292 468 662c0 387 -188 694 -491 694c-333 0 -469 -291 -469 -661z" />
    <glyph glyph-name="otildemacron" unicode="&#x22d;" horiz-adv-x="1182" 
d="M339 1419v100h501v-100h-501zM699 1128c-43 0 -82 11 -121 27l-28 10c-39 16 -65 23 -91 23c-41 0 -69 -20 -70 -75h-49c-1 121 61 178 141 178c43 0 82 -10 121 -26l28 -11c39 -15 65 -22 91 -22c42 0 69 20 70 74h49c1 -121 -59 -178 -141 -178zM586 -19
c-277 0 -494 202 -494 505c0 301 220 510 504 510c278 0 495 -202 495 -504c0 -301 -222 -511 -505 -511zM596 46c175 0 279 169 279 432c0 273 -119 454 -289 454c-175 0 -279 -169 -279 -432c0 -273 118 -454 289 -454z" />
    <glyph glyph-name="Odotaccent" unicode="&#x22e;" horiz-adv-x="1640" 
d="M813 1588c-54 0 -97 43 -97 95c0 53 43 95 97 95c55 0 98 -42 98 -95c0 -52 -43 -95 -98 -95zM99 722c0 413 284 746 721 746c366 0 722 -282 722 -745c0 -413 -285 -747 -722 -747c-366 0 -721 283 -721 746zM340 739c0 -387 189 -695 492 -695c333 0 468 292 468 662
c0 387 -188 694 -491 694c-333 0 -469 -291 -469 -661z" />
    <glyph glyph-name="odotaccent" unicode="&#x22f;" horiz-adv-x="1182" 
d="M590 1180c-64 0 -115 49 -115 112s51 111 115 111s115 -48 115 -111s-51 -112 -115 -112zM586 -19c-277 0 -494 202 -494 505c0 301 220 510 504 510c278 0 495 -202 495 -504c0 -301 -222 -511 -505 -511zM596 46c175 0 279 169 279 432c0 273 -119 454 -289 454
c-175 0 -279 -169 -279 -432c0 -273 118 -454 289 -454z" />
    <glyph glyph-name="Odotaccentmacron" unicode="&#x230;" horiz-adv-x="1640" 
d="M556 1789v85h514v-85h-514zM813 1556c-49 0 -87 33 -87 76s38 77 87 77c50 0 88 -34 88 -77s-38 -76 -88 -76zM99 722c0 413 284 746 721 746c366 0 722 -282 722 -745c0 -413 -285 -747 -722 -747c-366 0 -721 283 -721 746zM340 739c0 -387 189 -695 492 -695
c333 0 468 292 468 662c0 387 -188 694 -491 694c-333 0 -469 -291 -469 -661z" />
    <glyph glyph-name="odotaccentmacron" unicode="&#x231;" horiz-adv-x="1182" 
d="M339 1408v100h501v-100h-501zM590 1120c-51 0 -92 38 -92 90c0 49 41 89 92 89c52 0 92 -40 92 -89c0 -52 -40 -90 -92 -90zM586 -19c-277 0 -494 202 -494 505c0 301 220 510 504 510c278 0 495 -202 495 -504c0 -301 -222 -511 -505 -511zM596 46
c175 0 279 169 279 432c0 273 -119 454 -289 454c-175 0 -279 -169 -279 -432c0 -273 118 -454 289 -454z" />
    <glyph glyph-name="Ymacron" unicode="&#x232;" horiz-adv-x="1324" 
d="M483 1611v108h489v-108h-489zM227 1196c-99 160 -134 187 -234 201v47h536v-47c-136 -18 -152 -59 -68 -201l281 -470l252 443c94 168 87 210 -61 228v47h398v-47c-103 -16 -141 -50 -257 -237l-303 -486v-488c0 -97 19 -123 164 -139v-47h-545v47c145 16 165 42 165 139
v476z" />
    <glyph glyph-name="ymacron" unicode="&#x233;" horiz-adv-x="1020" 
d="M292 1219v123h542v-123h-542zM163 772c-48 119 -75 141 -162 159v47h474v-47c-125 -16 -145 -41 -98 -166l198 -530l197 525c48 129 27 155 -98 171v47h346v-47c-90 -15 -115 -37 -175 -184l-223 -549l-83 -202l-160 -456h-169v3c80 107 192 304 268 461z" />
    <glyph glyph-name="dotlessj" unicode="&#x237;" horiz-adv-x="532" 
d="M370 988v-832c0 -299 -71 -419 -310 -592l-56 -41l-30 40c161 137 199 286 199 576v671c0 53 -8 65 -63 81l-66 19v41z" />
    <glyph glyph-name="schwa" unicode="&#x259;" horiz-adv-x="1042" 
d="M951 490c0 -296 -182 -509 -461 -509c-256 0 -403 164 -403 408c0 21 1 43 3 58h659c-8 267 -158 447 -385 447c-109 0 -200 -40 -257 -99l-1 48c65 89 197 153 362 153c278 0 483 -198 483 -506zM276 358c0 -186 72 -313 216 -313c151 0 249 120 257 347l-472 -3
c0 -9 -1 -20 -1 -31z" />
    <glyph glyph-name="g.1" unicode="&#x261;" horiz-adv-x="1184" 
d="M92 488c0 305 208 509 468 509c135 0 243 -52 290 -136l92 117h80v-995c0 -306 -216 -470 -499 -470c-241 0 -373 133 -373 260c0 64 47 112 105 112s106 -47 106 -106c0 -60 -47 -106 -104 -106h-6c48 -53 130 -88 241 -88c191 0 331 121 333 376l2 213
c-52 -107 -179 -181 -323 -181c-211 0 -412 180 -412 495zM297 514c0 -256 128 -418 297 -418c109 0 187 43 230 121v599c-32 65 -117 109 -216 109c-182 0 -311 -163 -311 -411z" />
    <glyph glyph-name="quoteright" unicode="&#x2019;" horiz-adv-x="484" 
d="M105 949l-11 41c86 19 159 88 159 177c0 74 -59 130 -142 137c0 87 48 160 128 160c86 0 141 -82 141 -191c0 -171 -135 -299 -275 -324z" />
    <glyph glyph-name="quoteright" unicode="&#x2bc;" horiz-adv-x="484" 
d="M105 949l-11 41c86 19 159 88 159 177c0 74 -59 130 -142 137c0 87 48 160 128 160c86 0 141 -82 141 -191c0 -171 -135 -299 -275 -324z" />
    <glyph glyph-name="circumflex" unicode="&#x2c6;" horiz-adv-x="1024" 
d="M293 1111h-59l227 356h102l227 -356h-61l-216 197z" />
    <glyph glyph-name="caron" unicode="&#x2c7;" horiz-adv-x="1024" 
d="M731 1482h59l-227 -355h-102l-227 355h61l216 -197z" />
    <glyph glyph-name="breve" unicode="&#x2d8;" horiz-adv-x="1024" 
d="M512 1142c-176 0 -274 136 -274 274c0 17 1 34 4 51h53v-8c0 -102 85 -177 217 -177s217 75 217 177v8h53c3 -17 4 -34 4 -51c0 -138 -98 -274 -274 -274z" />
    <glyph glyph-name="dotaccent" unicode="&#x2d9;" horiz-adv-x="1024" 
d="M512 1180c-64 0 -115 49 -115 112s51 111 115 111s115 -48 115 -111s-51 -112 -115 -112z" />
    <glyph glyph-name="ring" unicode="&#x2da;" horiz-adv-x="1024" 
d="M261 1296c0 114 115 188 251 188s251 -74 251 -187c0 -115 -116 -188 -251 -188s-251 73 -251 187zM408 1296c0 -81 43 -134 104 -134s104 53 104 135c0 78 -43 135 -104 135s-104 -57 -104 -136z" />
    <glyph glyph-name="ogonek" unicode="&#x2db;" horiz-adv-x="1024" 
d="M337 -477c-98 0 -175 61 -175 161c0 110 83 220 310 344l50 1c-151 -113 -204 -199 -204 -288c0 -84 54 -127 112 -127c42 0 78 13 99 36v-46c-34 -51 -108 -81 -192 -81z" />
    <glyph glyph-name="tilde" unicode="&#x2dc;" horiz-adv-x="1024" 
d="M625 1171c-53 0 -95 24 -145 61l-30 24c-33 25 -57 38 -85 38c-41 0 -65 -31 -70 -130h-53c-4 185 68 252 157 252c54 0 95 -24 145 -61l30 -23c33 -26 57 -39 85 -39c41 0 65 31 70 130h53c4 -185 -67 -252 -157 -252z" />
    <glyph glyph-name="hungarumlaut" unicode="&#x2dd;" horiz-adv-x="1024" 
d="M414 1467h181v-9l-220 -347h-59zM759 1467h191v-9l-293 -347h-60z" />
    <glyph glyph-name="gravecmb" unicode="&#x300;" 
d="M48 1111l-320 347v9h219l160 -356h-59z" />
    <glyph glyph-name="acutecmb" unicode="&#x301;" 
d="M-48 1111h-59l164 356h211v-9z" />
    <glyph glyph-name="circumflexcmb" unicode="&#x302;" 
d="M-219 1111h-59l227 356h102l227 -356h-61l-216 197z" />
    <glyph glyph-name="tildecmb" unicode="&#x303;" 
d="M113 1171c-53 0 -95 24 -145 61l-30 24c-33 25 -57 38 -85 38c-41 0 -65 -31 -70 -130h-53c-4 185 68 252 157 252c54 0 95 -24 145 -61l30 -23c33 -26 57 -39 85 -39c41 0 65 31 70 130h53c4 -185 -67 -252 -157 -252z" />
    <glyph glyph-name="macroncmb" unicode="&#x304;" 
d="M-271 1219v123h542v-123h-542z" />
    <glyph glyph-name="brevecmb" unicode="&#x306;" 
d="M0 1142c-176 0 -274 136 -274 274c0 17 1 34 4 51h53v-8c0 -102 85 -177 217 -177s217 75 217 177v8h53c3 -17 4 -34 4 -51c0 -138 -98 -274 -274 -274z" />
    <glyph glyph-name="dotaccentcmb" unicode="&#x307;" 
d="M0 1180c-64 0 -115 49 -115 112s51 111 115 111s115 -48 115 -111s-51 -112 -115 -112z" />
    <glyph glyph-name="dieresiscmb" unicode="&#x308;" 
d="M-210 1187c-60 0 -108 46 -108 105s48 105 108 105s108 -46 108 -105s-48 -105 -108 -105zM210 1187c-60 0 -108 46 -108 105s48 105 108 105s108 -46 108 -105s-48 -105 -108 -105z" />
    <glyph glyph-name="hookabovecmb" unicode="&#x309;" 
d="M28 1473c108 0 182 -58 182 -141c0 -81 -58 -146 -221 -217h-58c86 61 134 110 134 168c0 52 -43 88 -112 88c-55 0 -103 -21 -131 -48v44c36 57 107 106 206 106z" />
    <glyph glyph-name="ringcmb" unicode="&#x30a;" 
d="M-251 1296c0 114 115 188 251 188s251 -74 251 -187c0 -115 -116 -188 -251 -188s-251 73 -251 187zM-104 1296c0 -81 43 -134 104 -134s104 53 104 135c0 78 -43 135 -104 135s-104 -57 -104 -136z" />
    <glyph glyph-name="hungarumlautcmb" unicode="&#x30b;" 
d="M-98 1467h181v-9l-220 -347h-59zM247 1467h191v-9l-293 -347h-60z" />
    <glyph glyph-name="caroncmb" unicode="&#x30c;" 
d="M219 1482h59l-227 -355h-102l-227 355h61l216 -197z" />
    <glyph glyph-name="dblgravecmb" unicode="&#x30f;" 
d="M-245 1467l161 -356h-59l-294 347v9h192zM100 1467l97 -356h-58l-221 347v9h182z" />
    <glyph glyph-name="invertedbrevecmb" unicode="&#x311;" 
d="M0 1451c176 0 274 -136 274 -273c0 -17 -1 -35 -4 -51h-53v7c0 102 -85 177 -217 177s-217 -75 -217 -177v-7h-53c-3 16 -4 34 -4 51c0 137 98 273 274 273z" />
    <glyph glyph-name="horncmb" unicode="&#x31b;" 
d="M194 1302h59c77 -28 136 -92 136 -167c0 -108 -108 -192 -409 -196v39c190 0 256 96 256 193c0 58 -18 104 -42 131z" />
    <glyph glyph-name="dotbelowcmb" unicode="&#x323;" 
d="M0 -394c-59 0 -107 44 -107 100c0 57 48 101 107 101s107 -44 107 -101c0 -56 -48 -100 -107 -100z" />
    <glyph glyph-name="dieresisbelowcmb" unicode="&#x324;" 
d="M-195 -388c-56 0 -101 42 -101 94c0 54 45 95 101 95c55 0 100 -41 100 -95c0 -52 -45 -94 -100 -94zM195 -388c-55 0 -100 42 -100 94c0 54 45 95 100 95c56 0 101 -41 101 -95c0 -52 -45 -94 -101 -94z" />
    <glyph glyph-name="ringbelowcmb" unicode="&#x325;" 
d="M-251 -293c0 105 116 172 251 172s251 -67 251 -172c0 -106 -116 -173 -251 -173s-251 67 -251 173zM-104 -293c0 -72 43 -121 104 -121s104 48 104 121c0 71 -43 121 -104 121s-104 -50 -104 -121z" />
    <glyph glyph-name="commaaccentcmb" unicode="&#x326;" 
d="M-14 -462c-83 0 -155 33 -188 74v46c34 -24 82 -41 138 -41c66 0 114 30 114 83c0 50 -48 81 -112 81c-33 0 -66 -8 -83 -17v44c26 35 81 68 157 68c114 0 194 -65 194 -168c0 -102 -88 -170 -220 -170z" />
    <glyph glyph-name="cedillacmb" unicode="&#x327;" 
d="M-25 -461c-84 0 -156 32 -192 80v46c29 -24 79 -41 129 -41c60 0 108 30 108 83c0 56 -51 86 -117 86c-20 0 -39 -3 -47 -7v42l140 190h44v-24l-83 -119c9 2 20 3 32 3c109 0 195 -63 195 -168c0 -110 -104 -171 -209 -171z" />
    <glyph glyph-name="ogonekcmb" unicode="&#x328;" 
d="M-175 -477c-98 0 -175 61 -175 161c0 110 83 220 310 344l50 1c-151 -113 -204 -199 -204 -288c0 -84 54 -127 112 -127c42 0 78 13 99 36v-46c-34 -51 -108 -81 -192 -81z" />
    <glyph glyph-name="circumflexbelowcmb" unicode="&#x32d;" 
d="M-204 -453h-54l211 320h94l211 -320h-56l-201 178z" />
    <glyph glyph-name="brevebelowcmb" unicode="&#x32e;" 
d="M0 -439c-164 0 -255 122 -255 246c0 15 1 31 4 46h49v-7c0 -92 79 -160 202 -160s202 68 202 160v7h49c3 -15 4 -31 4 -46c0 -124 -91 -246 -255 -246z" />
    <glyph glyph-name="tildebelowcmb" unicode="&#x330;" 
d="M105 -403c-50 0 -88 22 -135 55l-27 22c-31 22 -53 34 -80 34c-38 0 -61 -28 -65 -117h-49c-4 167 63 227 146 227c51 0 88 -22 135 -56l27 -20c31 -24 53 -35 80 -35c38 0 61 28 65 117h49c4 -166 -63 -227 -146 -227z" />
    <glyph glyph-name="macronbelowcmb" unicode="&#x332;" 
d="M-252 -348v111h504v-111h-504z" />
    <glyph glyph-name="macronbelowcmb" unicode="&#x331;" 
d="M-252 -348v111h504v-111h-504z" />
    <glyph glyph-name="numeralsign.grek" unicode="&#x374;" horiz-adv-x="247" 
d="M60 1037h-44l44 407h171z" />
    <glyph glyph-name="lownumeralsign.grek" unicode="&#x375;" horiz-adv-x="247" 
d="M187 21h44l-44 -407h-171z" />
    <glyph glyph-name="tonosgreek" unicode="&#x384;" horiz-adv-x="1024" 
d="M465 1111l54 356h202v-9l-199 -347h-57z" />
    <glyph glyph-name="dieresistonosgreek" unicode="&#x385;" horiz-adv-x="1024" 
d="M497 1467h174v-9l-169 -347h-48zM759 1178c-52 0 -93 40 -93 91c0 52 41 91 93 91s94 -39 94 -91c0 -51 -42 -91 -94 -91zM302 1178c-52 0 -94 40 -94 91c0 52 42 91 94 91s93 -39 93 -91c0 -51 -41 -91 -93 -91z" />
    <glyph glyph-name="Alphatonos.grek" unicode="&#x386;" horiz-adv-x="1374" 
d="M1186 247c56 -152 89 -185 198 -200v-47h-538v47c139 17 162 56 112 201l-93 264h-496l-81 -235c-58 -171 -43 -210 108 -230v-47h-407v47c115 15 145 48 213 235l427 1162h123zM197 1088l53 356h203v-8l-199 -348h-57zM390 574h453l-229 653z" />
    <glyph glyph-name="anoteleia.grek" unicode="&#x387;" horiz-adv-x="493" 
d="M243 735c-70 0 -127 57 -127 127c0 71 57 126 127 126c69 0 126 -55 126 -126c0 -70 -57 -127 -126 -127z" />
    <glyph glyph-name="Epsilontonos.grek" unicode="&#x388;" horiz-adv-x="1506" 
d="M1371 1444l15 -347h-44c-52 221 -137 274 -403 284l-237 9v-623l287 4c106 3 129 42 161 201h40v-464h-40c-28 156 -53 198 -161 201l-287 4v-659l263 10c298 12 375 56 427 324h44l-18 -388h-1084v47c134 16 152 37 152 125v1100c0 89 -18 109 -152 125v47h1037zM0 1088
l54 356h202v-8l-199 -348h-57z" />
    <glyph glyph-name="Etatonos.grek" unicode="&#x389;" horiz-adv-x="1858" 
d="M702 167c0 -86 21 -104 146 -120v-47h-514v47c134 16 152 37 152 125v1100c0 89 -18 109 -152 125v47h514v-48c-125 -16 -146 -34 -146 -119v-508h728v508c0 86 -18 104 -145 120v47h513v-47c-131 -16 -152 -36 -152 -125v-1100c0 -88 21 -109 152 -125v-47h-513v47
c127 16 145 34 145 120v543h-728v-543zM0 1088l54 356h202v-8l-199 -348h-57z" />
    <glyph glyph-name="Iotatonos.grek" unicode="&#x38a;" horiz-adv-x="911" 
d="M698 172c0 -88 19 -109 152 -125v-47h-520v47c134 16 152 37 152 125v1100c0 89 -18 109 -152 125v47h520v-47c-133 -16 -152 -36 -152 -125v-1100zM-4 1088l54 356h202v-8l-199 -348h-57z" />
    <glyph glyph-name="Omicrontonos.grek" unicode="&#x38c;" horiz-adv-x="1699" 
d="M156 722c0 413 284 746 722 746c366 0 722 -282 722 -745c0 -413 -285 -747 -722 -747c-366 0 -722 283 -722 746zM-4 1088l54 356h202v-8l-199 -348h-57zM398 739c0 -387 188 -695 492 -695c333 0 468 292 468 662c0 387 -189 694 -492 694c-333 0 -468 -291 -468 -661z
" />
    <glyph glyph-name="Upsilontonos.grek" unicode="&#x38e;" horiz-adv-x="1630" 
d="M533 1196c-99 160 -134 187 -234 201v47h536v-47c-136 -18 -153 -59 -68 -201l281 -470l251 443c95 168 88 210 -60 228v47h398v-47c-103 -16 -141 -50 -257 -237l-304 -486v-488c0 -97 20 -123 165 -139v-47h-545v47c144 16 164 42 164 139v476zM-4 1088l54 356h202v-8
l-199 -348h-57z" />
    <glyph glyph-name="Omegatonos.grek" unicode="&#x38f;" horiz-adv-x="1669" 
d="M192 0l-48 343h38c76 -172 215 -207 537 -207v114c-326 53 -542 274 -542 586c0 359 287 632 701 632c407 0 709 -261 709 -617c0 -319 -207 -550 -542 -601v-114c335 0 467 37 537 207h37l-46 -343h-585v284c242 65 372 281 372 552c0 330 -179 564 -487 564
c-304 0 -469 -229 -469 -548c0 -274 124 -496 373 -568v-284h-585zM-4 1088l54 356h202v-8l-199 -348h-57z" />
    <glyph glyph-name="iotadieresistonos.grek" unicode="&#x390;" horiz-adv-x="620" 
d="M231 1467h174v-9l-169 -347h-48zM494 1178c-52 0 -93 40 -93 91c0 52 41 91 93 91s94 -39 94 -91c0 -51 -42 -91 -94 -91zM37 1178c-53 0 -95 40 -95 91c0 52 42 91 95 91c51 0 93 -39 93 -91c0 -51 -42 -91 -93 -91zM383 -19c-141 0 -235 84 -236 271l-3 726h204
c-10 -250 -22 -566 -22 -696c0 -133 61 -191 158 -191c61 0 106 17 136 40v-47c-47 -61 -138 -103 -237 -103z" />
    <glyph glyph-name="Alpha.grek" unicode="&#x391;" horiz-adv-x="1373" 
d="M1186 247c56 -152 89 -185 198 -200v-47h-538v47c139 17 162 56 112 201l-93 264h-496l-81 -235c-58 -171 -43 -210 108 -230v-47h-407v47c115 15 145 48 213 235l427 1162h123zM390 574h453l-229 653z" />
    <glyph glyph-name="Beta.grek" unicode="&#x392;" horiz-adv-x="1320" 
d="M1231 413c0 -281 -292 -413 -622 -413h-549v47c134 16 152 37 152 125v1100c0 89 -18 109 -152 125v47h549c343 0 550 -122 550 -345c0 -194 -181 -300 -398 -320c278 -17 470 -139 470 -366zM935 1078c0 176 -103 299 -377 307l-130 5v-601h184c210 1 323 107 323 289z
M999 398c0 206 -138 333 -387 335l-184 1v-680l130 5c277 8 441 120 441 339z" />
    <glyph glyph-name="Gamma.grek" unicode="&#x393;" horiz-adv-x="1109" 
d="M60 0v47c134 16 152 37 152 125v1100c0 89 -18 109 -152 125v47h989l14 -345h-43c-50 218 -132 272 -396 283l-196 8v-1204c0 -97 19 -123 165 -139v-47h-533z" />
    <glyph glyph-name="Delta.grek" unicode="&#x394;" horiz-adv-x="1279" 
d="M48 0v106l534 1338h123l525 -1339v-105h-1182zM142 148h842l-410 1086z" />
    <glyph glyph-name="Epsilon.grek" unicode="&#x395;" horiz-adv-x="1230" 
d="M1097 1444l14 -347h-43c-52 221 -137 274 -403 284l-237 9v-623l287 4c105 3 128 42 161 201h40v-464h-40c-29 156 -54 198 -161 201l-287 4v-659l263 10c297 12 374 56 427 324h43l-17 -388h-1084v47c134 16 152 37 152 125v1100c0 89 -18 109 -152 125v47h1037z" />
    <glyph glyph-name="Zeta.grek" unicode="&#x396;" horiz-adv-x="1245" 
d="M1152 0h-1074v43l827 1347l-325 -10c-328 -11 -393 -62 -442 -283h-43l17 347h1037v-43l-828 -1347l333 12c323 12 415 52 472 322h43z" />
    <glyph glyph-name="Eta.grek" unicode="&#x397;" horiz-adv-x="1584" 
d="M428 167c0 -86 20 -104 145 -120v-47h-513v47c134 16 152 37 152 125v1100c0 89 -18 109 -152 125v47h513v-48c-125 -16 -145 -34 -145 -119v-508h728v508c0 86 -18 104 -145 120v47h513v-47c-131 -16 -152 -36 -152 -125v-1100c0 -88 21 -109 152 -125v-47h-513v47
c127 16 145 34 145 120v543h-728v-543z" />
    <glyph glyph-name="Theta.grek" unicode="&#x398;" horiz-adv-x="1642" 
d="M821 -24c-366 0 -723 283 -723 746c0 413 285 746 723 746c365 0 722 -282 722 -745c0 -413 -285 -747 -722 -747zM832 43c337 0 475 292 475 663c0 389 -191 695 -498 695c-337 0 -473 -291 -473 -662c0 -389 189 -696 496 -696zM515 487v464h39
c30 -153 52 -203 192 -203h146c139 0 161 50 191 203h40v-464h-40c-29 151 -52 203 -191 203h-146c-140 0 -162 -52 -192 -203h-39z" />
    <glyph glyph-name="Iota.grek" unicode="&#x399;" horiz-adv-x="640" 
d="M428 172c0 -88 19 -109 152 -125v-47h-520v47c134 16 152 37 152 125v1100c0 89 -18 109 -152 125v47h520v-47c-133 -16 -152 -36 -152 -125v-1100z" />
    <glyph glyph-name="Kappa.grek" unicode="&#x39a;" horiz-adv-x="1341" 
d="M428 167c0 -86 20 -104 145 -120v-47h-513v47c134 16 152 37 152 125v1100c0 89 -18 109 -152 125v47h513v-48c-125 -16 -145 -34 -145 -119v-498l155 1l339 406c125 151 121 198 -28 211v47h432v-47c-106 -22 -183 -79 -339 -247c-87 -92 -175 -190 -252 -279l350 -549
c130 -202 185 -257 260 -279v-43h-303l-459 723l-155 1v-557z" />
    <glyph glyph-name="Lambda.grek" unicode="&#x39b;" horiz-adv-x="1361" 
d="M-5 0v47c104 13 143 47 204 213l424 1184h124l422 -1196c56 -156 94 -187 198 -201v-47h-538v47c120 16 164 47 118 182l-338 996l-318 -958c-51 -154 -45 -202 110 -220v-47h-406z" />
    <glyph glyph-name="Mu.grek" unicode="&#x39c;" horiz-adv-x="1803" 
d="M444 1444l471 -1217l429 1217h378v-47c-127 -16 -149 -37 -147 -125l34 -1100c3 -91 20 -110 151 -125v-47h-511v47c127 14 147 33 145 123l-33 1103l-370 -974l-112 -299h-88l-506 1286l-10 -1046c-2 -144 14 -176 151 -193v-47h-399v47c135 17 154 49 160 191l35 1003
c4 107 -23 138 -142 156v47h364z" />
    <glyph glyph-name="Nu.grek" unicode="&#x39d;" horiz-adv-x="1486" 
d="M404 1444l830 -1201l-20 956c-2 151 -20 183 -160 198v47h405v-47c-136 -18 -153 -51 -155 -198l-8 -1199h-160l-886 1280l19 -1034c2 -152 21 -184 160 -199v-47h-405v47c136 18 154 51 155 198l8 996c0 107 -25 136 -144 156v47h361z" />
    <glyph glyph-name="Xi.grek" unicode="&#x39e;" horiz-adv-x="1342" 
d="M82 1084l14 360h1149l15 -360h-44c-50 176 -132 212 -386 212h-318c-254 0 -336 -36 -387 -212h-43zM292 512v436h41c25 -143 67 -186 249 -186h177c182 0 224 43 250 186h40v-436h-40c-26 144 -68 191 -250 191h-177c-182 0 -224 -47 -249 -191h-41zM86 0l-17 400h43
c52 -220 128 -249 421 -249h276c292 0 368 29 420 249h43l-17 -400h-1169z" />
    <glyph glyph-name="Omicron.grek" unicode="&#x39f;" horiz-adv-x="1640" 
d="M99 722c0 413 284 746 721 746c366 0 722 -282 722 -745c0 -413 -285 -747 -722 -747c-366 0 -721 283 -721 746zM340 739c0 -387 189 -695 492 -695c333 0 468 292 468 662c0 387 -188 694 -491 694c-333 0 -469 -291 -469 -661z" />
    <glyph glyph-name="Pi.grek" unicode="&#x3a0;" horiz-adv-x="1543" 
d="M60 0v47c134 16 152 37 152 125v1100c0 89 -18 109 -152 125v47h1423v-47c-133 -16 -152 -36 -152 -125v-1100c0 -88 19 -109 152 -125v-47h-513v47c125 16 145 34 145 120v1218h-687v-1218c0 -86 20 -104 145 -120v-47h-513z" />
    <glyph glyph-name="Rho.grek" unicode="&#x3a1;" horiz-adv-x="1263" 
d="M1177 1026c0 -298 -264 -445 -604 -445h-145v-395c0 -97 19 -123 165 -139v-47h-533v47c134 16 152 37 152 125v1100c0 89 -18 109 -152 125v47h513c379 0 604 -144 604 -418zM945 1013c0 218 -134 362 -423 373l-94 4v-754l94 3c289 11 423 150 423 374z" />
    <glyph glyph-name="Sigma.grek" unicode="&#x3a3;" horiz-adv-x="1278" 
d="M81 0v105l505 593l-511 703v43h1048l14 -347h-44c-53 214 -124 273 -419 283l-338 11l426 -592v-21l-560 -620h514c293 0 368 30 421 253h44l-17 -411h-1083z" />
    <glyph glyph-name="Tau.grek" unicode="&#x3a4;" horiz-adv-x="1311" 
d="M1251 1444l14 -347h-43c-44 229 -125 277 -399 290l-60 3v-1204c0 -97 20 -123 166 -139v-47h-546v47c145 16 164 42 164 139v1204l-59 -3c-273 -13 -354 -60 -399 -290h-43l14 347h1191z" />
    <glyph glyph-name="Upsilon.grek" unicode="&#x3a5;" horiz-adv-x="1324" 
d="M227 1196c-99 160 -134 187 -234 201v47h536v-47c-136 -18 -152 -59 -68 -201l281 -470l252 443c94 168 87 210 -61 228v47h398v-47c-103 -16 -141 -50 -257 -237l-303 -486v-488c0 -97 19 -123 164 -139v-47h-545v47c145 16 165 42 165 139v476z" />
    <glyph glyph-name="Phi.grek" unicode="&#x3a6;" horiz-adv-x="1785" 
d="M625 0v47c145 16 164 42 164 139v15c-414 13 -701 192 -701 519c0 341 315 510 701 523v16c0 97 -19 122 -164 138v47h535v-47c-144 -16 -165 -41 -165 -138v-15c413 -13 701 -192 701 -518c0 -340 -314 -511 -701 -525v-15c0 -97 21 -123 165 -139v-47h-535zM1472 718
c0 276 -168 449 -477 465v-920c292 17 477 186 477 455zM312 728c0 -276 169 -449 477 -465v920c-292 -17 -477 -187 -477 -455z" />
    <glyph glyph-name="Chi.grek" unicode="&#x3a7;" horiz-adv-x="1352" 
d="M283 286l288 417l-343 526c-76 117 -113 147 -211 168v47h535v-47c-147 -20 -151 -54 -76 -170l271 -416l233 368c101 159 97 198 -56 218v47h414v-47c-110 -14 -152 -48 -277 -229l-282 -407l356 -546c76 -118 119 -147 217 -168v-47h-541v47c143 21 148 63 76 170
l-283 434l-244 -381c-101 -164 -99 -203 54 -223v-47h-413v47c110 14 152 48 282 239z" />
    <glyph glyph-name="Psi.grek" unicode="&#x3a8;" horiz-adv-x="1721" 
d="M593 0v47c145 16 164 42 164 139v343c-304 9 -486 129 -530 448l-34 250c-18 125 -53 156 -144 160v46c27 5 77 11 125 11c130 0 199 -53 225 -228l38 -262c36 -243 125 -354 320 -366v689c0 85 -20 103 -145 119v48h496v-48c-124 -16 -144 -34 -144 -119v-689
c195 13 284 123 320 366l38 262c26 175 94 228 225 228c48 0 97 -6 125 -11v-46c-91 -4 -126 -35 -144 -160l-34 -250c-45 -319 -226 -439 -530 -448v-343c0 -97 20 -123 164 -139v-47h-535z" />
    <glyph glyph-name="Omega.grek" unicode="&#x2126;" horiz-adv-x="1561" 
d="M84 0l-48 343h38c76 -172 216 -207 538 -207v114c-326 53 -543 274 -543 586c0 359 287 632 702 632c406 0 709 -261 709 -617c0 -319 -208 -550 -543 -601v-114c336 0 468 37 538 207h37l-47 -343h-585v284c243 65 373 281 373 552c0 330 -179 564 -487 564
c-305 0 -469 -229 -469 -548c0 -274 124 -496 372 -568v-284h-585z" />
    <glyph glyph-name="Omega.grek" unicode="&#x3a9;" horiz-adv-x="1561" 
d="M84 0l-48 343h38c76 -172 216 -207 538 -207v114c-326 53 -543 274 -543 586c0 359 287 632 702 632c406 0 709 -261 709 -617c0 -319 -208 -550 -543 -601v-114c336 0 468 37 538 207h37l-47 -343h-585v284c243 65 373 281 373 552c0 330 -179 564 -487 564
c-305 0 -469 -229 -469 -548c0 -274 124 -496 372 -568v-284h-585z" />
    <glyph glyph-name="Iotadieresis.grek" unicode="&#x3aa;" horiz-adv-x="640" 
d="M162 1587c-54 0 -96 42 -96 95s42 95 96 95c53 0 96 -42 96 -95s-43 -95 -96 -95zM479 1587c-54 0 -96 42 -96 95s42 95 96 95c53 0 96 -42 96 -95s-43 -95 -96 -95zM428 172c0 -88 19 -109 152 -125v-47h-520v47c134 16 152 37 152 125v1100c0 89 -18 109 -152 125v47
h520v-47c-133 -16 -152 -36 -152 -125v-1100z" />
    <glyph glyph-name="Upsilondieresis.grek" unicode="&#x3ab;" horiz-adv-x="1324" 
d="M569 1587c-54 0 -96 42 -96 95s42 95 96 95s96 -42 96 -95s-42 -95 -96 -95zM886 1587c-54 0 -96 42 -96 95s42 95 96 95s96 -42 96 -95s-42 -95 -96 -95zM227 1196c-99 160 -134 187 -234 201v47h536v-47c-136 -18 -152 -59 -68 -201l281 -470l252 443
c94 168 87 210 -61 228v47h398v-47c-103 -16 -141 -50 -257 -237l-303 -486v-488c0 -97 19 -123 164 -139v-47h-545v47c145 16 165 42 165 139v476z" />
    <glyph glyph-name="alphatonos.grek" unicode="&#x3ac;" horiz-adv-x="1265" 
d="M523 1111l54 355h203v-8l-199 -347h-58zM464 -19c-196 0 -372 165 -372 492c0 304 163 523 421 523c202 0 311 -125 379 -369c34 118 65 239 89 351h205l-236 -506l10 -34c78 -286 127 -345 199 -345c24 0 48 7 66 19v-43c-38 -47 -102 -82 -172 -82
c-115 0 -177 73 -224 280c-106 -197 -215 -286 -365 -286zM304 492c0 -257 85 -415 229 -415c112 0 202 98 275 289l-38 189c-50 258 -125 375 -247 375c-138 0 -219 -171 -219 -438z" />
    <glyph glyph-name="epsilontonos.grek" unicode="&#x3ad;" horiz-adv-x="996" 
d="M504 1111l54 356h203v-9l-200 -347h-57zM491 -19c-234 0 -380 100 -380 255c0 140 125 233 353 237c-205 5 -330 107 -330 249c0 153 129 274 413 274c251 0 374 -89 374 -209c0 -61 -49 -107 -106 -107c-65 0 -106 53 -106 104c0 50 34 87 75 98c-53 35 -131 51 -226 51
c-165 0 -248 -69 -248 -168c0 -112 102 -169 343 -169h50l23 -143h-102c-208 0 -307 -67 -307 -177c0 -107 104 -164 268 -164c153 0 278 48 348 113v-47c-76 -112 -226 -197 -442 -197z" />
    <glyph glyph-name="etatonos.grek" unicode="&#x3ae;" horiz-adv-x="1133" 
d="M439 1111l54 356h202v-9l-199 -347h-57zM182 0c7 252 13 497 16 708c2 134 -40 181 -120 181c-25 0 -45 -6 -58 -15v47c37 37 99 67 172 67c99 0 171 -52 180 -180c39 110 147 188 304 188c191 0 329 -86 330 -384l3 -1072h-205c10 382 16 739 16 1009
c0 256 -62 344 -229 344c-104 0 -179 -54 -210 -140l5 -753h-204z" />
    <glyph glyph-name="iotatonos.grek" unicode="&#x3af;" horiz-adv-x="620" 
d="M211 1111l53 356h203v-9l-199 -347h-57zM383 -19c-141 0 -235 84 -236 271l-3 726h204c-10 -250 -22 -566 -22 -696c0 -133 61 -191 158 -191c61 0 106 17 136 40v-47c-47 -61 -138 -103 -237 -103z" />
    <glyph glyph-name="upsilondieresistonos.grek" unicode="&#x3b0;" horiz-adv-x="1074" 
d="M510 1467h174v-9l-169 -347h-48zM772 1178c-51 0 -93 40 -93 91c0 52 42 91 93 91c53 0 95 -39 95 -91c0 -51 -42 -91 -95 -91zM315 1178c-52 0 -94 40 -94 91c0 52 42 91 94 91s93 -39 93 -91c0 -51 -41 -91 -93 -91zM539 -19c-234 0 -357 149 -357 367
c0 67 6 327 6 396c0 107 -38 146 -109 146c-30 0 -51 -7 -64 -15v46c35 35 103 67 180 67c124 0 191 -72 191 -232c0 -51 -9 -307 -9 -377c0 -187 75 -291 232 -291c161 0 271 117 271 349c0 201 -93 360 -232 399c-25 92 26 160 104 160c130 0 221 -180 221 -458
c0 -368 -203 -557 -434 -557z" />
    <glyph glyph-name="alpha.grek" unicode="&#x3b1;" horiz-adv-x="1265" 
d="M464 -19c-196 0 -372 165 -372 492c0 304 163 523 421 523c202 0 311 -125 379 -369c34 118 65 239 89 351h205l-236 -506l10 -34c78 -286 127 -345 199 -345c24 0 48 7 66 19v-43c-38 -47 -102 -82 -172 -82c-115 0 -177 73 -224 280c-106 -197 -215 -286 -365 -286z
M304 492c0 -257 85 -415 229 -415c112 0 202 98 275 289l-38 189c-50 258 -125 375 -247 375c-138 0 -219 -171 -219 -438z" />
    <glyph glyph-name="beta.grek" unicode="&#x3b2;" horiz-adv-x="1166" 
d="M144 -460l2 1466c1 349 194 482 444 482c247 0 405 -120 405 -325c0 -185 -165 -302 -329 -324c235 -14 409 -171 409 -432c0 -265 -205 -428 -442 -428c-125 0 -236 49 -293 113c2 -160 4 -344 7 -552h-203zM334 1059c0 -132 -1 -401 5 -899c48 -64 141 -109 255 -109
c164 0 288 103 288 321c0 214 -145 350 -410 338v145c226 4 338 111 338 310c0 158 -84 258 -226 258c-162 0 -250 -110 -250 -364z" />
    <glyph glyph-name="gamma.grek" unicode="&#x3b3;" horiz-adv-x="1051" 
d="M422 -460l47 382l-224 693c-72 226 -100 274 -170 274c-27 0 -46 -10 -60 -20v46c34 38 90 73 170 73c119 0 173 -75 240 -303l165 -561l227 854h226c-128 -252 -286 -612 -437 -937l37 -501h-221z" />
    <glyph glyph-name="delta.grek" unicode="&#x3b4;" horiz-adv-x="1131" 
d="M553 -19c-275 0 -474 176 -474 446c0 246 163 422 400 481l-6 5c-192 127 -249 203 -249 316c0 159 137 260 354 260c171 0 321 -55 394 -122l-95 -167c-128 133 -251 205 -366 205c-95 0 -138 -44 -138 -105c0 -67 38 -112 181 -211l107 -74c261 -182 379 -319 379 -555
c0 -296 -220 -479 -487 -479zM291 423c0 -207 88 -377 264 -377c156 0 279 134 279 366c0 171 -67 302 -252 426l-44 30c-145 -66 -247 -216 -247 -445z" />
    <glyph glyph-name="epsilon.grek" unicode="&#x3b5;" horiz-adv-x="996" 
d="M491 -19c-234 0 -380 100 -380 255c0 140 125 233 353 237c-205 5 -330 107 -330 249c0 153 129 274 413 274c251 0 374 -89 374 -209c0 -61 -49 -107 -106 -107c-65 0 -106 53 -106 104c0 50 34 87 75 98c-53 35 -131 51 -226 51c-165 0 -248 -69 -248 -168
c0 -112 102 -169 343 -169h50l23 -143h-102c-208 0 -307 -67 -307 -177c0 -107 104 -164 268 -164c153 0 278 48 348 113v-47c-76 -112 -226 -197 -442 -197z" />
    <glyph glyph-name="zeta.grek" unicode="&#x3b6;" horiz-adv-x="799" 
d="M623 -400c31 60 54 133 54 196c0 93 -44 150 -159 176l-66 14c-269 59 -380 181 -380 366c0 164 77 314 356 639l252 301h-593v161l513 -9h162v-135l-273 -346c-210 -266 -257 -378 -257 -515c0 -138 72 -223 255 -264l65 -14c185 -41 249 -131 249 -253
c0 -100 -57 -214 -132 -317h-46z" />
    <glyph glyph-name="eta.grek" unicode="&#x3b7;" horiz-adv-x="1133" 
d="M182 0c7 252 13 497 16 708c2 134 -40 181 -120 181c-25 0 -45 -6 -58 -15v47c37 37 99 67 172 67c99 0 171 -52 180 -180c39 110 147 188 304 188c191 0 329 -86 330 -384l3 -1072h-205c10 382 16 739 16 1009c0 256 -62 344 -229 344c-104 0 -179 -54 -210 -140l5 -753
h-204z" />
    <glyph glyph-name="theta.grek" unicode="&#x3b8;" horiz-adv-x="1170" 
d="M580 -19c-263 0 -478 222 -478 763c0 499 187 744 488 745c262 1 478 -206 478 -746c0 -500 -187 -761 -488 -762zM580 1424c-185 0 -272 -177 -275 -647l560 22c-9 414 -99 625 -285 625zM590 47c183 0 271 188 275 649l-560 23c4 -436 95 -673 285 -672z" />
    <glyph glyph-name="iota.grek" unicode="&#x3b9;" horiz-adv-x="620" 
d="M383 -19c-141 0 -235 84 -236 271l-3 726h204c-10 -250 -22 -566 -22 -696c0 -133 61 -191 158 -191c61 0 106 17 136 40v-47c-47 -61 -138 -103 -237 -103z" />
    <glyph glyph-name="kappa.grek" unicode="&#x3ba;" horiz-adv-x="1092" 
d="M146 0l-2 978h205l-13 -652c80 123 172 253 296 425c131 185 189 244 274 244c67 0 103 -46 103 -102c0 -29 -12 -57 -29 -72c-118 13 -246 -55 -337 -171l161 -327c91 -180 142 -230 194 -230c24 0 47 8 63 20v-43c-41 -49 -102 -83 -172 -83c-102 0 -162 64 -266 278
l-112 227l-176 -226l-5 -266h-184z" />
    <glyph glyph-name="lambda.grek" unicode="&#x3bb;" horiz-adv-x="1038" 
d="M27 0l479 1021c-99 235 -202 304 -375 294c-15 14 -25 40 -25 70c0 56 38 104 114 104c104 0 165 -69 277 -343l365 -909c53 -129 86 -144 128 -144c19 0 45 9 59 20v-43c-31 -44 -91 -83 -163 -83c-113 0 -170 61 -197 224l-106 613l-348 -824h-208z" />
    <glyph glyph-name="nu.grek" unicode="&#x3bd;" horiz-adv-x="1074" 
d="M442 0l-203 635c-66 208 -99 254 -160 254c-28 0 -50 -9 -64 -20v47c34 37 95 72 171 72c120 0 172 -77 240 -309l181 -606c150 277 215 443 215 577c0 108 -46 188 -113 216c-2 77 49 130 120 130c89 0 144 -69 144 -189c0 -135 -61 -284 -228 -579l-129 -228h-174z" />
    <glyph glyph-name="xi.grek" unicode="&#x3be;" horiz-adv-x="883" 
d="M688 -400c32 60 54 133 54 196c0 91 -36 152 -155 171l-80 13c-257 40 -412 154 -412 361c0 229 183 344 440 357c-251 10 -385 132 -385 294c0 158 142 278 407 302h-443v159l570 -9h155v-145c-410 -2 -541 -103 -541 -241c0 -144 133 -220 369 -220h81v-153h-96
c-266 0 -386 -99 -386 -254c0 -150 102 -232 290 -262l79 -13c176 -28 231 -126 231 -238c0 -103 -56 -217 -132 -318h-46z" />
    <glyph glyph-name="omicron.grek" unicode="&#x3bf;" horiz-adv-x="1157" 
d="M578 -19c-282 0 -486 199 -486 507c0 309 219 508 491 508c276 0 483 -198 483 -507c0 -308 -222 -508 -488 -508zM583 46c168 0 267 161 267 430c0 273 -109 456 -272 456c-173 0 -270 -161 -270 -430c0 -273 108 -456 275 -456z" />
    <glyph glyph-name="pi.grek" unicode="&#x3c0;" horiz-adv-x="1158" 
d="M93 0c92 270 171 554 240 833h-256l43 145h399c206 0 407 4 559 9v-154h-225l31 -506c11 -181 59 -228 141 -228c26 0 53 6 73 16v-42c-43 -51 -111 -86 -197 -86c-123 0 -210 78 -202 305l15 541h-328l-63 -833h-230z" />
    <glyph glyph-name="rho.grek" unicode="&#x3c1;" horiz-adv-x="1153" 
d="M129 -460l2 967c1 315 181 489 452 489c308 0 479 -209 479 -506c0 -340 -226 -507 -463 -509c-113 -1 -218 40 -275 106c1 -141 4 -301 9 -547h-204zM324 520c0 -144 -1 -253 0 -368c43 -58 132 -97 234 -97c172 0 289 157 289 443c0 269 -103 433 -270 433
c-181 0 -253 -179 -253 -411z" />
    <glyph glyph-name="sigmafinal.grek" unicode="&#x3c2;" horiz-adv-x="971" 
d="M699 -400c33 60 55 140 55 204c0 88 -42 139 -168 164l-54 10c-276 54 -440 217 -440 492c0 320 223 526 475 526c206 0 312 -108 312 -239c0 -63 -47 -110 -107 -110c-63 0 -107 50 -107 107c0 60 43 105 99 105c4 0 9 -1 13 -1c-41 44 -107 69 -185 69
c-187 0 -311 -145 -311 -389c0 -205 105 -332 300 -371l53 -10c181 -36 243 -114 243 -231c0 -100 -57 -223 -132 -326h-46z" />
    <glyph glyph-name="sigma.grek" unicode="&#x3c3;" horiz-adv-x="1202" 
d="M581 -19c-286 0 -489 200 -489 472c0 295 202 518 568 524l490 9v-154c-153 5 -291 7 -432 8c186 -23 344 -186 344 -401c0 -275 -235 -458 -481 -458zM582 46c159 0 270 147 270 393c0 215 -120 365 -250 394c-187 -17 -292 -166 -292 -394c0 -245 111 -393 272 -393z
" />
    <glyph glyph-name="tau.grek" unicode="&#x3c4;" horiz-adv-x="951" 
d="M600 -19c-170 0 -280 122 -262 401l29 451h-344l44 145h340c84 0 364 5 503 9v-154h-404l14 -449c6 -211 75 -289 201 -289c66 0 121 16 156 37v-46c-56 -58 -164 -105 -277 -105z" />
    <glyph glyph-name="upsilon.grek" unicode="&#x3c5;" horiz-adv-x="1074" 
d="M539 -19c-234 0 -357 149 -357 367c0 67 6 327 6 396c0 107 -38 146 -109 146c-30 0 -51 -7 -64 -15v46c35 35 103 67 180 67c124 0 191 -72 191 -232c0 -51 -9 -307 -9 -377c0 -187 75 -291 232 -291c161 0 271 117 271 349c0 201 -93 360 -232 399
c-25 92 26 160 104 160c130 0 221 -180 221 -458c0 -368 -203 -557 -434 -557z" />
    <glyph glyph-name="phi.grek" unicode="&#x3c6;" horiz-adv-x="1517" 
d="M653 -460c7 148 13 295 19 442c-342 16 -584 206 -584 501c0 308 269 504 621 513c5 150 9 300 13 452h71c4 -152 8 -302 13 -452c371 -10 624 -200 624 -502c0 -301 -259 -497 -587 -512c6 -147 13 -294 19 -442h-209zM301 493c0 -241 140 -423 374 -444
c12 293 23 586 32 882c-248 -11 -406 -186 -406 -438zM1216 482c0 247 -145 432 -408 447c10 -295 21 -588 33 -882c223 16 375 189 375 435z" />
    <glyph glyph-name="chi.grek" unicode="&#x3c7;" horiz-adv-x="1002" 
d="M41 -459c137 218 267 457 395 711l-183 440c-68 162 -114 197 -178 197c-29 0 -53 -10 -67 -20v47c35 38 90 72 164 72c123 0 186 -75 274 -286l142 -342l202 617h220c-140 -220 -273 -450 -394 -684l196 -470c72 -161 115 -197 178 -197c29 0 54 9 67 19v-46
c-35 -39 -90 -72 -163 -72c-123 0 -187 74 -275 286l-155 373l-203 -645h-220z" />
    <glyph glyph-name="psi.grek" unicode="&#x3c8;" horiz-adv-x="1370" 
d="M632 -460c6 147 13 294 19 442c-293 12 -477 169 -477 462c0 87 14 206 14 300c0 107 -38 146 -109 146c-30 0 -51 -7 -64 -15v46c35 35 103 67 180 67c122 0 190 -72 190 -232c0 -92 -17 -216 -17 -308c0 -232 103 -342 287 -373c18 457 34 915 46 1373h70
c13 -461 29 -921 48 -1380c214 16 354 159 354 397c0 186 -85 330 -214 370c-21 100 33 161 108 161c126 0 213 -166 213 -420c0 -327 -197 -553 -458 -590c6 -149 12 -298 19 -446h-209z" />
    <glyph glyph-name="omega.grek" unicode="&#x3c9;" horiz-adv-x="1488" 
d="M412 -19c-183 0 -319 157 -319 435c0 268 153 495 389 578l30 -31c-133 -92 -212 -274 -212 -517c0 -233 73 -353 196 -353c121 0 193 114 193 417v185h191v-185c0 -286 77 -417 216 -417c128 0 209 116 209 302c0 220 -123 397 -283 438c-26 99 25 163 104 163
c140 0 266 -212 266 -501c0 -317 -152 -514 -358 -514c-183 -1 -287 129 -312 292c-33 -157 -145 -292 -310 -292z" />
    <glyph glyph-name="iotadieresis.grek" unicode="&#x3ca;" horiz-adv-x="620" 
d="M41 1187c-60 0 -108 46 -108 105s48 105 108 105s108 -46 108 -105s-48 -105 -108 -105zM461 1187c-60 0 -108 46 -108 105s48 105 108 105s108 -46 108 -105s-48 -105 -108 -105zM383 -19c-141 0 -235 84 -236 271l-3 726h204c-10 -250 -22 -566 -22 -696
c0 -133 61 -191 158 -191c61 0 106 17 136 40v-47c-47 -61 -138 -103 -237 -103z" />
    <glyph glyph-name="upsilondieresis.grek" unicode="&#x3cb;" horiz-adv-x="1074" 
d="M307 1187c-60 0 -108 46 -108 105s48 105 108 105s108 -46 108 -105s-48 -105 -108 -105zM727 1187c-60 0 -108 46 -108 105s48 105 108 105s108 -46 108 -105s-48 -105 -108 -105zM539 -19c-234 0 -357 149 -357 367c0 67 6 327 6 396c0 107 -38 146 -109 146
c-30 0 -51 -7 -64 -15v46c35 35 103 67 180 67c124 0 191 -72 191 -232c0 -51 -9 -307 -9 -377c0 -187 75 -291 232 -291c161 0 271 117 271 349c0 201 -93 360 -232 399c-25 92 26 160 104 160c130 0 221 -180 221 -458c0 -368 -203 -557 -434 -557z" />
    <glyph glyph-name="omicrontonos.grek" unicode="&#x3cc;" horiz-adv-x="1157" 
d="M546 1111l54 356h202v-9l-199 -347h-57zM578 -19c-282 0 -486 199 -486 507c0 309 219 508 491 508c276 0 483 -198 483 -507c0 -308 -222 -508 -488 -508zM583 46c168 0 267 161 267 430c0 273 -109 456 -272 456c-173 0 -270 -161 -270 -430c0 -273 108 -456 275 -456z
" />
    <glyph glyph-name="upsilontonos.grek" unicode="&#x3cd;" horiz-adv-x="1074" 
d="M482 1111l54 356h203v-9l-199 -347h-58zM539 -19c-234 0 -357 149 -357 367c0 67 6 327 6 396c0 107 -38 146 -109 146c-30 0 -51 -7 -64 -15v46c35 35 103 67 180 67c124 0 191 -72 191 -232c0 -51 -9 -307 -9 -377c0 -187 75 -291 232 -291c161 0 271 117 271 349
c0 201 -93 360 -232 399c-25 92 26 160 104 160c130 0 221 -180 221 -458c0 -368 -203 -557 -434 -557z" />
    <glyph glyph-name="omegatonos.grek" unicode="&#x3ce;" horiz-adv-x="1488" 
d="M744 1111l53 356h203v-9l-199 -347h-57zM412 -19c-183 0 -319 157 -319 435c0 268 153 495 389 578l30 -31c-133 -92 -212 -274 -212 -517c0 -233 73 -353 196 -353c121 0 193 114 193 417v185h191v-185c0 -286 77 -417 216 -417c128 0 209 116 209 302
c0 220 -123 397 -283 438c-26 99 25 163 104 163c140 0 266 -212 266 -501c0 -317 -152 -514 -358 -514c-183 -1 -287 129 -312 292c-33 -157 -145 -292 -310 -292z" />
    <glyph glyph-name="Io.cyrl" unicode="&#x401;" horiz-adv-x="1230" 
d="M482 1587c-54 0 -96 42 -96 95s42 95 96 95c53 0 96 -42 96 -95s-43 -95 -96 -95zM799 1587c-54 0 -96 42 -96 95s42 95 96 95c53 0 96 -42 96 -95s-43 -95 -96 -95zM1097 1444l14 -347h-43c-52 221 -137 274 -403 284l-237 9v-623l287 4c105 3 128 42 161 201h40v-464
h-40c-29 156 -54 198 -161 201l-287 4v-659l263 10c297 12 374 56 427 324h43l-17 -388h-1084v47c134 16 152 37 152 125v1100c0 89 -18 109 -152 125v47h1037z" />
    <glyph glyph-name="Dje.cyrl" unicode="&#x402;" horiz-adv-x="1688" 
d="M923 47v-47h-532v47c133 16 152 37 152 125v1218l-79 -3c-251 -13 -330 -71 -375 -299h-43l13 356h1191l14 -356h-43c-46 227 -126 286 -377 298l-85 4v-648c76 50 193 85 342 85c282 0 503 -163 503 -505v-2c0 -326 -207 -567 -498 -698l-24 37c196 127 306 365 306 640
v2c0 288 -145 445 -367 445c-105 0 -197 -22 -262 -62v-498c0 -97 19 -123 164 -139z" />
    </font>
</defs>
</svg>
